<svg width="68" height="68" viewBox="0 0 68 68" fill="none" xmlns="http://www.w3.org/2000/svg">
<g clip-path="url(#clip0_344_3970)">
<path fill-rule="evenodd" clip-rule="evenodd" d="M18.0985 -103.697C15.4109 -102.977 13.4048 -101.453 12.3106 -99.301C11.6383 -97.9783 11.0841 -95.3533 11.0841 -93.4909C11.0841 -92.067 11.0839 -92.0665 10.4554 -92.0665C9.4679 -92.0665 9.28179 -91.647 9.36851 -89.6169C9.43295 -88.1117 9.56445 -87.5702 10.1577 -86.3697C10.5492 -85.5774 11.1226 -84.7637 11.4319 -84.5617C12.2661 -84.0171 12.5677 -83.0533 12.7335 -80.4048C13.0118 -75.9562 12.6151 -75.411 7.18306 -72.7776C3.88949 -71.181 2.96943 -70.8346 0.850169 -70.3942C-0.513308 -70.1107 -2.23349 -69.5953 -2.97246 -69.2487C-5.50741 -68.0592 -7.33157 -65.9162 -8.52401 -62.726C-9.01767 -61.4053 -9.07032 -60.9605 -9.04782 -58.2926C-9.02313 -55.3829 -9.03908 -55.2791 -9.89098 -52.7508C-11.0764 -49.2341 -11.4148 -47.2606 -11.4148 -43.8647C-11.4148 -41.4076 -11.51 -40.6108 -12.0815 -38.2824C-13.4137 -32.854 -13.4399 -28.602 -12.1843 -21.6317C-11.5762 -18.2573 -11.4611 -14.6383 -11.8735 -11.8738C-12.4222 -8.19745 -10.813 -5.02037 -7.51483 -3.26831C-5.87591 -2.39762 -4.52357 -2.18816 -3.6033 -2.66238C-2.84009 -3.05581 -2.51702 -3.75864 -2.89229 -4.20933C-3.0843 -4.4399 -3.0642 -4.63149 -2.80688 -5.02296C-2.55481 -5.40639 -2.4552 -6.27338 -2.40999 -8.47723L-2.3497 -11.4194L-3.21034 -13.0419C-4.00239 -14.5353 -4.07818 -14.8296 -4.16228 -16.7417C-4.25774 -18.9133 -4.12187 -19.5977 -2.57141 -24.7528C-1.7383 -27.5232 -1.54979 -28.9258 -1.46459 -32.9933L-1.80423 -36.7737L-0.826771 -38.7223C-0.0220528 -40.3285 0.80539 -41.4821 1.14768 -42.969C1.28289 -43.556 1.35956 -43.4234 1.90238 -41.6626C2.23462 -40.5849 2.76957 -39.0288 3.09088 -38.2044L3.67542 -36.7058L3.60639 -30.2574C3.53846 -23.9071 3.52513 -23.7443 2.74335 -19.5633C2.3067 -17.2281 1.77808 -13.8479 1.56904 -12.0517C1.12562 -8.24316 1.02186 -3.20734 1.38446 -3.08368C1.5437 -3.02946 1.67083 -3.85878 1.7652 -5.56729C1.96681 -9.21575 2.64942 -14.6385 3.52251 -19.526C3.93601 -21.8407 4.30845 -23.7684 4.34995 -23.81C4.39167 -23.8516 4.96747 -23.7033 5.62933 -23.4806C7.04698 -23.0036 10.4777 -22.2914 12.9408 -21.9628C15.9065 -21.5672 23.4281 -21.4316 26.1809 -21.7242C29.3346 -22.0595 33.664 -22.9134 35.1304 -23.4895C35.7523 -23.7338 36.28 -23.9056 36.3034 -23.8714C36.3512 -23.8007 37.0457 -19.8748 37.9511 -14.5555C38.2875 -12.5797 38.7228 -9.39539 38.9185 -7.47939C39.398 -2.7867 39.4371 -2.58051 39.8464 -2.58051C40.1464 -2.58051 40.1726 -2.82023 40.043 -4.37676C39.6999 -8.49965 39.1988 -12.1407 38.2671 -17.2771C37.7241 -20.2709 37.2261 -23.2592 37.1601 -23.9178C37.0942 -24.5764 37.1424 -27.7309 37.2671 -30.928L37.4941 -36.7404L38.4819 -39.0018C39.0251 -40.2454 39.5874 -41.7939 39.7311 -42.4425L39.9924 -43.6222L40.1776 -42.7512C40.4329 -41.5511 41.391 -38.663 42.0553 -37.0903C42.562 -35.8911 42.6031 -35.5521 42.5581 -32.9535C42.5035 -29.8211 42.856 -27.1589 43.7403 -24.0267C45.794 -16.7513 45.8183 -16.3444 44.3643 -13.5751L43.3501 -11.6432L43.5002 -8.47918C43.6166 -6.02169 43.7291 -5.22829 44.0042 -4.92565C44.3113 -4.5873 44.3185 -4.46233 44.0592 -3.9794C43.5098 -2.9563 44.6217 -2.03619 46.1398 -2.25739C48.602 -2.61621 50.9318 -4.43773 52.2442 -7.02977C52.95 -8.42388 52.9886 -9.01545 52.8167 -15.753C52.7523 -18.278 52.8407 -19.4365 53.3316 -22.5026C54.0387 -26.9187 54.2992 -32.2529 53.9174 -34.4907C53.7754 -35.3217 53.4281 -36.7855 53.1457 -37.7435C52.7182 -39.1925 52.6114 -40.1627 52.5109 -43.5133C52.3766 -47.9874 52.0773 -49.6001 50.7449 -53.0306C50.0109 -54.92 49.9655 -55.1852 49.962 -57.6029C49.9574 -60.6748 49.5708 -62.664 48.5705 -64.7635C47.0498 -67.9552 45.0869 -69.2424 40.3215 -70.1736C37.7125 -70.6835 37.3585 -70.8187 33.9869 -72.5939C32.0227 -73.6281 29.9889 -74.7187 29.4672 -75.0176C28.1603 -75.7666 27.6955 -76.8385 27.6924 -79.1117C27.6903 -80.6729 27.775 -81.0343 28.5096 -82.5954C28.9605 -83.5534 29.5843 -84.5882 29.896 -84.8952C30.7117 -85.698 31.4242 -87.7671 31.5411 -89.6715C31.6551 -91.5316 31.3779 -92.3017 30.5232 -92.5018C29.9998 -92.6241 29.9738 -92.7123 29.8462 -94.7973C29.6863 -97.4154 29.5684 -97.9077 28.7104 -99.5403C27.9233 -101.037 26.7591 -102.094 24.9548 -102.949C22.7029 -104.015 20.2744 -104.281 18.0985 -103.697ZM22.4867 -102.928C24.2999 -102.548 25.7833 -101.743 26.9657 -100.497C28.5588 -98.8174 29.0251 -97.4322 29.1623 -93.9717C29.2228 -92.4449 29.3456 -91.1956 29.4349 -91.1956C29.5245 -91.1956 29.72 -91.3426 29.8696 -91.5222C30.2641 -91.996 30.4382 -91.9298 30.7462 -91.1889C31.0872 -90.3685 30.9004 -88.564 30.3159 -87.0305C29.7892 -85.649 29.32 -85.1125 28.765 -85.2571C28.472 -85.3335 28.3405 -85.2571 28.3405 -85.0104C28.3405 -83.5482 26.1402 -79.7719 24.5146 -78.4442C23.4504 -77.575 21.6848 -76.8256 20.7012 -76.8256C19.4841 -76.8256 17.6673 -77.6915 16.3735 -78.8884C15.0522 -80.1109 13.2921 -82.7931 12.6422 -84.5747C12.3342 -85.4189 12.1582 -85.6336 11.8041 -85.5963C10.7534 -85.4859 9.40106 -90.6535 10.2883 -91.3877C10.5931 -91.6396 10.6697 -91.6006 10.862 -91.0963C10.9843 -90.7761 11.0841 -90.4225 11.0841 -90.3106C11.0841 -90.1986 11.2316 -90.107 11.4118 -90.107C11.6754 -90.107 11.7394 -90.444 11.7394 -91.8331C11.7394 -95.4352 12.4266 -98.3284 13.6975 -100.077C15.4823 -102.533 18.9716 -103.665 22.4867 -102.928ZM14.1315 -80.326C16.3587 -76.8665 20.234 -75.3662 23.2073 -76.8125C23.808 -77.1047 24.9139 -77.953 25.6647 -78.6974L27.0299 -80.0512V-78.5402C27.0299 -75.742 27.7016 -74.9856 32.2315 -72.6812C33.8759 -71.8449 35.7619 -70.8658 36.4227 -70.5054C37.0987 -70.137 38.2449 -69.7523 39.0439 -69.6258C43.5874 -68.9069 45.6446 -67.9223 47.1776 -65.7328C48.581 -63.7282 49.1356 -61.5949 49.2466 -57.7744C49.3364 -54.6855 49.3816 -54.4079 50.0806 -52.652C51.4559 -49.1971 51.9085 -46.4683 51.9242 -41.5374C51.9301 -39.6885 52.0356 -38.9306 52.4591 -37.6886C53.699 -34.0554 53.7632 -29.2728 52.6571 -22.938C52.0839 -19.6556 52.0522 -19.1378 52.1081 -13.9707C52.1745 -7.84038 52.1697 -7.81294 50.6595 -5.9161C49.5791 -4.55944 48.1706 -3.55354 46.863 -3.20495C45.8956 -2.94695 44.7232 -3.07343 44.7232 -3.43552C44.7232 -3.54198 45.1719 -4.08936 45.7204 -4.65175C46.9288 -5.89105 47.1324 -6.38159 47.1042 -7.98341C47.0784 -9.45547 46.8847 -10.245 46.5192 -10.3662C46.3211 -10.4322 46.2523 -9.90791 46.2523 -8.33112C46.2523 -5.9555 46.0035 -5.41097 44.9181 -5.41097C44.3163 -5.41097 44.3073 -5.43012 44.3357 -6.6629C44.3517 -7.35157 44.2888 -8.74764 44.1964 -9.76552L44.028 -11.6162L44.9762 -13.1403L45.9246 -14.6644L45.9181 -17.0594C45.9122 -19.2308 45.8279 -19.729 45.0153 -22.3939C43.6608 -26.8356 43.3375 -28.6416 43.3194 -31.8649C43.3106 -33.4216 43.3733 -35.3812 43.4587 -36.2194C43.5797 -37.4067 43.5603 -37.6353 43.3707 -37.2536C43.237 -36.9841 43.0572 -36.7637 42.9716 -36.7637C42.886 -36.7637 42.6114 -37.327 42.3613 -38.0157C41.0262 -41.6927 40.2442 -45.5924 39.9816 -49.8812C39.8541 -51.9664 39.8643 -52.0284 40.5719 -53.4179C41.028 -54.3134 41.3244 -55.2519 41.3801 -55.9767C41.4648 -57.0782 41.4557 -57.1008 41.1376 -56.5769C40.9557 -56.2776 40.8034 -55.8857 40.799 -55.706C40.7811 -54.9727 39.443 -52.6086 38.531 -51.6998C36.5583 -49.7336 34.9035 -49.2831 29.6512 -49.2831C25.3034 -49.2831 24.2298 -49.5195 22.7176 -50.8096C21.4753 -51.8695 21.1457 -52.8675 20.9834 -56.0588C20.9076 -57.5502 20.7626 -58.8217 20.6612 -58.8842C20.5599 -58.9465 20.4723 -58.8204 20.4666 -58.6038C20.4609 -58.3871 20.3766 -56.9543 20.2794 -55.4195C20.1153 -52.8336 20.0561 -52.564 19.4705 -51.7408C18.0972 -49.8104 15.9437 -49.1938 10.5293 -49.181C4.12693 -49.1657 0.797746 -51.2178 -0.0559015 -55.7054C-0.304263 -57.01 -0.362589 -57.1184 -0.703568 -56.9083C-1.18849 -56.6096 -0.254243 -53.3894 0.726315 -51.979C1.03977 -51.5283 1.23199 -51.0558 1.15357 -50.9293C1.07516 -50.803 0.918758 -49.2469 0.806046 -47.4714C0.692677 -45.6864 0.412206 -43.5074 0.17848 -42.5969C-0.285479 -40.7886 -1.56507 -38.0279 -2.30295 -37.243C-2.73851 -36.7796 -2.63797 -36.8086 -2.7817 -37.1711C-2.91189 -37.5001 -2.7817 -37.748 -2.94039 -37.1711C-2.99219 -36.9828 -2.61079 -36.4911 -2.29297 -35.7994C-1.74185 -34.5993 -1.96482 -34.185 -2.08998 -31.7765C-2.25402 -28.6155 -2.65201 -26.5338 -3.77936 -22.938C-5.30142 -18.0827 -5.3652 -15.4014 -4.00894 -13.2701C-3.05546 -11.7719 -2.88224 -10.8467 -3.03974 -8.09511C-3.16359 -5.93068 -3.22585 -5.65046 -3.6044 -5.55161C-4.6518 -5.2788 -4.85385 -5.68661 -5.02117 -8.4119C-5.14174 -10.3773 -5.37263 -11.004 -5.75096 -10.3937C-5.95913 -10.0579 -5.81977 -8.00062 -5.48491 -6.46259C-5.30448 -5.63414 -5.10461 -5.34086 -4.40715 -4.8808C-3.03428 -3.97527 -3.41829 -2.83155 -5.00916 -3.08891C-7.00042 -3.41092 -9.5725 -5.30406 -10.5832 -7.19176C-11.0758 -8.11144 -11.0856 -8.251 -11.0201 -13.429C-10.955 -18.5611 -10.9751 -18.8552 -11.6631 -22.9002C-12.263 -26.4273 -12.3739 -27.632 -12.3785 -30.6674C-12.3838 -34.0404 -12.3394 -34.4327 -11.654 -37.0903C-11.0375 -39.4803 -10.8969 -40.4967 -10.7512 -43.6222C-10.5574 -47.7723 -10.4722 -48.2393 -9.1116 -52.6121C-8.15638 -55.6821 -8.14524 -55.7528 -8.28089 -57.963C-8.49714 -61.4858 -7.66774 -64.0252 -5.51768 -66.4232C-4.02357 -68.0895 -2.06726 -69.0466 1.25449 -69.7362C3.44235 -70.1901 4.25056 -70.4976 7.51574 -72.1166C9.57799 -73.139 11.6112 -74.2786 12.0343 -74.6488C13.1938 -75.6636 13.5452 -76.8171 13.4541 -79.309C13.412 -80.4582 13.3921 -81.3981 13.4096 -81.3981C13.4271 -81.3979 13.7519 -80.9154 14.1315 -80.326ZM8.58804 -69.4457C8.19748 -69.2931 8.19486 -69.2707 8.55134 -69.1344C8.76257 -69.0536 9.44344 -68.9865 10.0644 -68.9857C11.8268 -68.9828 15.0225 -68.5761 16.1319 -68.2134C16.6857 -68.0322 17.5505 -67.5328 18.0537 -67.1036C19.0114 -66.2865 19.3676 -66.246 18.9627 -67.0004C18.6167 -67.6445 17.4279 -68.4908 16.3115 -68.8873C15.7696 -69.0799 13.9983 -69.3192 12.2855 -69.4314C8.79097 -69.6598 9.13326 -69.6584 8.58804 -69.4457ZM26.047 -69.2874C23.9677 -68.9136 22.6566 -68.324 21.8928 -67.4191C21.5848 -67.054 21.372 -66.7161 21.4203 -66.6682C21.4683 -66.6201 22.0129 -66.9197 22.6304 -67.3338C23.9325 -68.2073 25.6778 -68.6347 29.4327 -68.9994C30.8143 -69.1337 32.0382 -69.333 32.1523 -69.442C32.479 -69.7547 28.017 -69.6415 26.047 -69.2874ZM20.9799 -52.2768C21.1734 -51.3166 22.0594 -50.194 23.0568 -49.6451C24.8869 -48.6379 29.3425 -48.2515 33.3703 -48.7503C35.3705 -48.9978 37.1389 -49.6796 38.4102 -50.6926L39.1964 -51.3193L39.3292 -48.5541C39.524 -44.4931 39.2053 -42.6062 37.6929 -38.867C36.9024 -36.9127 36.8043 -36.4502 36.6302 -33.854C36.5247 -32.2809 36.4056 -29.538 36.3654 -27.7587L36.2925 -24.5235L34.6647 -24.0049C29.7551 -22.4407 22.3576 -21.8152 15.6713 -22.3992C10.9644 -22.81 5.92225 -23.8085 4.74947 -24.5616C4.47489 -24.7382 4.4039 -25.8042 4.31041 -31.149L4.19923 -37.5258L3.57385 -38.941C2.22872 -41.9844 1.86961 -43.5973 1.70753 -47.3235C1.62431 -49.2395 1.58171 -50.8431 1.61273 -50.8871C1.64396 -50.9308 2.16537 -50.6626 2.77153 -50.2909C4.6005 -49.1692 6.31675 -48.7076 9.11819 -48.5844C12.4362 -48.4385 16.2224 -48.806 17.6337 -49.4113C18.8943 -49.9517 20.2147 -51.2966 20.4021 -52.2309C20.5642 -53.0389 20.822 -53.0593 20.9799 -52.2768ZM20.5911 -46.3437C20.4738 -46.1641 20.2973 -43.1758 20.1988 -39.7031C20.0114 -33.0881 20.0457 -30.3715 20.3202 -30.0978C20.8373 -29.5824 20.9161 -30.8076 20.8617 -38.5191C20.8237 -43.9215 20.7326 -46.5602 20.5911 -46.3437ZM15.2344 -44.1721C13.6278 -43.9646 10.7086 -43.0872 10.4026 -42.7197C10.0533 -42.3001 10.5409 -42.3334 12.4423 -42.8586C13.3065 -43.0972 14.6568 -43.3554 15.443 -43.4323C17.1073 -43.5949 17.8659 -43.8884 17.3936 -44.1865C17.0605 -44.3968 16.9716 -44.3962 15.2344 -44.1721ZM23.5896 -43.6766C23.6409 -43.5224 24.3823 -43.3038 25.3006 -43.1721C26.1916 -43.0443 27.6813 -42.7573 28.6108 -42.5342C30.9021 -41.9844 31.3434 -42.4843 29.1099 -43.0996C26.1389 -43.9183 23.4135 -44.2031 23.5896 -43.6766ZM22.3882 -36.2072C22.0039 -35.8103 22.3836 -35.7317 25.3371 -35.5974C27.0489 -35.5194 28.9786 -35.3933 29.6249 -35.3171C30.552 -35.2081 30.7796 -35.2401 30.7029 -35.4696C30.6494 -35.6294 30.3172 -35.8471 29.9646 -35.9534C29.1221 -36.2072 22.5996 -36.4258 22.3882 -36.2072ZM13.1593 -35.8554C12.5586 -35.7419 11.9688 -35.5477 11.8486 -35.4238C11.6322 -35.2009 17.2685 -35.3566 18.1287 -35.5974C19.8176 -36.0703 15.4858 -36.2952 13.1593 -35.8554ZM28.6986 -29.4276C28.6219 -29.351 28.559 -28.6974 28.559 -27.9747C28.559 -26.3905 28.9401 -26.5423 29.1378 -28.2051C29.258 -29.2164 29.0546 -29.7825 28.6986 -29.4276ZM11.7067 -28.9016C11.5092 -28.3222 11.7728 -26.2878 12.0343 -26.3733C12.4091 -26.4961 12.4672 -28.3087 12.1119 -28.7927C11.8775 -29.1119 11.7866 -29.1365 11.7067 -28.9016ZM17.2056 3.85007C14.6756 4.559 12.3041 6.5647 11.0902 9.02262C10.4292 10.3608 9.79687 13.0578 9.78114 14.6056C9.77699 15.0169 9.56401 15.7848 9.30801 16.3119C8.49062 17.995 9.05287 20.6443 10.5168 22.0062C11.0251 22.4793 11.0837 22.694 11.0802 24.0746C11.0699 28.1911 10.4371 30.7238 9.22063 31.5182C8.91963 31.7148 7.30211 32.3959 5.62649 33.0319C3.95065 33.6676 1.72894 34.5849 0.689618 35.0704C-0.3497 35.556 -2.04826 36.1541 -3.08495 36.3995C-5.60636 36.9963 -7.02466 37.6758 -8.37241 38.9323C-9.63803 40.1122 -10.5544 41.7545 -11.0961 43.8129C-11.3879 44.9218 -11.4347 45.7143 -11.322 47.6477C-11.2127 49.5221 -11.2518 50.2561 -11.4915 50.8276C-12.0308 52.1142 -13.3645 57.1206 -13.5915 58.7098C-13.711 59.548 -13.8108 60.9798 -13.8132 61.8912C-13.8158 62.8521 -14.0627 64.6825 -14.4006 66.2458C-14.9176 68.6386 -14.9851 69.4344 -14.9989 73.2975C-15.0157 77.9721 -14.8534 79.5361 -13.7671 85.1637C-13.1219 88.5067 -13.0732 89.0889 -13.0633 93.5462C-13.0535 98.1154 -13.0297 98.3832 -12.5437 99.3574C-11.9021 100.643 -10.2038 102.241 -8.85013 102.831C-8.27849 103.081 -7.15529 103.335 -6.35428 103.397C-5.005 103.5 -4.85647 103.467 -4.33375 102.946C-3.99146 102.605 -3.76953 102.14 -3.76953 101.764C-3.76953 101.424 -3.6542 101.03 -3.51331 100.889C-3.3462 100.723 -3.23283 99.483 -3.18806 97.3336C-3.11379 93.774 -3.28723 92.9897 -4.50435 91.3809C-5.75686 89.7253 -5.79967 88.1304 -4.75621 82.0136C-3.69592 75.7975 -3.33266 72.8464 -3.33266 70.4505C-3.33266 68.5363 -3.27893 68.2815 -2.5867 66.9114C-2.17648 66.0995 -1.51309 64.5098 -1.11226 63.3787C-0.522484 61.7142 -0.371326 61.4468 -0.318465 61.9757C-0.209902 63.0632 0.36524 64.6844 1.51683 67.15C2.87376 70.0547 3.08193 71.4911 2.94213 76.9813C2.85039 80.5905 2.77568 81.1871 2.04305 84.1543C0.40172 90.802 -1.10177 103.017 -0.278708 103.017C0.0113745 103.017 0.081275 102.603 0.493027 98.4451C0.982324 93.5022 1.62605 89.147 2.23068 86.6878C2.5105 85.5501 2.905 83.8528 3.10749 82.9159C3.41308 81.5022 3.53715 81.2357 3.83509 81.3495C4.03278 81.4251 5.17935 81.6245 6.38315 81.7928C16.3862 83.19 26.9768 83.1519 31.6132 81.7016C32.3921 81.458 33.0992 81.3291 33.1848 81.4148C33.5747 81.8067 35.521 95.1733 35.8705 99.8603C36.0769 102.63 36.2143 103.453 36.4701 103.453C37.156 103.453 35.7451 90.1862 34.2355 82.4421C33.9163 80.8059 33.1485 72.0201 33.1507 70.0316C33.1518 69.0736 33.2969 67.6799 33.4731 66.9347C33.6494 66.1894 34.1405 63.691 34.5644 61.3826C35.4054 56.8032 35.7693 55.6022 37.2123 52.6472C37.7392 51.5683 38.1717 50.5313 38.1734 50.3432C38.1798 49.7111 38.5393 49.3468 38.8792 49.6284C40.218 50.7357 47.8169 51.0519 51.6658 50.1601C54.7984 49.4344 59.815 47.3089 62.1238 45.7295C64.0644 44.4018 64.3069 43.119 63.5039 38.4283C62.5065 32.6025 62.173 31.8533 55.6653 20.8252C55.1 19.8672 54.4502 18.6536 54.2208 18.1282C53.9917 17.603 53.5166 16.8865 53.1651 16.5362C52.325 15.6986 47.3346 13.2191 45.8593 12.906C44.3325 12.582 42.7071 12.594 42.2748 12.9326C41.7431 13.3486 39.7195 17.8957 39.5647 19.0218C39.3976 20.2358 39.9775 21.5439 41.2829 22.898C42.1981 23.8475 42.7405 23.9383 43.0681 23.1967L43.27 22.7403L44.0408 23.2618C45.0033 23.9128 45.683 23.8531 45.7702 23.11C45.8283 22.6145 45.9288 22.564 46.8624 22.5601C47.4279 22.5579 48.038 22.4867 48.2182 22.402C48.4061 22.3138 48.7549 22.4089 49.036 22.6254C49.6011 23.06 50.3517 25.7343 50.9447 29.4254C51.1466 30.6828 51.4854 32.667 51.6975 33.8344C51.9096 35.0019 52.0611 35.9573 52.0345 35.9573C52.0079 35.9573 51.441 35.7171 50.775 35.4234C48.6317 34.4787 47.0177 34.1743 44.5135 34.2427C42.303 34.303 42.1584 34.2784 40.8855 33.6241C38.6398 32.4697 37.4266 32.3669 32.6809 32.9295C27.1308 33.5873 26.5031 33.3894 25.8106 30.7647C25.5516 29.7834 25.5614 29.7385 26.1228 29.3179C27.8731 28.0069 29.2866 25.49 29.6088 23.1113C29.7143 22.333 29.7912 19.5406 29.7796 16.9061C29.7595 12.2753 29.7388 12.0569 29.1544 10.3357C28.1459 7.36462 26.1033 5.18649 23.3689 4.16644C21.7023 3.5446 18.8235 3.39677 17.2056 3.85007ZM123.717 4.06737C122.005 4.49586 120.024 5.57448 119.123 6.56797C117.794 8.0348 116.901 11.3386 117.063 14.1941C117.145 15.6468 117.129 15.7086 116.655 15.7086C115.995 15.7086 115.512 16.4979 115.353 17.8343C115.09 20.049 116.252 22.7092 117.835 23.5139L118.666 23.9367L118.516 26.7972C118.285 31.1762 118.128 31.4492 115.06 32.7952C114.038 33.2433 112.345 33.9894 111.297 34.4532C110.248 34.9172 108.184 35.6442 106.71 36.0692C101.538 37.5595 99.3842 39.0668 97.6334 42.4209C96.3102 44.9564 95.9775 46.5921 96.1535 49.6974L96.2968 52.2246L95.2073 55.1578C93.9434 58.5606 93.5181 60.6894 93.3405 64.5007C93.237 66.7226 93.1007 67.5497 92.6232 68.8552C92.0461 70.4333 92.034 70.5675 92.0579 75.2571C92.0843 80.4325 92.2374 81.9803 93.2263 87.0629C93.7979 90.0001 93.8713 90.837 93.8713 94.4136C93.8713 98.0621 93.9154 98.5435 94.3307 99.4242C95.3748 101.638 98.1288 103.452 100.445 103.453C101.866 103.453 102.39 103.054 102.39 101.974C102.39 101.535 102.533 101.215 102.79 101.078C103.153 100.884 103.188 100.541 103.172 97.3142L103.155 93.7639L102.316 92.3585C100.818 89.8468 100.768 87.6042 102.093 82.2244C103.105 78.115 103.48 75.5147 103.481 72.5888C103.482 70.2058 103.507 70.0797 104.385 68.0165C104.881 66.8495 105.598 64.9348 105.979 63.7615L106.671 61.6282L107.399 63.7615C109.275 69.265 109.409 69.9313 109.506 74.1685C109.588 77.8228 109.558 78.2125 109.061 79.9382C108.489 81.9204 107.471 87.3484 106.774 92.131C105.997 97.4631 105.632 103.453 106.083 103.453C106.294 103.453 106.442 102.459 106.653 99.6426C107.003 94.9529 109.171 81.4075 109.751 80.2909C110.038 79.7379 110.097 78.7745 110.096 74.7182L110.095 69.8139L108.763 65.7859C107.315 61.407 106.834 59.552 106.022 55.2262C105.409 51.9642 105.029 50.7288 104.595 50.5864C104.376 50.5148 104.33 50.5973 104.435 50.8703C104.598 51.2938 105.856 57.9693 106.037 59.3728C106.178 60.4632 105.366 63.6097 104.132 66.7542C103.223 69.0732 102.479 70.297 101.118 71.719C100.417 72.4506 100.384 72.5355 100.798 72.5355C101.072 72.5355 101.61 72.1399 102.117 71.5666L102.972 70.5979L102.891 72.3831C102.748 75.4994 102.397 77.7677 101.467 81.5712C100.673 84.8201 100.56 85.5919 100.548 87.8853L100.534 90.498L101.574 92.4584L102.615 94.4189L102.523 97.4274C102.473 99.0821 102.387 100.48 102.333 100.534C102.278 100.589 102.11 100.483 101.958 100.301C101.626 99.9021 101.215 99.8573 101.411 100.241C101.488 100.391 101.346 100.282 101.096 99.9994C100.847 99.7168 100.641 99.3249 100.64 99.1285C100.637 98.8603 100.592 98.8411 100.458 99.0519C100.167 99.5082 99.6096 97.8446 99.5622 96.3795C99.5388 95.6625 99.4722 95.0285 99.4141 94.9706C99.1216 94.679 98.8842 95.6492 98.9735 96.7701C99.0974 98.321 99.9248 100.08 100.981 101.038C102.075 102.03 101.965 102.666 100.684 102.758C98.5766 102.91 95.9805 101.282 94.9261 99.1479C94.4419 98.1679 94.4205 97.9306 94.4814 94.1994C94.5402 90.5982 94.4925 90.0059 93.8936 86.899C92.9812 82.166 92.7739 80.3785 92.6321 76.0191C92.4952 71.805 92.6819 70.2504 93.5345 68.5075C94.0168 67.5212 94.076 67.0814 94.1625 63.8264C94.2702 59.788 94.4681 58.8287 96.0043 54.9026L96.9827 52.402L96.8335 49.786C96.6559 46.6775 96.8379 45.6775 98.0275 43.2196C99.7868 39.5839 101.695 38.2255 107.299 36.6174C108.977 36.1358 111.484 35.2142 112.869 34.5692C114.254 33.9241 115.726 33.267 116.14 33.1087C117.098 32.7423 118.257 31.7316 118.714 30.8629C119.106 30.1182 119.391 24.6864 119.115 23.2204C118.976 22.4828 118.923 22.4383 118.336 22.567C117.776 22.6896 117.639 22.6042 117.107 21.8019C116.012 20.1524 115.713 16.7994 116.646 16.6204C116.889 16.5736 117.1 16.7476 117.238 17.1079C117.355 17.416 117.577 17.6681 117.73 17.6681C117.945 17.6681 118.009 16.8338 118.009 14.0212C118.009 10.6913 118.054 10.2608 118.529 9.06792C119.54 6.52616 121.734 5.07349 125.311 4.57773C128.003 4.20433 129.929 4.67069 131.34 6.0378C133.202 7.84167 133.998 10.2077 134.209 14.5655C134.286 16.1523 134.415 17.4504 134.495 17.4504C134.575 17.4504 134.857 17.2016 135.123 16.8972C135.876 16.0332 136.103 16.4147 135.972 18.3244C135.859 19.9584 135.385 21.402 134.648 22.3493L134.309 22.7847L133.982 22.3493C133.759 22.0514 133.584 21.9842 133.429 22.1363C133.079 22.4793 132.762 25.1425 132.757 27.7781C132.752 30.9275 133.128 31.7834 134.906 32.6698C136.648 33.5377 144.647 36.6104 145.164 36.6104C145.91 36.6104 148.538 37.497 149.863 38.1955C151.578 39.0997 152.877 40.4666 153.806 42.345C154.994 44.7476 155.252 46.0559 155.252 49.6776C155.252 52.8039 155.264 52.886 156.016 54.7446C157.394 58.1496 157.873 60.4536 157.876 63.6868C157.878 66.2266 157.946 66.7435 158.474 68.2898C159.058 69.9985 159.07 70.1307 159.063 75.2571C159.058 80.1126 159.005 80.8139 158.317 85.1637C157.65 89.3848 157.581 90.2363 157.622 93.8271C157.648 96.1589 157.568 98.1733 157.43 98.6874C156.764 101.149 151.433 103.893 150.045 102.487C149.645 102.082 149.654 102.07 151.646 100.539C152.165 100.139 152.702 99.4009 153.12 98.511C153.758 97.1507 153.769 97.0753 153.5 95.8123C153.348 95.0979 153.146 94.4657 153.052 94.4075C152.741 94.2159 152.597 95.1639 152.751 96.3928C152.868 97.3281 152.815 97.796 152.515 98.459C152.302 98.9304 152.048 99.316 151.952 99.316C151.856 99.316 151.525 99.567 151.217 99.8738C150.801 100.288 150.476 100.414 149.951 100.364C149.274 100.299 149.247 100.26 149.298 99.4248C149.328 98.9458 149.385 97.7211 149.426 96.7032C149.467 95.6854 149.517 94.6921 149.537 94.4959C149.556 94.2997 149.92 93.6359 150.345 93.0206C151.446 91.4247 151.563 90.9942 151.558 88.5474C151.554 86.2319 151.316 84.7576 150.241 80.3846C149.446 77.1487 149.136 74.861 149.136 72.2383V70.2968L150.028 71.3073C150.519 71.8631 151.059 72.3178 151.229 72.3178C151.666 72.3178 151.65 72.2799 150.547 70.707C149.324 68.9637 148.091 66.3353 147.216 63.6087C146.223 60.5115 146.213 60.3427 146.818 56.7502C147.625 51.962 147.688 51.4159 147.43 51.4159C147.118 51.4159 146.852 52.3482 146.187 55.7705C145.365 59.9972 144.669 62.621 143.385 66.3303L142.255 69.5962V74.4791V79.3621L141.6 79.5394C139.969 79.98 134.413 80.5947 130.022 80.8198C124.677 81.0939 120.422 80.969 114.514 80.3639C110.957 79.9996 109.747 80.0358 110.475 80.4843C111.161 80.9065 117.725 81.4876 123.142 81.6054C130.595 81.7678 138.644 81.1281 141.669 80.1331C142.235 79.9469 142.455 79.9498 142.576 80.1446C142.775 80.4664 143.239 83.0509 144.2 89.1917C144.843 93.3045 145.148 95.8341 145.779 102.31C145.973 104.301 146.296 103.549 146.294 101.112C146.29 97.2846 145.02 87.6434 143.748 81.7889C142.88 77.7984 142.687 75.3226 142.965 71.7735C143.185 68.96 143.283 68.5156 144.235 66.0037C144.803 64.5068 145.39 62.8412 145.541 62.3023C145.695 61.748 145.861 61.4643 145.923 61.6491C145.983 61.8288 146.348 63.0045 146.734 64.2618C147.12 65.5192 147.711 67.1541 148.047 67.8951C148.635 69.1903 148.654 69.341 148.543 71.8142C148.398 75.045 148.636 76.9593 149.886 82.5849C150.658 86.0616 150.883 87.5101 150.883 89.0134C150.883 90.9439 150.878 90.9615 149.911 92.4288C148.823 94.0805 148.727 94.5175 148.645 98.2167C148.592 100.579 148.614 100.722 149.06 100.948C149.43 101.135 149.484 101.269 149.313 101.573C148.671 102.718 150.114 103.835 151.893 103.569C154.083 103.242 157.003 101.203 157.909 99.368C158.397 98.3804 158.417 98.1566 158.361 94.1421C158.31 90.4305 158.38 89.4161 158.97 85.3242C160.307 76.0422 160.339 71.2803 159.086 67.8178C158.612 66.5086 158.528 65.9059 158.527 63.8001C158.524 60.481 158.26 59.0139 157.062 55.6616L156.05 52.8311L156.019 49.6741C155.984 46.0291 155.687 44.6165 154.385 41.8934C153.335 39.6969 152.085 38.4263 149.939 37.3734C149.077 36.9503 147.486 36.3975 146.405 36.1447C144.545 35.7099 138.633 33.5575 135.639 32.225C133.5 31.2731 133.172 30.1938 133.55 25.3546C133.682 23.6646 133.718 23.5662 134.228 23.5039C135.456 23.3537 136.685 20.4734 136.685 17.7467C136.685 16.2464 136.364 15.7086 135.468 15.7086C134.971 15.7086 134.937 15.6331 134.937 14.5268C134.937 9.8169 133.29 6.04194 130.57 4.52068C129.48 3.91082 129.171 3.84486 127.184 3.79805C125.816 3.76582 124.519 3.86662 123.717 4.06737ZM23.7534 5.06805C25.9607 6.09419 27.4799 7.95075 28.493 10.86C29.0561 12.4773 29.0835 12.7569 29.1158 17.2327C29.1343 19.8073 29.0688 22.4416 28.9701 23.0867C28.7224 24.7058 27.6195 26.9529 26.5972 27.9225C24.5837 29.8315 21.206 30.1912 18.4384 28.791C16.682 27.9022 14.291 25.5053 13.528 23.8682C12.7361 22.1692 12.7193 22.1488 11.993 22.0007C11.0653 21.8117 10.7654 21.5276 10.1116 20.2201C8.9323 17.8611 9.76519 15.655 11.5765 16.3413C11.9893 16.4979 12.2049 16.4918 12.3111 16.3204C12.5081 16.0027 11.7927 15.4909 11.1516 15.4909C10.6743 15.4909 10.6472 15.4116 10.6472 14.0125C10.6472 10.5796 12.1282 7.64572 14.789 5.80788C16.4067 4.69028 17.6922 4.36979 20.2584 4.4436C22.1745 4.49868 22.7497 4.60146 23.7534 5.06805ZM47.1254 14.2113C48.0269 14.5668 49.649 15.3197 50.7302 15.8847C52.6743 16.9007 52.704 16.9285 53.412 18.4025C53.8056 19.2221 55.5454 22.2764 57.2781 25.1895C59.0109 28.1027 60.7193 31.1673 61.0745 31.9992C62.1496 34.5174 63.2903 39.7793 63.2903 42.2198C63.2903 44.6178 62.1625 45.5109 55.7595 48.1831C53.6612 49.0588 51.3097 49.6262 48.8405 49.8524C46.0256 50.1104 40.9578 49.8276 39.7538 49.3453L38.8255 48.9737V46.9634C38.8255 45.858 38.9329 44.1571 39.0644 43.1837C39.1957 42.2104 39.256 41.2885 39.1979 41.135C38.9382 40.447 38.367 42.7048 38.1538 45.2618C37.8598 48.7888 37.4817 50.4677 36.531 52.4673C35.4048 54.8364 34.9893 55.3124 33.3847 56.0703C32.0083 56.7202 31.8028 56.7535 28.7228 56.8247C26.9506 56.8656 25.5009 56.9799 25.5009 57.0788C25.5009 57.3638 27.5692 57.73 29.1791 57.73C30.8357 57.73 32.7208 57.302 34.0572 56.6224L34.955 56.1659L34.8196 56.6758C34.5651 57.6331 34.0345 60.2308 33.2256 64.4796L32.4172 68.7253L32.6975 74.0596C32.8517 76.9935 32.991 79.6874 33.0074 80.0464C33.036 80.6785 32.9893 80.7105 31.5079 81.0769C25.9229 82.4578 15.7676 82.4774 6.63566 81.125C5.37092 80.9378 4.16668 80.8146 3.95917 80.8514C3.61382 80.9123 3.58542 80.6402 3.62518 77.6521C3.64899 75.8558 3.58127 73.2098 3.47489 71.7719C3.28617 69.2219 3.25427 69.1043 2.1728 66.9819C1.56292 65.7853 0.849294 64.0223 0.586734 63.0643C0.323956 62.1063 0.0303783 61.2724 -0.0661707 61.211C-0.1625 61.1496 -0.104832 60.5139 0.0620527 59.798C0.318715 58.6978 0.959825 55.0827 1.39058 52.3071L1.50569 51.5653L2.1728 52.7295C3.42749 54.9191 5.70294 56.8243 8.05004 57.6499C9.41788 58.1311 10.1525 58.2343 12.8635 58.3268C19.6448 58.5578 21.784 57.3866 22.2062 53.2113C22.4967 50.3388 21.9679 45.591 21.3126 45.1872C21.1376 45.0796 21.1097 45.3404 21.2139 46.1033C21.2942 46.6901 21.4196 48.4439 21.4924 50.0007C21.7853 56.2641 20.7342 57.4688 14.7975 57.673C10.3762 57.825 8.01945 57.2332 5.55288 55.3509C3.86589 54.0637 2.82155 52.7059 2.00002 50.7318C1.34405 49.1557 0.899096 48.8419 0.962879 50.0007C1.02339 51.1004 0.157727 56.3951 -0.496707 58.9275C-1.43052 62.5407 -3.29967 67.2591 -4.41676 68.8228C-4.98644 69.6203 -5.01527 70.1288 -4.46219 69.6299C-4.24245 69.4318 -4.02139 69.2696 -3.97071 69.2694C-3.62012 69.2689 -4.37263 76.0315 -5.30055 81.2191C-5.89797 84.5584 -6.17233 86.7204 -6.17233 88.0865V90.0804L-5.08015 91.8044C-4.47945 92.7526 -3.98207 93.7284 -3.97486 93.9727C-3.91239 96.081 -4.05459 99.0247 -4.22869 99.2339C-4.34686 99.3759 -4.37744 99.7549 -4.29662 100.076C-4.16512 100.598 -4.20444 100.652 -4.66949 100.587C-5.34751 100.491 -6.00326 99.1668 -6.13061 97.636C-6.18325 97.0033 -6.32567 96.4855 -6.44712 96.4855C-6.79115 96.4855 -6.51068 99.3242 -6.08561 100.144C-5.88159 100.537 -5.47355 100.95 -5.17888 101.062C-4.48993 101.323 -4.44559 102.243 -5.10505 102.595C-5.60701 102.863 -7.14961 102.713 -8.11204 102.303C-9.46678 101.726 -11.0157 100.526 -11.5076 99.6724C-12.3399 98.2284 -12.5177 96.8402 -12.3696 92.9438C-12.247 89.7142 -12.2842 89.1559 -12.8016 86.4701C-14.7743 76.2323 -14.9495 71.5152 -13.5579 66.1125C-13.2682 64.9877 -13.0485 63.1754 -12.9375 60.9959C-12.7737 57.7781 -12.7173 57.4744 -11.7256 54.4641L-10.6856 51.3071L-10.5515 47.2791C-10.4187 43.2871 -10.4113 43.2389 -9.71645 41.8997C-9.33069 41.1566 -8.723 40.2167 -8.36608 39.8112C-7.44144 38.7616 -5.44952 37.7766 -3.19832 37.256C-2.11029 37.0043 -0.297712 36.3455 0.92684 35.757C2.12824 35.1793 4.42334 34.2287 6.02688 33.6446C10.832 31.8942 11.5409 30.9245 11.6964 25.8874C11.7473 24.2409 11.8705 22.8936 11.9699 22.8936C12.0693 22.8936 12.4729 23.5061 12.8668 24.2544C13.8779 26.1758 16.3368 28.5961 18.1254 29.4304C20.4745 30.526 22.6754 30.7189 24.4364 29.9833C24.7169 29.8661 24.8242 30.01 24.9443 30.6643C25.1929 32.0181 26.021 33.2176 27.0162 33.6648C27.7757 34.0062 28.2403 34.0434 30.2355 33.9217C31.5179 33.8436 33.1999 33.6696 33.9731 33.5355C34.7464 33.4011 36.1588 33.3365 37.1116 33.3914C38.6219 33.4784 39.0815 33.6128 40.6927 34.4386C42.5334 35.3818 42.5459 35.3846 43.6356 35.1062C45.434 34.6468 48.6271 35.1663 50.8733 36.2836C51.4325 36.5617 52.4454 37.2401 53.1241 37.7912C54.9266 39.2547 55.413 39.5415 55.6656 39.2898C55.8084 39.1474 55.4692 38.7226 54.6658 38.0383C53.9967 37.4687 53.2949 36.7047 53.1059 36.3405C52.917 35.9764 52.4279 33.6591 52.0192 31.1912C51.1538 25.9653 50.3139 22.5093 49.777 21.9631C49.3056 21.4838 47.126 21.1699 47.126 21.5811C47.126 21.9454 45.7923 21.6955 44.6577 21.1185C43.7475 20.6556 43.3951 20.715 43.8451 21.2554C44.0775 21.5346 44.0494 21.5872 43.6671 21.5872C43.1686 21.5872 42.1018 20.0159 42.1022 19.2819C42.1022 19.0529 42.3971 18.2445 42.7575 17.4853C43.4895 15.9431 43.5627 15.3365 43.092 14.716C42.7925 14.3212 42.7704 14.3511 42.7606 15.1643C42.7547 15.6433 42.4091 16.868 41.9928 17.8859C41.5765 18.9038 41.2339 19.8685 41.232 20.0296C41.23 20.1907 41.4319 20.6075 41.6806 20.9558C42.1979 21.68 42.5996 22.8936 42.322 22.8936C41.9845 22.8936 40.6064 20.469 40.4629 19.6227C40.3571 18.9987 40.4559 18.479 40.8619 17.5231C42.0131 14.8126 42.443 13.8468 42.6249 13.5609C42.9107 13.1118 45.1621 13.4373 47.1254 14.2113ZM43.768 17.9686C43.3093 18.6327 42.9758 19.3011 43.0269 19.4542C43.0782 19.6072 43.4908 19.1757 43.9441 18.4953C44.3973 17.8149 44.7309 17.1465 44.685 17.0097C44.6394 16.8732 44.2267 17.3048 43.768 17.9686ZM45.623 18.8236C45.3512 19.2619 45.1673 19.8428 45.2141 20.1141C45.2848 20.523 45.3823 20.4248 45.7826 19.5393C46.3853 18.207 46.2848 17.7563 45.623 18.8236ZM47.7145 20.42C47.4253 20.7085 47.8359 20.9341 48.6501 20.9341C49.6057 20.9341 50.1841 20.7612 50.1841 20.4753C50.1841 20.2556 47.9301 20.2051 47.7145 20.42ZM45.0631 22.845C44.8809 23.0269 44.505 22.643 44.5118 22.282C44.5179 21.9587 44.5574 21.965 44.837 22.3334C45.0122 22.5642 45.114 22.7943 45.0631 22.845ZM23.8991 33.0543C23.6704 33.2823 23.7289 34.2154 23.9718 34.2154C24.092 34.2154 24.1903 33.9215 24.1903 33.5623C24.1903 32.8858 24.1457 32.8083 23.8991 33.0543ZM15.8897 34.3644C15.8897 34.9971 16.7899 36.6176 17.3414 36.9778C18.0804 37.4605 18.1896 37.2168 17.5668 36.4746C17.2779 36.1301 16.8296 35.4319 16.5703 34.923C16.0636 33.9276 15.8897 33.785 15.8897 34.3644ZM7.69835 36.8266C9.43535 37.9695 15.4041 39.9974 15.8176 39.5853C16.0664 39.3373 15.7565 39.1936 13.7733 38.6373C12.7147 38.3401 10.9443 37.7137 9.83924 37.2449C7.62212 36.3046 6.6018 36.1053 7.69835 36.8266ZM27.9454 37.1637C25.2191 38.0892 22.9686 39.3843 23.3775 39.7921C23.4454 39.8596 24.1719 39.5942 24.9924 39.2023C25.8126 38.8101 27.2634 38.1846 28.2165 37.8121C29.1695 37.4393 29.9886 37.0167 30.0367 36.8726C30.1632 36.4944 29.7447 36.5527 27.9454 37.1637ZM125.909 42.852C125.828 42.9317 125.763 50.0784 125.763 58.7333C125.763 73.7717 125.815 75.1689 126.356 74.63C126.533 74.4528 126.723 43.9503 126.551 43.2659C126.411 42.7129 126.191 42.5705 125.909 42.852ZM49.9578 43.6679C49.3515 44.2516 47.2654 44.7134 44.8519 44.7981C43.5411 44.844 42.4235 44.9263 42.3687 44.9812C41.8311 45.5168 47.8661 45.3529 49.1931 44.7955C50.1038 44.4131 50.8394 43.8538 50.8394 43.544C50.8394 43.2546 50.31 43.3289 49.9578 43.6679ZM119.756 48.4331C119.756 51.2973 119.753 51.3153 118.823 53.702C118.31 55.0193 117.592 56.5136 117.226 57.0224C116.783 57.6386 116.663 57.9477 116.865 57.9477C117.626 57.9477 118.809 55.8992 119.87 52.7419C120.374 51.242 120.52 50.4183 120.52 49.0758C120.52 47.5223 120.26 46.1323 119.89 45.7115C119.816 45.6274 119.756 46.8521 119.756 48.4331ZM131.415 46.3537C130.967 47.4962 130.918 50.3521 131.323 51.7408C132.086 54.3574 133.915 57.3087 134.938 57.5754C135.178 57.6381 135.374 57.6586 135.374 57.6214C135.374 57.5841 135.022 57.1332 134.591 56.6194C133.662 55.5114 132.742 53.7513 132.085 51.8294C131.669 50.611 131.626 50.1427 131.739 48.0956C131.811 46.8082 131.82 45.755 131.759 45.755C131.699 45.755 131.544 46.0243 131.415 46.3537ZM9.99193 54.886L9.00897 55.025L9.80102 55.2638C10.5273 55.4828 11.3491 55.4596 12.1702 55.1968C12.4533 55.1062 12.4533 55.0696 12.1702 54.8913C11.8233 54.6725 11.5085 54.6718 9.99193 54.886ZM30.5249 54.8763C30.5249 55.3866 31.9908 55.4844 32.6129 55.0154C33.0017 54.7221 32.9329 54.6951 31.7809 54.6888C31.09 54.6849 30.5249 54.7694 30.5249 54.8763ZM21.9552 62.2078C21.822 62.4227 21.72 65.8397 21.7623 68.6708C21.7824 70.0144 21.8543 70.3582 22.1151 70.3582C22.3943 70.3582 22.4406 69.8026 22.4275 66.6024C22.4131 63.1155 22.2623 61.7125 21.9552 62.2078ZM28.0815 64.9298C27.6946 65.2179 26.9142 65.4326 25.7879 65.5612C23.8224 65.7855 23.1499 65.9841 23.5404 66.2247C23.8624 66.4232 26.4618 66.2576 27.3761 65.9802C28.1256 65.7531 29.4994 64.475 28.9821 64.4865C28.8095 64.4902 28.4043 64.6899 28.0815 64.9298ZM13.3548 65.9669C13.668 66.472 15.8047 66.8935 17.7248 66.8288C20.4332 66.7378 20.0813 66.3551 17.1481 66.2016C15.7953 66.1306 14.3537 65.9928 13.9445 65.8952C13.4052 65.7668 13.2429 65.7864 13.3548 65.9669ZM-5.93664 70.2674C-5.92615 70.5211 -5.87438 70.5727 -5.8047 70.3991C-5.74157 70.2419 -5.74943 70.054 -5.82195 69.9818C-5.89447 69.9095 -5.94603 70.0379 -5.93664 70.2674ZM21.7525 71.5231C21.5832 72.3232 21.7569 72.9709 22.1407 72.9709C22.483 72.9709 22.5439 72.5096 22.2429 72.198C22.1328 72.0844 22.007 71.7462 21.9633 71.4469C21.8844 70.9088 21.882 70.9097 21.7525 71.5231ZM12.3947 72.3271C14.123 73.6912 18.9059 74.9152 20.3497 74.3629C21.0872 74.0807 20.6215 73.9013 18.8233 73.7748C17.4635 73.6792 16.2534 73.4042 14.4 72.7698C12.455 72.1037 11.9784 71.9986 12.3947 72.3271ZM27.2237 73.0158C26.5035 73.3881 25.4871 73.7019 24.7599 73.7767C23.3235 73.9246 22.9937 74.1974 24.0203 74.3888C25.3661 74.6396 28.3331 73.6537 28.6413 72.8536C28.9074 72.1623 28.8668 72.1669 27.2237 73.0158ZM21.9332 77.0353C21.7018 77.2656 21.7643 78.6319 22.0059 78.6319C22.126 78.6319 22.2243 78.24 22.2243 77.761C22.2243 76.8711 22.1881 76.781 21.9332 77.0353ZM20.7597 98.0549C20.6372 98.2095 20.4771 98.9241 20.4039 99.6426C20.3307 100.361 20.2056 101.414 20.1256 101.983C20.0035 102.854 20.0369 103.017 20.3379 103.017C20.5345 103.017 20.7036 102.993 20.7139 102.963C20.7241 102.933 20.8574 101.831 21.0098 100.513C21.2807 98.1751 21.2106 97.4858 20.7597 98.0549ZM125.98 98.7172C125.979 99.1065 125.916 100.086 125.839 100.895L125.7 102.364H126.275H126.849L126.729 100.677C126.663 99.7486 126.564 98.7688 126.509 98.4995C126.359 97.7581 125.982 97.9132 125.98 98.7172ZM-9.88246 99.697C-9.87853 100.132 -9.52357 100.77 -9.37088 100.616C-9.31474 100.56 -9.32086 100.244 -9.38443 99.9147C-9.51134 99.2557 -9.8877 99.0911 -9.88246 99.697ZM-7.68609 100.555C-7.69439 100.937 -7.60308 101.31 -7.48294 101.384C-7.22104 101.546 -7.22104 100.903 -7.48294 100.296C-7.64109 99.9287 -7.67298 99.9694 -7.68609 100.555Z" fill="#072723"/>
</g>
<rect x="0.566667" y="0.566667" width="66.8667" height="66.8667" rx="10.7667" stroke="#072723" stroke-width="1.13333"/>
<defs>
<clipPath id="clip0_344_3970">
<rect width="68" height="68" rx="11.3333" fill="white"/>
</clipPath>
</defs>
</svg>
