<svg width="68" height="68" viewBox="0 0 68 68" fill="none" xmlns="http://www.w3.org/2000/svg">
<g clip-path="url(#clip0_344_3988)">
<path fill-rule="evenodd" clip-rule="evenodd" d="M15.9298 -54.6799C15.8413 -51.2497 15.8324 -51.1894 15.2132 -49.7857C13.5776 -46.0788 11.2933 -38.0949 10.4916 -33.2828C9.61583 -28.0257 9.44851 -25.4665 9.43961 -17.1944C9.4324 -10.6202 9.4866 -8.94234 9.76969 -6.96223C10.726 -0.273235 11.436 3.02531 13.1126 8.56812C14.3137 12.5397 14.276 13.0595 12.1985 21.1613C10.2633 28.7079 10.38 32.1201 13.0224 45.2408C14.6959 53.5497 14.9112 55.0138 14.9176 58.1257L14.9229 60.7785L14.1339 62.8628C13.6998 64.0092 13.2915 65.268 13.2265 65.6598C13.1382 66.1917 12.726 66.8064 11.6028 68.082C9.88357 70.0344 9.52583 70.6319 9.52583 71.5511C9.52583 72.2364 9.59537 72.3136 11.6102 73.8618C14.5947 76.1555 15.8362 76.6004 19.2505 76.6004C22.0604 76.6004 23.2991 76.0911 24.0635 74.6209C24.3786 74.0151 24.3416 72.5648 23.9196 68.9752C23.736 67.4127 23.7514 66.8393 24.0195 65.2426C24.2899 63.6319 24.302 63.144 24.1023 61.9059C23.8194 60.1517 23.9666 55.2198 24.4023 51.8706C24.806 48.765 25.6866 44.4445 26.5645 41.2616C26.9669 39.8026 27.4317 38.0026 27.5973 37.2616C28.428 33.5435 28.4811 26.6999 27.7141 22.2277L27.2767 19.6789L27.6754 17.68C27.8946 16.5807 28.1254 14.7006 28.1885 13.5021C28.3602 10.2379 28.5857 8.93363 29.8922 3.64891C31.3959 -2.43355 32.9338 -9.96631 33.4077 -13.5695C33.6726 -15.5853 33.7732 -17.5046 33.776 -20.603C33.7793 -24.1922 33.8312 -24.9886 34.1052 -25.6511L34.4303 -26.4374L34.7098 -25.7477C34.9211 -25.2266 35.0037 -23.9929 35.0479 -20.6999C35.0879 -17.7259 35.2285 -15.4089 35.4905 -13.4047C36.015 -9.39274 37.5072 -2.1298 39.208 4.69107C40.4819 9.80052 40.642 10.6494 40.79 13.0809C40.8806 14.5689 41.1455 16.6811 41.3789 17.7746L41.8032 19.763L41.3823 22.0297C40.7677 25.3398 40.5365 29.4819 40.7821 32.7882C41.0111 35.8749 41.3126 37.5178 42.138 40.177C44.4315 47.5673 45.6041 56.5003 44.9628 61.6986C44.7499 63.4241 44.7608 63.8599 45.0589 65.5152C45.381 67.3038 45.381 67.5145 45.0604 70.4289C44.6633 74.0407 44.7682 74.7431 45.8369 75.624C46.863 76.4699 47.8197 76.6581 50.5894 76.5591C52.3988 76.4945 53.2865 76.3731 54.0947 76.0798C55.3339 75.6299 59.2826 73.1206 59.5564 72.6088C60.0621 71.664 59.3337 70.0316 57.5442 68.0987C56.871 67.3714 56.1576 66.4075 55.9588 65.9565C55.5833 65.1046 54.568 60.4473 54.3457 58.5568C54.1464 56.863 54.5597 53.4223 55.5696 48.3673C57.501 38.6981 58.0043 35.3523 58.1627 31.1242C58.301 27.4334 58.0005 25.2492 56.7283 20.7006C55.4656 16.1858 55.364 15.6526 55.2445 12.9247L55.1402 10.5473L56.3107 6.77124C57.9897 1.35444 59.1541 -4.93758 59.5729 -10.8559C59.8038 -14.1204 59.6996 -21.7288 59.3627 -26.1949C58.7636 -34.1375 57.1283 -41.4103 54.3355 -48.5541C53.163 -51.5534 53.1095 -51.8411 53.1084 -55.1498C53.1073 -58.1568 52.9634 -58.6762 52.5365 -57.2162C52.2368 -56.1913 52.0894 -52.2947 52.3141 -51.3325L52.5058 -50.5109L52.0109 -50.635C50.2945 -51.0659 47.5696 -51.5007 45.5279 -51.6696C37.3465 -52.3464 31.5629 -52.3773 24.7793 -51.7808C21.6163 -51.5026 17.6015 -50.9116 16.8094 -50.6077C16.5335 -50.502 16.4973 -50.5454 16.6139 -50.8423C17.1005 -52.0828 16.8477 -57.3247 16.2738 -57.8989C16.061 -58.1117 16.0049 -57.5857 15.9298 -54.6799ZM-46.5616 -52.7855C-47.5854 -52.4963 -48.1859 -51.7971 -48.5413 -50.4806C-48.7149 -49.8378 -49.0412 -48.8857 -49.2667 -48.3646C-49.8537 -47.0085 -49.8584 -44.0157 -49.276 -42.7437C-49.0533 -42.2575 -48.7122 -41.7747 -48.518 -41.6709C-48.3238 -41.567 -48.061 -41.0931 -47.934 -40.6179C-47.8069 -40.1427 -47.4527 -39.4744 -47.1471 -39.1327C-46.6421 -38.5681 -46.4983 -38.5135 -45.5713 -38.5347C-44.6313 -38.5563 -44.3234 -38.6675 -42.8892 -39.5033C-42.6546 -39.6402 -41.7964 -39.7387 -40.8249 -39.7402C-39.0476 -39.7432 -37.5713 -40.1305 -36.5411 -40.8642C-36.2362 -41.0814 -35.9302 -41.2589 -35.8608 -41.2589C-35.6424 -41.2589 -34.052 -37.6796 -33.3858 -35.6877C-32.1511 -31.9967 -31.89 -28.4784 -32.453 -23.1182C-32.6134 -21.5883 -32.7709 -20.3108 -32.8026 -20.279C-32.8342 -20.2474 -33.7473 -20.6417 -34.8317 -21.1552C-38.1574 -22.7302 -41.1272 -23.3528 -42.7719 -22.82C-43.2409 -22.668 -43.9401 -22.4065 -44.3257 -22.239L-45.0268 -21.9343L-46.1258 -22.9011C-49.732 -26.0738 -52.8618 -27.2774 -57.457 -27.2585C-60.5761 -27.2458 -61.7636 -26.9288 -67.0259 -24.7039C-68.7555 -23.9724 -69.3956 -23.891 -70.6888 -24.2368C-71.1434 -24.3584 -71.6774 -24.3937 -71.876 -24.3156C-72.1613 -24.203 -71.9844 -24.0776 -71.0293 -23.7155C-69.2541 -23.0426 -68.7099 -23.1093 -65.3797 -24.4086C-63.7575 -25.0417 -61.788 -25.7238 -61.003 -25.9245C-59.2269 -26.3787 -55.888 -26.4138 -53.8014 -26.0001C-50.9252 -25.43 -47.5767 -23.3487 -44.6984 -20.3425C-44.0384 -19.6533 -43.4628 -19.0892 -43.4194 -19.0892C-43.1837 -19.0892 -43.4074 -19.6933 -43.8895 -20.3588L-44.4386 -21.1169L-43.5579 -21.5457C-42.2196 -22.1973 -40.9108 -22.2315 -38.7402 -21.671C-36.1824 -21.0108 -33.6329 -19.7513 -30.9973 -17.8462C-28.7544 -16.2248 -27.6861 -15.6421 -26.4999 -15.3931C-25.6376 -15.2122 -25.8481 -15.5013 -27.0921 -16.2058C-28.2519 -16.8628 -31.7829 -19.4385 -31.7795 -19.6251C-31.7782 -19.6952 -31.652 -21.0314 -31.4991 -22.5947C-31.1362 -26.305 -31.1387 -29.9795 -31.5057 -32.0915C-31.8928 -34.3192 -33.0303 -37.6758 -34.211 -40.0737L-35.1668 -42.0152L-34.6898 -42.8686C-34.0965 -43.9301 -34.3186 -43.9587 -35.2962 -42.9468C-36.2085 -42.0023 -37.3363 -41.2104 -38.2243 -40.8909C-38.589 -40.7596 -39.8254 -40.5891 -40.9718 -40.512C-42.6961 -40.3958 -43.2195 -40.2846 -44.002 -39.8677C-45.8133 -38.9032 -46.9201 -39.3175 -47.0812 -41.0202C-47.1859 -42.1292 -46.8697 -42.4686 -45.0122 -43.2411C-44.3164 -43.5305 -43.531 -43.9928 -43.2668 -44.2685C-42.5026 -45.066 -41.8571 -47.3224 -42.3929 -47.3224C-42.4972 -47.3224 -42.5824 -47.1682 -42.5824 -46.9797C-42.5824 -46.7911 -42.7052 -46.4715 -42.8551 -46.2691C-43.0878 -45.9551 -43.185 -45.9362 -43.5183 -46.1397C-44.0284 -46.4512 -44.0267 -46.1001 -43.5164 -45.7425C-43.131 -45.4727 -43.1387 -45.4534 -43.9334 -44.6897C-44.3787 -44.2619 -44.7981 -43.9117 -44.8653 -43.9117C-44.9324 -43.9117 -44.8329 -44.3595 -44.6438 -44.9065C-44.2789 -45.9629 -44.1894 -47.2529 -44.4523 -47.6675C-44.5536 -47.8274 -44.6493 -47.5453 -44.7173 -46.8862C-44.8475 -45.6262 -45.408 -44.4783 -46.1836 -43.8839C-46.5034 -43.6387 -47.0501 -43.2038 -47.3984 -42.9173C-48.1114 -42.3312 -48.2704 -42.4121 -48.6052 -43.5327C-49.1122 -45.2292 -48.976 -46.6634 -48.1099 -48.7436C-47.8929 -49.2646 -47.6051 -50.0747 -47.4702 -50.5437C-47.2769 -51.215 -47.0838 -51.4668 -46.5616 -51.7276C-45.7354 -52.1404 -43.6676 -52.1668 -41.5403 -51.7918C-39.181 -51.3759 -32.8384 -49.3456 -32.0715 -48.7606C-30.9312 -47.8909 -26.6507 -41.4067 -23.8828 -36.3558C-19.7465 -28.8081 -17.6184 -22.982 -15.9843 -14.7311C-15.3052 -11.3022 -15.1839 -9.72055 -15.5564 -9.1521C-16.4425 -7.79975 -19.9216 -5.40069 -23.5392 -3.64758C-27.2143 -1.86642 -29.8172 -1.13292 -34.0145 -0.695591C-36.8905 -0.396015 -43.5653 -0.565987 -45.2352 -0.981148C-47.7832 -1.61497 -51.8619 -3.02683 -52.724 -3.57349C-53.2735 -3.92196 -53.8105 -4.11844 -54.1165 -4.08301C-54.6111 -4.0256 -54.6154 -4.01063 -54.7252 -2.03563C-54.8648 0.479397 -55.5504 2.58628 -57.3455 6.01746C-58.8703 8.93154 -59.4272 10.5653 -60.9579 16.6148C-62.6862 23.4444 -62.7729 25.0224 -61.7971 31.8721C-61.3304 35.1484 -61.0884 36.0456 -60.6308 36.1946C-60.2886 36.3062 -60.3299 35.0724 -60.7621 32.2611C-61.7914 25.5671 -61.6986 23.6818 -60.0057 16.9128C-58.5238 10.9865 -57.8805 8.98498 -56.9372 7.36431C-55.1157 4.2346 -53.9638 1.02739 -53.8143 -1.33189C-53.7561 -2.24767 -53.6567 -2.9679 -53.5932 -2.93265C-51.9623 -2.02616 -48.0309 -0.621315 -45.4563 -0.0253868C-43.7278 0.374805 -36.7131 0.541359 -33.7559 0.252583C-28.3258 -0.277596 -23.7098 -1.93369 -19.0863 -5.01072C-14.7183 -7.91761 -14.2141 -8.57853 -14.4358 -11.1085C-14.7542 -14.7402 -16.897 -23.155 -18.6272 -27.5672C-20.5078 -32.3628 -23.0869 -37.2127 -27.1463 -43.5867C-30.7432 -49.2345 -31.2562 -49.7838 -33.6009 -50.4961C-34.3199 -50.7146 -36.0594 -51.2429 -37.4663 -51.6698C-41.6621 -52.9433 -44.6883 -53.3145 -46.5616 -52.7855ZM29.4217 -51.1839C28.7443 -51.1432 26.3142 -50.9389 24.0214 -50.7295C19.2629 -50.2954 16.3763 -49.7725 16.0159 -49.2794C15.3381 -48.3527 12.1233 -37.2989 11.5327 -33.8654C10.3154 -26.7867 9.90234 -14.3747 10.6625 -7.71997C11.3655 -1.56703 12.3323 3.01755 13.9336 7.7918C14.7224 10.1437 14.7365 10.2316 14.7306 12.7442C14.7253 15.0127 14.6557 15.5595 14.1168 17.576C11.8015 26.2396 11.6896 26.9079 11.877 30.9347C12.0545 34.7511 12.6218 38.9328 13.5078 42.9582C15.2791 51.0036 15.8662 55.0779 15.7261 58.3523C15.6371 60.4333 15.5257 61.0853 14.9426 62.9346C14.1432 65.4703 14.1184 66.031 14.7289 67.7608C15.149 68.9513 15.1567 69.0313 14.8221 68.7285C14.6214 68.5468 14.3539 68.1121 14.2273 67.7623C14.1007 67.4125 13.944 67.1262 13.8789 67.1262C13.6331 67.1262 10.8939 70.0896 10.5858 70.6885C10.1578 71.5209 10.3247 71.9327 11.386 72.6613C11.8741 72.9963 12.7702 73.6703 13.3773 74.1588C14.6148 75.1543 15.191 75.3406 18.0526 75.6705C21.1511 76.0275 22.6389 75.6218 23.2979 74.2395C23.5913 73.6246 23.5892 73.3809 23.2688 70.5316C23.0277 68.3891 22.9688 67.0483 23.0706 66.0249C23.1503 65.2238 23.2326 62.0954 23.2532 59.0731C23.3074 51.1584 23.7481 48.2757 26.399 38.4925C26.9538 36.4456 27.3374 32.5792 27.3378 29.0323C27.3379 26.3374 27.2441 25.1546 26.8316 22.655L26.3253 19.5859L26.7467 17.7274C27.0103 16.5651 27.233 14.6983 27.3412 12.7434C27.5204 9.50473 27.5812 9.16878 29.2104 2.41726C32.0034 -9.15684 32.8324 -14.347 32.8324 -20.2606V-23.8029L31.6481 -23.0942C30.0932 -22.1638 28.4504 -21.4491 26.9459 -21.0483C25.275 -20.6032 22.1427 -20.6076 20.5159 -21.0574C19.0105 -21.4735 15.7386 -22.7126 15.8504 -22.8242C15.895 -22.8687 17.0268 -22.6222 18.3658 -22.2764C20.5203 -21.7198 21.0834 -21.648 23.2635 -21.6507C25.3048 -21.6531 25.9691 -21.7293 27.1413 -22.0946C28.6797 -22.5742 30.2983 -23.3405 31.8041 -24.3018C33.0388 -25.0902 33.5121 -26.1358 33.7903 -28.6898C34.2386 -32.8056 34.5268 -32.947 34.9876 -29.2767C35.1741 -27.7902 35.4795 -26.225 35.6664 -25.7985C36.0826 -24.8477 36.6219 -24.4537 39.1766 -23.2333C43.0242 -21.3955 46.1647 -21.151 51.1027 -22.3052C52.4492 -22.6199 53.5838 -22.8444 53.6242 -22.8041C53.7273 -22.7012 50.7563 -21.58 49.5285 -21.2585C48.967 -21.1116 47.8091 -20.8982 46.9555 -20.7847C43.8004 -20.3648 40.0207 -21.3269 36.775 -23.3758C36.3824 -23.6236 36.0169 -23.8263 35.9627 -23.8263C35.8111 -23.8263 35.8547 -20.6354 36.0495 -17.4724C36.3633 -12.3777 37.6082 -5.67638 40.1389 4.54138C41.501 10.0402 41.5929 10.5444 41.7371 13.3126C41.8398 15.2851 42.0292 16.7976 42.3139 17.9186L42.7375 19.5874L42.2017 22.6557C41.7285 25.3633 41.6662 26.1805 41.6704 29.6083C41.6762 34.3734 41.857 35.6917 43.1656 40.5037C44.4268 45.1411 44.798 46.9315 45.4504 51.5209C45.9554 55.0731 46.0298 56.758 45.9518 62.8628C45.9345 64.2176 45.9353 66.392 45.9535 67.6947C45.9716 68.9974 45.9139 71.004 45.8254 72.1538L45.6641 74.2442L46.2671 74.8472C47.2977 75.8778 48.6519 76.0564 51.6937 75.5632C53.9717 75.1937 54.7107 74.9116 56.4625 73.7432C58.3929 72.4555 58.7918 72.0786 58.7918 71.5424C58.7918 70.9932 58.0901 69.872 57.2735 69.1158C56.9356 68.8032 56.3389 68.147 55.9473 67.6577L55.235 66.7683L54.9191 67.5956C54.7454 68.0505 54.4638 68.536 54.2934 68.6745C54.031 68.8879 53.9999 68.8828 54.0901 68.6415C54.1485 68.4848 54.3469 67.7377 54.5307 66.9811L54.8651 65.6052L54.1919 62.7182C53.3235 58.9947 53.1927 57.2241 53.58 54.4308C53.9332 51.883 54.7789 47.2552 55.6784 42.9491C56.7675 37.7345 57.1592 34.3528 57.1687 30.082C57.178 25.8809 57.1321 25.574 55.8237 21.0913C54.7158 17.2948 54.4422 15.8165 54.3139 12.9336L54.2085 10.5651L55.3676 6.7754C56.8712 1.86036 57.9156 -3.38988 58.528 -9.10985C58.7751 -11.4174 58.8123 -13.0847 58.7169 -17.5734C58.4915 -28.1845 57.9022 -33.1761 56.0325 -40.3115C55.4991 -42.3473 53.8252 -47.5108 53.3058 -48.7221L52.9625 -49.5235L50.9979 -49.9339C48.6053 -50.434 46.6669 -50.6761 43.0646 -50.9251C40.0283 -51.1352 31.3529 -51.2997 29.4217 -51.1839ZM-49.5104 -8.54802C-51.6529 -6.96886 -52.3513 -6.62248 -55.3279 -5.66198C-56.6581 -5.2328 -58.163 -4.6706 -58.6723 -4.41253C-59.5455 -3.96989 -61.3634 -2.54875 -61.4977 -2.20351C-61.5314 -2.11654 -60.6788 -2.46576 -59.6029 -2.97964C-58.5268 -3.49333 -56.4953 -4.28784 -55.0884 -4.74487C-51.9242 -5.77302 -50.8885 -6.29335 -49.5232 -7.5411C-48.4451 -8.52661 -47.5892 -9.56878 -47.737 -9.71657C-47.7809 -9.76053 -48.5788 -9.23471 -49.5104 -8.54802ZM17.2545 12.6968C16.9099 13.512 16.9684 15.9157 17.3604 17.0527C17.8112 18.3605 18.0865 18.5092 17.9082 17.349C17.8313 16.8486 17.7684 15.4799 17.7684 14.3074C17.7684 13.1351 17.7023 12.1757 17.6215 12.1757C17.5408 12.1757 17.3756 12.4101 17.2545 12.6968ZM50.9649 14.6771C50.9017 15.8545 50.7556 17.1429 50.6402 17.54C50.3107 18.6741 50.5557 18.8094 51.0489 17.7655C51.4284 16.9627 51.4966 16.5232 51.4966 14.8851C51.4966 13.7331 51.4125 12.8683 51.2884 12.7442C51.137 12.593 51.0487 13.1214 50.9649 14.6771ZM-43.293 45.4774C-45.6119 45.5076 -47.509 45.5714 -47.509 45.6194C-47.509 45.6673 -47.7597 46.5823 -48.0663 47.6527C-48.9048 50.5816 -49.8618 55.296 -50.7115 60.6838C-51.9462 68.5136 -52.1307 70.6514 -52.1334 77.1689C-52.1362 83.74 -51.931 85.6192 -50.5599 91.5699C-49.361 96.7739 -49.2144 97.8779 -49.2144 101.697C-49.2144 104.556 -49.2794 105.384 -49.5952 106.552C-50.637 110.404 -50.9036 111.512 -51.1886 113.171C-51.6466 115.837 -51.7612 118.672 -51.5024 120.94C-51.3777 122.034 -50.7727 125.445 -50.158 128.519C-48.9205 134.709 -48.5866 136.994 -48.2548 141.548C-47.9543 145.669 -48.0623 147.476 -48.6823 148.699C-48.9464 149.22 -49.2676 150.093 -49.3963 150.639C-49.6879 151.878 -50.0875 152.39 -51.5164 153.361C-53.5028 154.71 -53.4727 155.402 -51.3336 157.554C-50.5328 158.359 -49.4939 159.427 -49.0249 159.927C-47.9183 161.107 -47.2297 161.301 -44.1711 161.296C-41.3934 161.291 -40.5803 161.05 -39.6625 159.959C-39.0679 159.253 -39.0692 159.322 -39.5541 154.908C-39.7485 153.138 -39.7324 152.835 -39.3686 151.431C-39.032 150.133 -39.0004 149.729 -39.1656 148.835C-39.4934 147.062 -39.3906 145.205 -38.6934 140.312C-37.8281 134.238 -37.1183 130.761 -36.0596 127.407C-34.311 121.868 -34.201 118.038 -35.5808 110.726C-36.2425 107.219 -36.2624 106.575 -35.7543 105.1C-35.0188 102.965 -34.7967 101.765 -34.5371 98.5234C-34.2811 95.3249 -34.2587 95.2205 -33.3307 92.8802C-32.2735 90.2144 -31.7492 88.5518 -31.3045 86.4536C-30.932 84.6958 -30.0893 78.8604 -30.0596 77.8321C-30.0382 77.0867 -30.0351 77.0836 -29.8767 77.6426C-29.7882 77.9553 -29.5404 79.3195 -29.3257 80.6744C-28.6976 84.6409 -27.6239 88.4986 -25.6601 93.8458C-25.1078 95.3494 -24.9767 96.0088 -24.8686 97.825C-24.6839 100.932 -24.4717 102.172 -23.6938 104.687L-23.0066 106.908L-23.741 110.845C-24.4319 114.547 -24.4758 115.001 -24.4812 118.477C-24.4872 122.589 -24.369 123.33 -23.0524 127.435C-21.4627 132.391 -19.6152 144.015 -19.9288 147.089C-19.9979 147.766 -20.1014 148.792 -20.1586 149.368C-20.2272 150.058 -20.1588 150.765 -19.9587 151.439C-19.5818 152.709 -19.5741 154.13 -19.9309 156.517C-20.2549 158.682 -20.1205 159.57 -19.3463 160.378C-18.5668 161.192 -17.8045 161.338 -14.7134 161.268C-12.0546 161.208 -11.9212 161.185 -11.1498 160.674C-10.709 160.382 -10.0762 159.757 -9.74342 159.284C-9.41069 158.812 -8.73006 158.132 -8.23096 157.774C-7.25739 157.074 -6.20139 155.605 -6.20139 154.951C-6.20139 154.466 -6.90741 153.776 -8.21959 152.978C-9.35688 152.287 -9.70173 151.824 -10.0168 150.564C-10.1432 150.06 -10.4584 149.178 -10.7174 148.605C-11.0965 147.765 -11.1839 147.281 -11.1668 146.115C-11.1155 142.618 -9.85844 132.852 -8.86535 128.235C-7.63503 122.514 -7.46563 121.087 -7.58425 117.434C-7.70002 113.871 -8.13754 111.376 -9.26459 107.851L-9.89634 105.876L-9.83949 101.707C-9.77867 97.2465 -9.65929 96.422 -8.24896 90.7171C-7.20149 86.4802 -6.92673 84.0345 -6.82195 78.0129C-6.68913 70.3764 -6.91385 67.9384 -8.68174 57.8415C-9.58009 52.711 -10.4887 48.9662 -11.3188 46.9725L-11.8994 45.5775L-13.0573 45.4566C-14.1448 45.3429 -33.9984 45.3565 -43.293 45.4774ZM-46.0077 46.4209L-46.8752 46.4904L-47.3728 48.2342C-48.2147 51.1838 -50.0098 61.3693 -50.7194 67.221C-51.3383 72.3253 -51.4615 78.9355 -51.0215 83.4219C-50.7352 86.34 -50.4024 88.1912 -49.3237 92.8686C-48.4509 96.6534 -48.267 98.2176 -48.267 101.855V104.855L-49.2955 108.966C-49.8611 111.226 -50.4153 113.689 -50.5271 114.439C-51.0088 117.671 -50.6819 121.468 -49.3917 127.624C-48.0771 133.898 -47.5719 137.95 -47.3904 143.678L-47.2735 147.373L-47.9073 148.889C-48.4816 150.262 -48.54 150.574 -48.5271 152.205C-48.5129 153.983 -48.5161 153.996 -48.7943 153.295L-49.0757 152.585L-49.7908 153.201C-50.1842 153.539 -50.8547 154.049 -51.2813 154.335C-51.7383 154.641 -52.0566 155.003 -52.0566 155.217C-52.0566 155.422 -51.4931 156.103 -50.7609 156.782C-50.0483 157.443 -49.2382 158.345 -48.9608 158.785C-48.0379 160.253 -46.76 160.641 -43.5054 160.446C-41.6426 160.334 -41.1425 160.238 -40.6368 159.897C-40.039 159.493 -40.0251 159.451 -40.0526 158.165C-40.2758 147.756 -40.1329 143.559 -39.3894 138.69C-38.5036 132.889 -37.9143 130.069 -36.9775 127.146C-35.2306 121.694 -35.1251 117.797 -36.5301 110.613C-36.8357 109.05 -37.0862 107.461 -37.0866 107.083C-37.087 106.705 -36.8317 105.566 -36.5195 104.551C-35.9453 102.686 -35.7208 101.228 -35.3924 97.2319C-35.2395 95.3719 -35.1033 94.7695 -34.5134 93.3475C-33.526 90.9662 -33.1666 89.8824 -32.5409 87.4011C-31.9999 85.255 -31.0295 78.9499 -30.6496 75.1119C-30.4446 73.0412 -30.3853 69.4 -30.5564 69.4C-30.6121 69.4 -31.076 69.6121 -31.5874 69.8713C-33.5438 70.8627 -35.2314 71.1952 -38.319 71.1979C-40.7507 71.1998 -41.3529 71.1385 -42.4877 70.774C-43.6388 70.4043 -45.7788 69.1224 -45.5787 68.9225C-45.5403 68.8841 -44.7012 69.1569 -43.714 69.5287C-42.1966 70.1002 -41.6083 70.2197 -39.9082 70.3018C-36.6593 70.4583 -32.8446 69.692 -31.166 68.5453L-30.4554 68.06L-30.4543 66.1246C-30.4533 64.1909 -30.1765 62.5763 -29.8993 62.8875C-29.8186 62.9782 -29.6605 64.0329 -29.548 65.2314C-29.4354 66.4299 -29.2855 67.5611 -29.2147 67.7453C-29.0328 68.2188 -26.6432 69.3051 -24.9604 69.6793C-24.1787 69.8531 -22.5111 70.0441 -21.2542 70.1038C-18.6424 70.2277 -16.9076 69.9357 -14.7164 69.0033C-13.1462 68.3349 -13.0264 68.3251 -13.5742 68.9081C-14.2367 69.6132 -16.2615 70.5212 -17.893 70.8447C-20.855 71.4321 -25.644 70.8125 -28.2415 69.5056L-29.508 68.8683V70.8926C-29.508 74.1889 -28.6642 80.173 -27.5946 84.4641C-26.8346 87.5127 -26.2443 89.4287 -25.0553 92.7066C-24.1947 95.0792 -24.0419 95.7128 -23.9352 97.349C-23.7099 100.811 -23.4144 102.634 -22.7373 104.739C-21.9786 107.098 -21.9656 106.739 -22.9952 111.845C-23.4596 114.148 -23.5123 114.818 -23.5243 118.571C-23.5383 123.003 -23.3736 124.109 -22.2909 126.856C-21.5663 128.694 -20.5766 133.125 -19.951 137.33C-19.1019 143.04 -18.8878 146.712 -19.2936 148.605C-19.4625 149.393 -19.438 149.884 -19.1616 151.251C-18.8383 152.851 -18.8375 153.049 -19.1462 155.457C-19.5818 158.855 -19.5777 158.909 -18.8158 159.74L-18.1664 160.447L-15.2629 160.442C-11.9998 160.437 -11.5907 160.319 -10.6332 159.111C-10.3322 158.73 -9.4249 157.763 -8.61732 156.961C-7.78056 156.13 -7.14881 155.343 -7.14881 155.131C-7.14881 154.886 -7.56663 154.476 -8.378 153.926C-9.05408 153.468 -9.75024 152.935 -9.92495 152.742C-10.2302 152.404 -10.2547 152.418 -10.5497 153.087L-10.857 153.783L-10.8542 151.999C-10.8517 150.432 -10.9175 150.071 -11.3972 149.025L-11.9431 147.835L-11.8268 144.193C-11.6498 138.647 -11.2781 135.782 -9.70685 127.856C-8.53717 121.955 -8.41097 120.998 -8.39771 117.908C-8.3835 114.65 -8.58321 113.431 -9.85617 109.002L-10.8093 105.686L-10.7748 101.802C-10.7375 97.5889 -10.6948 97.2806 -9.3222 91.2855C-7.93346 85.2201 -7.81655 84.0667 -7.81409 76.411C-7.81181 68.9574 -7.89083 68.0505 -9.25039 59.9258C-10.7558 50.9285 -11.7637 46.9435 -12.6543 46.4669C-12.9758 46.2947 -43.9052 46.252 -46.0077 46.4209ZM47.3555 63.3886C47.1495 65.1031 47.216 65.5207 47.9 66.8096C48.2667 67.5006 48.693 68.558 48.8477 69.1594L49.1285 70.2527L49.0369 69.2058C48.9865 68.63 48.7357 67.5588 48.4793 66.8253C48.2231 66.0916 47.9539 64.8338 47.8809 64.0299C47.8081 63.2259 47.6869 62.5299 47.6115 62.4833C47.536 62.4369 47.4208 62.8443 47.3555 63.3886ZM21.6182 63.147C21.5486 63.3034 21.438 63.8322 21.3724 64.3224C21.307 64.8126 21.0039 65.9211 20.699 66.7857C20.3939 67.6503 20.15 68.699 20.1569 69.1158L20.1692 69.8737L20.4045 68.9263C20.5341 68.4053 20.9142 67.4411 21.2492 66.784C21.7951 65.7134 21.8525 65.4474 21.8016 64.226C21.7703 63.4762 21.6877 62.9907 21.6182 63.147ZM-15.0909 96.2676C-15.2703 98.9685 -15.9922 103.92 -16.3536 104.928C-16.6818 105.844 -16.0523 104.84 -15.6101 103.742C-14.837 101.823 -14.4747 99.8708 -14.6192 98.4033C-14.7394 97.1838 -15.0564 95.7486 -15.0909 96.2676ZM-44.5284 96.97C-44.8291 98.6695 -44.6846 100.417 -44.0934 102.226C-43.5247 103.966 -42.6304 105.851 -42.856 104.834C-43.0609 103.91 -44.0892 98.2807 -44.2406 97.2543L-44.3943 96.2121L-44.5284 96.97ZM-44.7194 149.471C-44.8805 153.64 -44.8703 154.42 -44.6597 154.063C-44.3748 153.58 -44.0775 149.993 -44.2152 148.699C-44.431 146.673 -44.6226 146.966 -44.7194 149.471ZM-14.822 147.657C-15.0393 148.495 -14.9957 153.287 -14.7651 153.911C-14.5256 154.558 -14.3106 149.867 -14.5046 148.226C-14.6458 147.031 -14.6552 147.014 -14.822 147.657Z" fill="#072723"/>
</g>
<rect x="0.566667" y="0.566667" width="66.8667" height="66.8667" rx="10.7667" stroke="#072723" stroke-width="1.13333"/>
<defs>
<clipPath id="clip0_344_3988">
<rect width="68" height="68" rx="11.3333" fill="white"/>
</clipPath>
</defs>
</svg>
