<svg width="68" height="68" viewBox="0 0 68 68" fill="none" xmlns="http://www.w3.org/2000/svg">
<g clip-path="url(#clip0_344_4000)">
<path fill-rule="evenodd" clip-rule="evenodd" d="M15.9298 3.32008C15.8413 6.75031 15.8324 6.81057 15.2132 8.21427C13.5776 11.9212 11.2933 19.9051 10.4916 24.7172C9.61583 29.9743 9.44851 32.5335 9.43961 40.8056C9.4324 47.3798 9.4866 49.0577 9.76969 51.0378C10.726 57.7268 11.436 61.0253 13.1126 66.5681C14.3137 70.5397 14.276 71.0595 12.1985 79.1613C10.2633 86.7079 10.38 90.1201 13.0224 103.241C14.6959 111.55 14.9112 113.014 14.9176 116.126L14.9229 118.778L14.1339 120.863C13.6998 122.009 13.2915 123.268 13.2265 123.66C13.1382 124.192 12.726 124.806 11.6028 126.082C9.88357 128.034 9.52583 128.632 9.52583 129.551C9.52583 130.236 9.59537 130.314 11.6102 131.862C14.5947 134.156 15.8362 134.6 19.2505 134.6C22.0604 134.6 23.2991 134.091 24.0635 132.621C24.3786 132.015 24.3416 130.565 23.9196 126.975C23.736 125.413 23.7514 124.839 24.0195 123.243C24.2899 121.632 24.302 121.144 24.1023 119.906C23.8194 118.152 23.9666 113.22 24.4023 109.871C24.806 106.765 25.6866 102.445 26.5645 99.2616C26.9669 97.8026 27.4317 96.0026 27.5973 95.2616C28.428 91.5435 28.4811 84.6999 27.7141 80.2277L27.2767 77.6789L27.6754 75.68C27.8946 74.5807 28.1254 72.7006 28.1885 71.5021C28.3602 68.2379 28.5857 66.9336 29.8922 61.6489C31.3959 55.5665 32.9338 48.0337 33.4077 44.4305C33.6726 42.4147 33.7732 40.4954 33.776 37.397C33.7793 33.8078 33.8312 33.0114 34.1052 32.3489L34.4303 31.5626L34.7098 32.2523C34.9211 32.7734 35.0037 34.0071 35.0479 37.3001C35.0879 40.2741 35.2285 42.5911 35.4905 44.5953C36.015 48.6073 37.5072 55.8702 39.208 62.6911C40.4819 67.8005 40.642 68.6494 40.79 71.0809C40.8806 72.5689 41.1455 74.6811 41.3789 75.7746L41.8032 77.763L41.3823 80.0297C40.7677 83.3398 40.5365 87.4819 40.7821 90.7882C41.0111 93.8749 41.3126 95.5178 42.138 98.177C44.4315 105.567 45.6041 114.5 44.9628 119.699C44.7499 121.424 44.7608 121.86 45.0589 123.515C45.381 125.304 45.381 125.514 45.0604 128.429C44.6633 132.041 44.7682 132.743 45.8369 133.624C46.863 134.47 47.8197 134.658 50.5894 134.559C52.3988 134.495 53.2865 134.373 54.0947 134.08C55.3339 133.63 59.2826 131.121 59.5564 130.609C60.0621 129.664 59.3337 128.032 57.5442 126.099C56.871 125.371 56.1576 124.408 55.9588 123.957C55.5833 123.105 54.568 118.447 54.3457 116.557C54.1464 114.863 54.5597 111.422 55.5696 106.367C57.501 96.6981 58.0043 93.3523 58.1627 89.1242C58.301 85.4334 58.0005 83.2492 56.7283 78.7006C55.4656 74.1858 55.364 73.6526 55.2445 70.9247L55.1402 68.5473L56.3107 64.7712C57.9897 59.3544 59.1541 53.0624 59.5729 47.1441C59.8038 43.8796 59.6996 36.2712 59.3627 31.8051C58.7636 23.8625 57.1283 16.5897 54.3355 9.44592C53.163 6.44657 53.1095 6.15893 53.1084 2.85016C53.1073 -0.156775 52.9634 -0.676152 52.5365 0.783827C52.2368 1.80875 52.0894 5.70531 52.3141 6.66751L52.5058 7.48912L52.0109 7.36501C50.2945 6.93412 47.5696 6.49925 45.5279 6.33042C37.3465 5.65358 31.5629 5.6227 24.7793 6.21919C21.6163 6.49736 17.6015 7.08835 16.8094 7.39229C16.5335 7.49802 16.4973 7.45463 16.6139 7.15771C17.1005 5.91715 16.8477 0.675253 16.2738 0.101115C16.061 -0.111677 16.0049 0.414331 15.9298 3.32008ZM-46.5616 5.21455C-47.5854 5.5037 -48.1859 6.2029 -48.5413 7.51944C-48.7149 8.16217 -49.0412 9.11433 -49.2667 9.63541C-49.8537 10.9915 -49.8584 13.9843 -49.276 15.2563C-49.0533 15.7425 -48.7122 16.2253 -48.518 16.3291C-48.3238 16.433 -48.061 16.9069 -47.934 17.3821C-47.8069 17.8573 -47.4527 18.5256 -47.1471 18.8673C-46.6421 19.4319 -46.4983 19.4865 -45.5713 19.4653C-44.6313 19.4437 -44.3234 19.3325 -42.8892 18.4967C-42.6546 18.3598 -41.7964 18.2613 -40.8249 18.2598C-39.0476 18.2568 -37.5713 17.8695 -36.5411 17.1358C-36.2362 16.9186 -35.9302 16.7411 -35.8608 16.7411C-35.6424 16.7411 -34.052 20.3204 -33.3858 22.3123C-32.1511 26.0033 -31.89 29.5216 -32.453 34.8818C-32.6134 36.4117 -32.7709 37.6892 -32.8026 37.721C-32.8342 37.7526 -33.7473 37.3583 -34.8317 36.8448C-38.1574 35.2698 -41.1272 34.6472 -42.7719 35.18C-43.2409 35.332 -43.9401 35.5935 -44.3257 35.761L-45.0268 36.0657L-46.1258 35.0989C-49.732 31.9262 -52.8618 30.7226 -57.457 30.7415C-60.5761 30.7542 -61.7636 31.0712 -67.0259 33.2961C-68.7555 34.0276 -69.3956 34.109 -70.6888 33.7632C-71.1434 33.6416 -71.6774 33.6063 -71.876 33.6844C-72.1613 33.797 -71.9844 33.9224 -71.0293 34.2845C-69.2541 34.9574 -68.7099 34.8907 -65.3797 33.5914C-63.7575 32.9583 -61.788 32.2762 -61.003 32.0755C-59.2269 31.6213 -55.888 31.5862 -53.8014 31.9999C-50.9252 32.57 -47.5767 34.6513 -44.6984 37.6575C-44.0384 38.3467 -43.4628 38.9108 -43.4194 38.9108C-43.1837 38.9108 -43.4074 38.3067 -43.8895 37.6412L-44.4386 36.8831L-43.5579 36.4543C-42.2196 35.8027 -40.9108 35.7685 -38.7402 36.329C-36.1824 36.9892 -33.6329 38.2487 -30.9973 40.1538C-28.7544 41.7752 -27.6861 42.3579 -26.4999 42.6069C-25.6376 42.7878 -25.8481 42.4987 -27.0921 41.7942C-28.2519 41.1372 -31.7829 38.5615 -31.7795 38.3749C-31.7782 38.3048 -31.652 36.9686 -31.4991 35.4053C-31.1362 31.695 -31.1387 28.0205 -31.5057 25.9085C-31.8928 23.6808 -33.0303 20.3242 -34.211 17.9263L-35.1668 15.9848L-34.6898 15.1314C-34.0965 14.0699 -34.3186 14.0413 -35.2962 15.0532C-36.2085 15.9977 -37.3363 16.7896 -38.2243 17.1091C-38.589 17.2404 -39.8254 17.4109 -40.9718 17.488C-42.6961 17.6042 -43.2195 17.7154 -44.002 18.1323C-45.8133 19.0968 -46.9201 18.6825 -47.0812 16.9798C-47.1859 15.8708 -46.8697 15.5314 -45.0122 14.7589C-44.3164 14.4695 -43.531 14.0072 -43.2668 13.7315C-42.5026 12.934 -41.8571 10.6776 -42.3929 10.6776C-42.4972 10.6776 -42.5824 10.8318 -42.5824 11.0203C-42.5824 11.2089 -42.7052 11.5285 -42.8551 11.7309C-43.0878 12.0449 -43.185 12.0638 -43.5183 11.8603C-44.0284 11.5488 -44.0267 11.8999 -43.5164 12.2575C-43.131 12.5273 -43.1387 12.5466 -43.9334 13.3103C-44.3787 13.7381 -44.7981 14.0883 -44.8653 14.0883C-44.9324 14.0883 -44.8329 13.6405 -44.6438 13.0935C-44.2789 12.0371 -44.1894 10.7471 -44.4523 10.3325C-44.5536 10.1726 -44.6493 10.4547 -44.7173 11.1138C-44.8475 12.3738 -45.408 13.5217 -46.1836 14.1161C-46.5034 14.3613 -47.0501 14.7962 -47.3984 15.0827C-48.1114 15.6688 -48.2704 15.5879 -48.6052 14.4673C-49.1122 12.7708 -48.976 11.3366 -48.1099 9.25644C-47.8929 8.73536 -47.6051 7.92531 -47.4702 7.45634C-47.2769 6.78499 -47.0838 6.53317 -46.5616 6.27244C-45.7354 5.85955 -43.6676 5.83321 -41.5403 6.2082C-39.181 6.62412 -32.8384 8.65445 -32.0715 9.23939C-30.9312 10.1091 -26.6507 16.5933 -23.8828 21.6442C-19.7465 29.1919 -17.6184 35.018 -15.9843 43.2689C-15.3052 46.6978 -15.1839 48.2794 -15.5564 48.8479C-16.4425 50.2002 -19.9216 52.5993 -23.5392 54.3524C-27.2143 56.1336 -29.8172 56.8671 -34.0145 57.3044C-36.8905 57.604 -43.5653 57.434 -45.2352 57.0189C-47.7832 56.385 -51.8619 54.9732 -52.724 54.4265C-53.2735 54.078 -53.8105 53.8816 -54.1165 53.917C-54.6111 53.9744 -54.6154 53.9894 -54.7252 55.9644C-54.8648 58.4794 -55.5504 60.5863 -57.3455 64.0175C-58.8703 66.9315 -59.4272 68.5653 -60.9579 74.6148C-62.6862 81.4444 -62.7729 83.0224 -61.7971 89.8721C-61.3304 93.1484 -61.0884 94.0456 -60.6308 94.1946C-60.2886 94.3062 -60.3299 93.0724 -60.7621 90.2611C-61.7914 83.5671 -61.6986 81.6818 -60.0057 74.9128C-58.5238 68.9865 -57.8805 66.985 -56.9372 65.3643C-55.1157 62.2346 -53.9638 59.0274 -53.8143 56.6681C-53.7561 55.7523 -53.6567 55.0321 -53.5932 55.0673C-51.9623 55.9738 -48.0309 57.3787 -45.4563 57.9746C-43.7278 58.3748 -36.7131 58.5414 -33.7559 58.2526C-28.3258 57.7224 -23.7098 56.0663 -19.0863 52.9893C-14.7183 50.0824 -14.2141 49.4215 -14.4358 46.8915C-14.7542 43.2598 -16.897 34.845 -18.6272 30.4328C-20.5078 25.6372 -23.0869 20.7873 -27.1463 14.4133C-30.7432 8.76548 -31.2562 8.21617 -33.6009 7.5039C-34.3199 7.28542 -36.0594 6.75714 -37.4663 6.33023C-41.6621 5.0567 -44.6883 4.6855 -46.5616 5.21455ZM29.4217 6.81607C28.7443 6.85681 26.3142 7.06107 24.0214 7.27045C19.2629 7.70456 16.3763 8.22754 16.0159 8.72058C15.3381 9.64734 12.1233 20.7011 11.5327 24.1346C10.3154 31.2133 9.90234 43.6253 10.6625 50.28C11.3655 56.433 12.3323 61.0175 13.9336 65.7918C14.7224 68.1437 14.7365 68.2316 14.7306 70.7442C14.7253 73.0127 14.6557 73.5595 14.1168 75.576C11.8015 84.2396 11.6896 84.9079 11.877 88.9347C12.0545 92.7511 12.6218 96.9328 13.5078 100.958C15.2791 109.004 15.8662 113.078 15.7261 116.352C15.6371 118.433 15.5257 119.085 14.9426 120.935C14.1432 123.47 14.1184 124.031 14.7289 125.761C15.149 126.951 15.1567 127.031 14.8221 126.729C14.6214 126.547 14.3539 126.112 14.2273 125.762C14.1007 125.413 13.944 125.126 13.8789 125.126C13.6331 125.126 10.8939 128.09 10.5858 128.689C10.1578 129.521 10.3247 129.933 11.386 130.661C11.8741 130.996 12.7702 131.67 13.3773 132.159C14.6148 133.154 15.191 133.341 18.0526 133.67C21.1511 134.027 22.6389 133.622 23.2979 132.239C23.5913 131.625 23.5892 131.381 23.2688 128.532C23.0277 126.389 22.9688 125.048 23.0706 124.025C23.1503 123.224 23.2326 120.095 23.2532 117.073C23.3074 109.158 23.7481 106.276 26.399 96.4925C26.9538 94.4456 27.3374 90.5792 27.3378 87.0323C27.3379 84.3374 27.2441 83.1546 26.8316 80.655L26.3253 77.5859L26.7467 75.7274C27.0103 74.5651 27.233 72.6983 27.3412 70.7434C27.5204 67.5047 27.5812 67.1688 29.2104 60.4173C32.0034 48.8432 32.8324 43.653 32.8324 37.7394V34.1971L31.6481 34.9058C30.0932 35.8362 28.4504 36.5509 26.9459 36.9517C25.275 37.3968 22.1427 37.3924 20.5159 36.9426C19.0105 36.5265 15.7386 35.2874 15.8504 35.1758C15.895 35.1313 17.0268 35.3778 18.3658 35.7236C20.5203 36.2802 21.0834 36.352 23.2635 36.3493C25.3048 36.3469 25.9691 36.2707 27.1413 35.9054C28.6797 35.4258 30.2983 34.6595 31.8041 33.6982C33.0388 32.9098 33.5121 31.8642 33.7903 29.3102C34.2386 25.1944 34.5268 25.053 34.9876 28.7233C35.1741 30.2098 35.4795 31.775 35.6664 32.2015C36.0826 33.1523 36.6219 33.5463 39.1766 34.7667C43.0242 36.6045 46.1647 36.849 51.1027 35.6948C52.4492 35.3801 53.5838 35.1556 53.6242 35.1959C53.7273 35.2988 50.7563 36.42 49.5285 36.7415C48.967 36.8884 47.8091 37.1018 46.9555 37.2153C43.8004 37.6352 40.0207 36.6731 36.775 34.6242C36.3824 34.3764 36.0169 34.1737 35.9627 34.1737C35.8111 34.1737 35.8547 37.3646 36.0495 40.5276C36.3633 45.6223 37.6082 52.3236 40.1389 62.5414C41.501 68.0402 41.5929 68.5444 41.7371 71.3126C41.8398 73.2851 42.0292 74.7976 42.3139 75.9186L42.7375 77.5874L42.2017 80.6557C41.7285 83.3633 41.6662 84.1805 41.6704 87.6083C41.6762 92.3734 41.857 93.6917 43.1656 98.5037C44.4268 103.141 44.798 104.932 45.4504 109.521C45.9554 113.073 46.0298 114.758 45.9518 120.863C45.9345 122.218 45.9353 124.392 45.9535 125.695C45.9716 126.997 45.9139 129.004 45.8254 130.154L45.6641 132.244L46.2671 132.847C47.2977 133.878 48.6519 134.056 51.6937 133.563C53.9717 133.194 54.7107 132.912 56.4625 131.743C58.3929 130.455 58.7918 130.079 58.7918 129.542C58.7918 128.993 58.0901 127.872 57.2735 127.116C56.9356 126.803 56.3389 126.147 55.9473 125.658L55.235 124.768L54.9191 125.596C54.7454 126.051 54.4638 126.536 54.2934 126.675C54.031 126.888 53.9999 126.883 54.0901 126.642C54.1485 126.485 54.3469 125.738 54.5307 124.981L54.8651 123.605L54.1919 120.718C53.3235 116.995 53.1927 115.224 53.58 112.431C53.9332 109.883 54.7789 105.255 55.6784 100.949C56.7675 95.7345 57.1592 92.3528 57.1687 88.082C57.178 83.8809 57.1321 83.574 55.8237 79.0913C54.7158 75.2948 54.4422 73.8165 54.3139 70.9336L54.2085 68.5651L55.3676 64.7754C56.8712 59.8604 57.9156 54.6101 58.528 48.8902C58.7751 46.5826 58.8123 44.9153 58.7169 40.4266C58.4915 29.8155 57.9022 24.8239 56.0325 17.6885C55.4991 15.6527 53.8252 10.4892 53.3058 9.27785L52.9625 8.47652L50.9979 8.06609C48.6053 7.56604 46.6669 7.32389 43.0646 7.0749C40.0283 6.86476 31.3529 6.70029 29.4217 6.81607ZM-49.5104 49.452C-51.6529 51.0311 -52.3513 51.3775 -55.3279 52.338C-56.6581 52.7672 -58.163 53.3294 -58.6723 53.5875C-59.5455 54.0301 -61.3634 55.4512 -61.4977 55.7965C-61.5314 55.8835 -60.6788 55.5342 -59.6029 55.0204C-58.5268 54.5067 -56.4953 53.7122 -55.0884 53.2551C-51.9242 52.227 -50.8885 51.7067 -49.5232 50.4589C-48.4451 49.4734 -47.5892 48.4312 -47.737 48.2834C-47.7809 48.2395 -48.5788 48.7653 -49.5104 49.452ZM17.2545 70.6968C16.9099 71.512 16.9684 73.9157 17.3604 75.0527C17.8112 76.3605 18.0865 76.5092 17.9082 75.349C17.8313 74.8486 17.7684 73.4799 17.7684 72.3074C17.7684 71.1351 17.7023 70.1757 17.6215 70.1757C17.5408 70.1757 17.3756 70.4101 17.2545 70.6968ZM50.9649 72.6771C50.9017 73.8545 50.7556 75.1429 50.6402 75.54C50.3107 76.6741 50.5557 76.8094 51.0489 75.7655C51.4284 74.9627 51.4966 74.5232 51.4966 72.8851C51.4966 71.7331 51.4125 70.8683 51.2884 70.7442C51.137 70.593 51.0487 71.1214 50.9649 72.6771ZM-43.293 103.477C-45.6119 103.508 -47.509 103.571 -47.509 103.619C-47.509 103.667 -47.7597 104.582 -48.0663 105.653C-48.9048 108.582 -49.8618 113.296 -50.7115 118.684C-51.9462 126.514 -52.1307 128.651 -52.1334 135.169C-52.1362 141.74 -51.931 143.619 -50.5599 149.57C-49.361 154.774 -49.2144 155.878 -49.2144 159.697C-49.2144 162.556 -49.2794 163.384 -49.5952 164.552C-50.637 168.404 -50.9036 169.512 -51.1886 171.171C-51.6466 173.837 -51.7612 176.672 -51.5024 178.94C-51.3777 180.034 -50.7727 183.445 -50.158 186.519C-48.9205 192.709 -48.5866 194.994 -48.2548 199.548C-47.9543 203.669 -48.0623 205.476 -48.6823 206.699C-48.9464 207.22 -49.2676 208.093 -49.3963 208.639C-49.6879 209.878 -50.0875 210.39 -51.5164 211.361C-53.5028 212.71 -53.4727 213.402 -51.3336 215.554C-50.5328 216.359 -49.4939 217.427 -49.0249 217.927C-47.9183 219.107 -47.2297 219.301 -44.1711 219.296C-41.3934 219.291 -40.5803 219.05 -39.6625 217.959C-39.0679 217.253 -39.0692 217.322 -39.5541 212.908C-39.7485 211.138 -39.7324 210.835 -39.3686 209.431C-39.032 208.133 -39.0004 207.729 -39.1656 206.835C-39.4934 205.062 -39.3906 203.205 -38.6934 198.312C-37.8281 192.238 -37.1183 188.761 -36.0596 185.407C-34.311 179.868 -34.201 176.038 -35.5808 168.726C-36.2425 165.219 -36.2624 164.575 -35.7543 163.1C-35.0188 160.965 -34.7967 159.765 -34.5371 156.523C-34.2811 153.325 -34.2587 153.221 -33.3307 150.88C-32.2735 148.214 -31.7492 146.552 -31.3045 144.454C-30.932 142.696 -30.0893 136.86 -30.0596 135.832C-30.0382 135.087 -30.0351 135.084 -29.8767 135.643C-29.7882 135.955 -29.5404 137.32 -29.3257 138.674C-28.6976 142.641 -27.6239 146.499 -25.6601 151.846C-25.1078 153.349 -24.9767 154.009 -24.8686 155.825C-24.6839 158.932 -24.4717 160.172 -23.6938 162.687L-23.0066 164.908L-23.741 168.845C-24.4319 172.547 -24.4758 173.001 -24.4812 176.477C-24.4872 180.589 -24.369 181.33 -23.0524 185.435C-21.4627 190.391 -19.6152 202.015 -19.9288 205.089C-19.9979 205.766 -20.1014 206.792 -20.1586 207.368C-20.2272 208.058 -20.1588 208.765 -19.9587 209.439C-19.5818 210.709 -19.5741 212.13 -19.9309 214.517C-20.2549 216.682 -20.1205 217.57 -19.3463 218.378C-18.5668 219.192 -17.8045 219.338 -14.7134 219.268C-12.0546 219.208 -11.9212 219.185 -11.1498 218.674C-10.709 218.382 -10.0762 217.757 -9.74342 217.284C-9.41069 216.812 -8.73006 216.132 -8.23096 215.774C-7.25739 215.074 -6.20139 213.605 -6.20139 212.951C-6.20139 212.466 -6.90741 211.776 -8.21959 210.978C-9.35688 210.287 -9.70173 209.824 -10.0168 208.564C-10.1432 208.06 -10.4584 207.178 -10.7174 206.605C-11.0965 205.765 -11.1839 205.281 -11.1668 204.115C-11.1155 200.618 -9.85844 190.852 -8.86535 186.235C-7.63503 180.514 -7.46563 179.087 -7.58425 175.434C-7.70002 171.871 -8.13754 169.376 -9.26459 165.851L-9.89634 163.876L-9.83949 159.707C-9.77867 155.246 -9.65929 154.422 -8.24896 148.717C-7.20149 144.48 -6.92673 142.035 -6.82195 136.013C-6.68913 128.376 -6.91385 125.938 -8.68174 115.841C-9.58009 110.711 -10.4887 106.966 -11.3188 104.972L-11.8994 103.577L-13.0573 103.457C-14.1448 103.343 -33.9984 103.357 -43.293 103.477ZM-46.0077 104.421L-46.8752 104.49L-47.3728 106.234C-48.2147 109.184 -50.0098 119.369 -50.7194 125.221C-51.3383 130.325 -51.4615 136.935 -51.0215 141.422C-50.7352 144.34 -50.4024 146.191 -49.3237 150.869C-48.4509 154.653 -48.267 156.218 -48.267 159.855V162.855L-49.2955 166.966C-49.8611 169.226 -50.4153 171.689 -50.5271 172.439C-51.0088 175.671 -50.6819 179.468 -49.3917 185.624C-48.0771 191.898 -47.5719 195.95 -47.3904 201.678L-47.2735 205.373L-47.9073 206.889C-48.4816 208.262 -48.54 208.574 -48.5271 210.205C-48.5129 211.983 -48.5161 211.996 -48.7943 211.295L-49.0757 210.585L-49.7908 211.201C-50.1842 211.539 -50.8547 212.049 -51.2813 212.335C-51.7383 212.641 -52.0566 213.003 -52.0566 213.217C-52.0566 213.422 -51.4931 214.103 -50.7609 214.782C-50.0483 215.443 -49.2382 216.345 -48.9608 216.785C-48.0379 218.253 -46.76 218.641 -43.5054 218.446C-41.6426 218.334 -41.1425 218.238 -40.6368 217.897C-40.039 217.493 -40.0251 217.451 -40.0526 216.165C-40.2758 205.756 -40.1329 201.559 -39.3894 196.69C-38.5036 190.889 -37.9143 188.069 -36.9775 185.146C-35.2306 179.694 -35.1251 175.797 -36.5301 168.613C-36.8357 167.05 -37.0862 165.461 -37.0866 165.083C-37.087 164.705 -36.8317 163.566 -36.5195 162.551C-35.9453 160.686 -35.7208 159.228 -35.3924 155.232C-35.2395 153.372 -35.1033 152.77 -34.5134 151.347C-33.526 148.966 -33.1666 147.882 -32.5409 145.401C-31.9999 143.255 -31.0295 136.95 -30.6496 133.112C-30.4446 131.041 -30.3853 127.4 -30.5564 127.4C-30.6121 127.4 -31.076 127.612 -31.5874 127.871C-33.5438 128.863 -35.2314 129.195 -38.319 129.198C-40.7507 129.2 -41.3529 129.139 -42.4877 128.774C-43.6388 128.404 -45.7788 127.122 -45.5787 126.923C-45.5403 126.884 -44.7012 127.157 -43.714 127.529C-42.1966 128.1 -41.6083 128.22 -39.9082 128.302C-36.6593 128.458 -32.8446 127.692 -31.166 126.545L-30.4554 126.06L-30.4543 124.125C-30.4533 122.191 -30.1765 120.576 -29.8993 120.887C-29.8186 120.978 -29.6605 122.033 -29.548 123.231C-29.4354 124.43 -29.2855 125.561 -29.2147 125.745C-29.0328 126.219 -26.6432 127.305 -24.9604 127.679C-24.1787 127.853 -22.5111 128.044 -21.2542 128.104C-18.6424 128.228 -16.9076 127.936 -14.7164 127.003C-13.1462 126.335 -13.0264 126.325 -13.5742 126.908C-14.2367 127.613 -16.2615 128.521 -17.893 128.845C-20.855 129.432 -25.644 128.812 -28.2415 127.506L-29.508 126.868V128.893C-29.508 132.189 -28.6642 138.173 -27.5946 142.464C-26.8346 145.513 -26.2443 147.429 -25.0553 150.707C-24.1947 153.079 -24.0419 153.713 -23.9352 155.349C-23.7099 158.811 -23.4144 160.634 -22.7373 162.739C-21.9786 165.098 -21.9656 164.739 -22.9952 169.845C-23.4596 172.148 -23.5123 172.818 -23.5243 176.571C-23.5383 181.003 -23.3736 182.109 -22.2909 184.856C-21.5663 186.694 -20.5766 191.125 -19.951 195.33C-19.1019 201.04 -18.8878 204.712 -19.2936 206.605C-19.4625 207.393 -19.438 207.884 -19.1616 209.251C-18.8383 210.851 -18.8375 211.049 -19.1462 213.457C-19.5818 216.855 -19.5777 216.909 -18.8158 217.74L-18.1664 218.447L-15.2629 218.442C-11.9998 218.437 -11.5907 218.319 -10.6332 217.111C-10.3322 216.73 -9.4249 215.763 -8.61732 214.961C-7.78056 214.13 -7.14881 213.343 -7.14881 213.131C-7.14881 212.886 -7.56663 212.476 -8.378 211.926C-9.05408 211.468 -9.75024 210.935 -9.92495 210.742C-10.2302 210.404 -10.2547 210.418 -10.5497 211.087L-10.857 211.783L-10.8542 209.999C-10.8517 208.432 -10.9175 208.071 -11.3972 207.025L-11.9431 205.835L-11.8268 202.193C-11.6498 196.647 -11.2781 193.782 -9.70685 185.856C-8.53717 179.955 -8.41097 178.998 -8.39771 175.908C-8.3835 172.65 -8.58321 171.431 -9.85617 167.002L-10.8093 163.686L-10.7748 159.802C-10.7375 155.589 -10.6948 155.281 -9.3222 149.286C-7.93346 143.22 -7.81655 142.067 -7.81409 134.411C-7.81181 126.957 -7.89083 126.051 -9.25039 117.926C-10.7558 108.929 -11.7637 104.943 -12.6543 104.467C-12.9758 104.295 -43.9052 104.252 -46.0077 104.421ZM47.3555 121.389C47.1495 123.103 47.216 123.521 47.9 124.81C48.2667 125.501 48.693 126.558 48.8477 127.159L49.1285 128.253L49.0369 127.206C48.9865 126.63 48.7357 125.559 48.4793 124.825C48.2231 124.092 47.9539 122.834 47.8809 122.03C47.8081 121.226 47.6869 120.53 47.6115 120.483C47.536 120.437 47.4208 120.844 47.3555 121.389ZM21.6182 121.147C21.5486 121.303 21.438 121.832 21.3724 122.322C21.307 122.813 21.0039 123.921 20.699 124.786C20.3939 125.65 20.15 126.699 20.1569 127.116L20.1692 127.874L20.4045 126.926C20.5341 126.405 20.9142 125.441 21.2492 124.784C21.7951 123.713 21.8525 123.447 21.8016 122.226C21.7703 121.476 21.6877 120.991 21.6182 121.147ZM-15.0909 154.268C-15.2703 156.969 -15.9922 161.92 -16.3536 162.928C-16.6818 163.844 -16.0523 162.84 -15.6101 161.742C-14.837 159.823 -14.4747 157.871 -14.6192 156.403C-14.7394 155.184 -15.0564 153.749 -15.0909 154.268ZM-44.5284 154.97C-44.8291 156.67 -44.6846 158.417 -44.0934 160.226C-43.5247 161.966 -42.6304 163.851 -42.856 162.834C-43.0609 161.91 -44.0892 156.281 -44.2406 155.254L-44.3943 154.212L-44.5284 154.97ZM-44.7194 207.471C-44.8805 211.64 -44.8703 212.42 -44.6597 212.063C-44.3748 211.58 -44.0775 207.993 -44.2152 206.699C-44.431 204.673 -44.6226 204.966 -44.7194 207.471ZM-14.822 205.657C-15.0393 206.495 -14.9957 211.287 -14.7651 211.911C-14.5256 212.558 -14.3106 207.867 -14.5046 206.226C-14.6458 205.031 -14.6552 205.014 -14.822 205.657Z" fill="#072723"/>
</g>
<rect x="0.566667" y="0.566667" width="66.8667" height="66.8667" rx="10.7667" stroke="#072723" stroke-width="1.13333"/>
<defs>
<clipPath id="clip0_344_4000">
<rect width="68" height="68" rx="11.3333" fill="white"/>
</clipPath>
</defs>
</svg>
