<svg width="68" height="68" viewBox="0 0 68 68" fill="none" xmlns="http://www.w3.org/2000/svg">
<g clip-path="url(#clip0_344_4006)">
<path fill-rule="evenodd" clip-rule="evenodd" d="M-43.0869 -35.839C-43.0849 -35.7494 -42.953 -34.8306 -42.7937 -33.797C-42.4181 -31.3597 -42.4228 -29.518 -42.8099 -27.3444C-43.0137 -26.2008 -43.0813 -25.1017 -43.0034 -24.1957C-42.8944 -22.9273 -42.9545 -22.5906 -43.6805 -20.4038C-44.3041 -18.5253 -44.5444 -17.3872 -44.7857 -15.1687C-44.9555 -13.6095 -45.3125 -11.4664 -45.5792 -10.4061C-47.7326 -1.84554 -47.4723 4.36414 -44.5648 13.7866C-42.6871 19.8726 -42.6551 22.3714 -44.3778 28.4165C-45.9728 34.0136 -46.0073 36.2719 -44.5761 41.3736C-42.9037 47.3342 -42.1821 52.2958 -42.3753 56.5066C-42.7158 63.9231 -42.788 64.2361 -44.6663 66.4188C-45.7847 67.7187 -46.0114 68.2812 -45.6957 68.9742C-45.2368 69.9815 -43.1805 70.4703 -39.233 70.5103C-36.2606 70.5405 -35.4405 70.2341 -34.9875 68.924C-34.7216 68.1546 -34.7366 67.8927 -35.175 65.66C-35.6555 63.212 -35.8031 60.8987 -35.8349 55.3197C-35.8557 51.6911 -34.9329 45.7695 -33.8004 42.2637C-32.7244 38.9339 -32.513 37.2198 -32.7157 33.4718C-32.9887 28.4282 -32.9264 26.4516 -32.4366 24.6056C-32.198 23.7065 -31.9138 21.8015 -31.805 20.3723C-31.6883 18.8368 -31.2084 15.743 -30.6321 12.8088C-30.0958 10.0779 -29.4713 6.41927 -29.2442 4.67847C-29.0171 2.93768 -28.8059 1.42616 -28.7748 1.31954C-28.7438 1.21291 -28.6077 1.96956 -28.4723 3.00098C-28.0629 6.12016 -27.4959 9.39919 -26.5749 13.9759C-26.0932 16.3695 -25.6117 19.4406 -25.5049 20.8006C-25.3981 22.1606 -25.0723 24.2525 -24.7809 25.4493C-24.2137 27.7792 -24.2074 28.3544 -24.7049 32.4718C-25.0647 35.4485 -24.64 38.9317 -23.5044 42.3209C-22.9309 44.032 -21.9982 49.4862 -21.5209 53.9191C-21.3397 55.6028 -21.3422 56.4854 -21.5329 57.9249C-21.6714 58.972 -21.7206 60.3494 -21.6469 61.1062C-21.545 62.1487 -21.6259 62.9691 -22.017 64.8517C-22.7376 68.3224 -22.6638 69.297 -21.6299 69.9748C-20.1988 70.9122 -13.0885 70.519 -12.0124 69.4428C-11.3018 68.7323 -11.5163 67.869 -12.7453 66.4918C-14.3381 64.7065 -14.6125 63.9459 -14.8131 60.7597C-15.2762 53.3985 -14.8147 48.9415 -12.8266 41.5714C-11.4179 36.3496 -11.4316 34.4064 -12.9154 28.9111C-13.9494 25.0815 -14.2056 23.6236 -14.2076 21.5566C-14.2099 19.2859 -13.8724 17.2804 -13.0203 14.4989C-11.0947 8.21446 -10.4148 4.44802 -10.4079 0.0297699C-10.4025 -3.38198 -10.7206 -5.87606 -11.6425 -9.6514C-11.9675 -10.9819 -12.3694 -13.3674 -12.536 -14.9523C-12.7752 -17.2302 -13.007 -18.352 -13.6426 -20.3058C-14.3565 -22.4996 -14.4323 -22.9131 -14.3183 -23.9846C-14.2376 -24.7431 -14.3035 -25.8906 -14.4954 -27.0712C-14.8728 -29.3928 -14.8778 -31.1371 -14.5138 -33.6981C-14.2422 -35.6082 -14.334 -36.3269 -14.7899 -35.8642C-15.1686 -35.4802 -15.4457 -32.146 -15.3147 -29.55C-14.9767 -22.8401 -14.8607 -21.6364 -14.4572 -20.6421C-13.9088 -19.2916 -13.4766 -17.1744 -13.1241 -14.1142C-12.9611 -12.6998 -12.61 -10.6749 -12.3439 -9.61461C-11.4353 -5.99535 -11.1525 -3.67515 -11.1552 0.128681C-11.159 4.85196 -11.5475 7.02221 -13.7063 14.3715C-14.4576 16.9299 -14.6685 17.9916 -14.8061 19.9104C-15.0247 22.955 -14.8176 24.6058 -13.7021 28.7133C-13.2145 30.5085 -12.7178 32.6004 -12.5981 33.362C-12.3012 35.2511 -12.5101 37.5331 -13.2254 40.2132C-15.4716 48.6297 -15.9782 53.0665 -15.5268 60.364C-15.2831 64.3028 -15.1183 64.767 -13.0717 67.2799C-12.6094 67.8476 -12.231 68.3912 -12.231 68.4878C-12.231 68.906 -13.3443 69.3226 -15.1426 69.5774C-18.4612 70.0476 -20.9349 69.8766 -21.4736 69.14C-21.8467 68.6298 -21.782 67.2829 -21.2546 64.5914C-20.8596 62.5748 -20.8178 62.0241 -20.9927 61.1399C-21.1426 60.381 -21.1361 59.6412 -20.9689 58.4848C-20.5931 55.885 -20.7331 53.6717 -21.6142 48.2972C-21.7838 47.2636 -21.9228 46.2484 -21.9232 46.0411C-21.924 45.6767 -21.911 45.6761 -21.5284 46.0223C-20.9866 46.5127 -21.0188 46.3752 -21.9113 44.3905C-23.5445 40.7591 -24.2264 37.3353 -24.0221 33.7928C-23.6361 27.1078 -23.6351 27.1691 -24.1698 24.8558C-24.4466 23.659 -24.7649 21.6116 -24.8772 20.306C-24.9896 19.0004 -25.4792 15.9293 -25.965 13.4813C-27.2231 7.14446 -28.452 -1.18918 -28.452 -3.38416V-4.71527L-27.5489 -4.02607C-27.0455 -3.64152 -26.0267 -3.14856 -25.2456 -2.91138C-24.0689 -2.55392 -23.5532 -2.50506 -22.0205 -2.60575C-20.2635 -2.72127 -18.1275 -3.30998 -17.8527 -3.75467C-17.6371 -4.10362 -17.8644 -4.11687 -18.8671 -3.81322C-22.5582 -2.69556 -26.203 -3.26646 -27.8077 -5.21338L-28.3905 -5.92018L-28.5074 -11.3791C-28.5809 -14.8204 -28.702 -16.916 -28.8347 -17.0488C-28.9837 -17.1977 -29.0454 -15.6354 -29.0454 -11.714V-6.16844L-29.7872 -5.41614C-31.5737 -3.60413 -34.5885 -2.93729 -37.932 -3.61481C-38.8354 -3.79799 -39.6227 -3.89948 -39.6817 -3.84072C-39.7406 -3.78177 -39.3521 -3.53212 -38.8186 -3.28604C-37.9684 -2.89397 -37.5298 -2.83858 -35.2767 -2.83858C-32.8665 -2.83858 -32.6285 -2.87399 -31.4845 -3.40256C-30.8131 -3.71273 -30.0632 -4.17998 -29.8179 -4.4411C-29.5728 -4.70202 -29.2986 -4.91566 -29.2088 -4.91566C-28.9778 -4.91566 -29.0057 -1.73495 -29.2494 -0.289703C-29.3615 0.375557 -29.72 2.83383 -30.046 5.17302C-30.372 7.51221 -30.9933 11.1619 -31.4267 13.2835C-31.8602 15.4051 -32.3401 18.4762 -32.4932 20.1082C-32.6463 21.7402 -32.9668 23.8766 -33.2053 24.8558C-33.7232 26.9824 -33.7873 29.0834 -33.4385 32.5125C-33.1454 35.3985 -33.3212 37.8973 -34.0002 40.4834C-34.4456 42.1813 -35.4173 44.7562 -35.882 45.4714C-36.3067 46.1247 -36.2329 46.4403 -35.7564 46.0088C-35.3507 45.6417 -35.3471 45.6431 -35.4565 46.1265C-35.7271 47.3243 -36.3676 51.7677 -36.5736 53.8766C-36.7633 55.8212 -36.7492 56.5044 -36.4851 58.1718C-36.2371 59.7389 -36.2173 60.3547 -36.3914 61.1084C-36.5811 61.9307 -36.5399 62.3952 -36.0925 64.4788C-35.807 65.808 -35.5734 67.3822 -35.5734 67.9772C-35.5734 68.905 -35.6418 69.1038 -36.0551 69.3744C-36.7494 69.8294 -39.1849 69.9572 -41.6575 69.6681C-45.3812 69.2327 -45.7481 68.8209 -44.1062 66.9189C-42.5512 65.1174 -42.2462 64.3526 -42.0834 61.8476C-42.0056 60.6509 -41.8379 58.737 -41.7107 57.5946C-41.2709 53.6461 -42.0385 47.882 -43.8918 41.2143C-44.5145 38.9742 -44.7262 37.8158 -44.8142 36.1646C-44.9517 33.5823 -44.746 32.2928 -43.5304 28.1198C-42.6913 25.239 -42.6317 24.8762 -42.5451 22.1171C-42.4402 18.7751 -42.5698 17.8806 -43.6817 14.2726C-45.8061 7.37907 -46.1533 5.37341 -46.1473 0.0297699C-46.1424 -4.51449 -46.0086 -5.60268 -44.8712 -10.3556C-44.5588 -11.6612 -44.2044 -13.7086 -44.0833 -14.9054C-43.8336 -17.3777 -43.3171 -19.7603 -42.6881 -21.3418C-42.3348 -22.2302 -42.2796 -22.6593 -42.3785 -23.7524C-42.4564 -24.6137 -42.3858 -25.7292 -42.1781 -26.9175C-41.9334 -28.3174 -41.8851 -29.4327 -41.9744 -31.621C-42.1093 -34.9328 -42.2737 -35.8446 -42.7522 -35.9368C-42.9381 -35.9726 -43.0889 -35.9286 -43.0869 -35.839ZM19.9203 -35.7846C19.8491 -35.6697 19.9869 -34.6191 20.2267 -33.4498C20.7485 -30.9033 20.7685 -29.6679 20.322 -27.5657C20.1371 -26.6953 20.0089 -25.4936 20.037 -24.8952C20.0765 -24.0541 19.8995 -23.2349 19.2566 -21.285C17.566 -16.1566 16.267 -9.88285 15.8433 -4.80191C15.7078 -3.17447 15.6547 -0.185455 15.7137 2.50249C15.8448 8.46173 16.359 11.5144 17.9625 15.8551L18.5106 17.3388L18.4562 22.0864C18.3996 27.0103 18.3801 27.1972 17.5445 30.7903C16.916 33.4923 16.6962 37.3551 17.0268 39.8899C17.1546 40.8691 17.6082 43.4061 18.0349 45.5277C19.6641 53.6291 20.5119 59.3187 20.3274 60.9128C20.2079 61.9442 18.9836 64.9425 18.1217 66.3146C17.877 66.7041 17.117 67.5293 16.4327 68.1485C14.8478 69.5829 14.4773 70.1558 14.4757 71.1739C14.473 72.8815 16.6031 73.8969 20.2111 73.908C22.8509 73.9163 24.0161 73.5463 25.1191 72.3496C25.6754 71.746 25.945 71.2461 26.0469 70.6295C26.1256 70.1514 26.4862 69.2262 26.8478 68.5734L27.5056 67.3865L27.3976 62.8367C27.3382 60.3343 27.305 57.5748 27.3236 56.7044C27.3604 54.982 27.9422 50.1278 28.4139 47.6048C29.548 41.5405 29.5536 41.4839 29.4594 36.9227C29.4092 34.4862 29.2141 31.3518 29.0161 29.8013L28.6626 27.0318L29.4612 24.2624C30.3197 21.2856 30.4172 20.6868 30.6869 16.7453C30.8202 14.7954 31.0594 13.4131 31.6759 11.0276C32.7412 6.90649 33.5894 2.64333 33.8923 -0.112659C34.0264 -1.33319 34.1554 -2.31239 34.1787 -2.28865C34.2021 -2.26471 34.3667 -1.19195 34.5445 0.095047C34.967 3.15587 36.0689 8.71454 36.8336 11.6452C37.2617 13.2851 37.5266 14.9727 37.7278 17.3388C38.0457 21.0807 38.1293 21.523 39.1244 24.7284L39.8217 26.9748L39.5093 29.3771C38.4848 37.2546 38.5446 40.0013 39.8905 46.9124C40.9935 52.5775 41.1971 55.014 41.1354 61.8148L41.0808 67.8081L41.6184 68.6221C41.9142 69.0697 42.261 69.865 42.3891 70.3894C42.8673 72.3458 43.5098 73.0037 45.5675 73.6441C48.5834 74.5827 53.4095 73.5547 54.005 71.8467C54.3529 70.8483 53.9757 70.1366 52.0173 68.0973C50.3626 66.3743 50.0828 65.9694 49.1978 64.0161C48.2327 61.8856 48.2156 61.8148 48.2331 59.9684C48.2518 57.9443 49.0884 52.3113 50.1865 46.8135C51.9465 38.0008 52.0217 35.4794 50.6913 29.8721C50.1568 27.6183 50.1018 27.0336 49.9889 22.3831L49.8662 17.3388L50.6464 15.0639C52.1255 10.7513 52.6541 7.07503 52.6509 1.12291C52.6469 -6.67643 51.5736 -13.3292 49.0714 -21.0623C48.3676 -23.2375 48.1023 -24.3712 48.0999 -25.2165C48.0979 -25.8558 47.9644 -27.002 47.8032 -27.7635C47.4149 -29.5965 47.4327 -30.5318 47.9055 -33.1046C48.3761 -35.6659 48.3883 -35.973 48.0208 -35.973C47.7148 -35.973 47.5181 -35.2185 46.9807 -31.9816C46.6723 -30.1243 46.6723 -29.88 46.9813 -28.268C47.1633 -27.319 47.312 -25.924 47.312 -25.168V-23.7936L46.3724 -23.4319C40.9937 -21.362 39.2794 -20.9656 35.0473 -20.8122C30.496 -20.6477 27.027 -21.287 22.6925 -23.0893L20.9034 -23.8333L20.8443 -25.1828C20.8118 -25.925 20.923 -27.1384 21.0915 -27.8793C21.4965 -29.6598 21.465 -30.8651 20.9422 -33.5827C20.5404 -35.6715 20.2445 -36.3093 19.9203 -35.7846ZM-28.9257 -34.6697C-29.0911 -34.2389 -29.0387 -27.6803 -28.865 -27.0712C-28.6261 -26.2336 -28.452 -28.1576 -28.452 -31.637C-28.452 -34.4866 -28.6094 -35.4942 -28.9257 -34.6697ZM83.8237 -32.577C83.7773 -32.432 83.694 -30.8 83.6386 -28.9505C83.5767 -26.8777 83.4178 -25.1031 83.2247 -24.3247C83.0524 -23.6304 82.5595 -21.3604 82.1294 -19.2804C81.6992 -17.2005 80.9514 -13.585 80.4678 -11.2458C79.2862 -5.53226 78.9628 -2.81662 78.9628 1.38838C78.9628 6.59137 79.4362 9.74873 81.0721 15.4595C82.2365 19.5241 82.4515 21.2914 82.1599 24.4034C81.9474 26.6706 81.7565 27.7028 80.394 33.9554C79.9782 35.8634 79.8749 36.8728 79.8678 39.0987C79.8595 41.6944 79.9107 42.079 80.6836 45.231C81.6511 49.1757 81.9237 50.5365 82.7047 55.3197C83.5114 60.2598 83.6121 61.888 83.2307 63.8258C83.0594 64.6962 82.9191 65.7015 82.9191 66.0598C82.9191 66.5577 82.712 66.9327 82.0392 67.6518C81.5554 68.1691 81.063 68.8458 80.9453 69.1554C80.5127 70.2931 81.3314 71.534 83.1169 72.4469C83.8097 72.801 84.4239 72.9195 85.8864 72.9812C87.6032 73.0534 87.8246 73.0202 88.4473 72.5966C89.6413 71.7842 89.9539 71.0038 89.8607 69.068C89.7397 66.5531 89.7658 64.7275 89.9383 63.6753C90.0607 62.9277 90.0002 62.4605 89.6451 61.4093C89.221 60.1533 89.2103 59.9826 89.4372 58.098C89.781 55.2449 90.7373 50.2666 91.6239 46.7146C92.9085 41.5676 93.0652 38.8468 92.3184 34.6478C91.8832 32.2016 91.935 31.4805 92.789 28.1016C93.2127 26.4253 93.6622 24.0299 93.7876 22.7788C94.0885 19.7796 94.4323 17.8891 95.4785 13.4813C96.7572 8.09399 97.2915 4.70934 97.7809 -1.10768C97.9206 -2.76677 98.0933 -4.12439 98.1647 -4.12439C98.2363 -4.12439 98.3566 -3.25657 98.4321 -2.19567C98.6147 0.368633 99.4359 6.4256 99.9156 8.74936C100.127 9.77444 100.701 12.2598 101.19 14.2726C102.262 18.6825 102.432 19.62 102.71 22.6502C102.84 24.0721 103.231 26.2053 103.703 28.0721C104.548 31.4148 104.628 32.4633 104.203 34.6822C103.443 38.6544 103.63 41.9575 104.89 46.8402C105.793 50.3381 107.021 56.8448 107.182 58.9793C107.274 60.2032 107.22 60.6461 106.876 61.5088C106.399 62.7054 106.362 63.3554 106.696 64.6076C106.881 65.2976 106.88 65.9885 106.694 67.726C106.427 70.2027 106.572 71.1911 107.319 72.0046C108.145 72.9038 108.765 73.0821 110.701 72.9778C112.824 72.8637 114.008 72.3871 115.059 71.2244C116.093 70.0796 115.99 69.2802 114.623 67.8496C113.987 67.1838 113.902 66.946 113.563 64.8824C113.139 62.3054 113.099 60.8311 113.394 58.6474C113.801 55.6303 115.36 47.3368 116.04 44.5644C117.228 39.7285 117.193 38.2394 115.744 31.9533C114.593 26.9632 114.33 24.9259 114.419 21.6908C114.49 19.0893 114.551 18.7292 115.419 15.7562C117.238 9.53152 117.629 6.65625 117.482 0.566254C117.349 -4.92337 117.107 -6.3528 113.639 -22.1258C112.86 -25.67 112.731 -26.5923 112.62 -29.445C112.514 -32.1579 112.443 -32.709 112.196 -32.709C111.942 -32.709 111.908 -32.2512 111.957 -29.5455C112.007 -26.813 112.106 -25.9642 112.689 -23.3142C113.059 -21.6271 113.719 -18.5106 114.155 -16.3891C114.591 -14.2675 115.214 -11.2854 115.538 -9.76218C116.563 -4.95285 116.818 -2.63087 116.821 1.90903C116.824 7.36602 116.486 9.45952 114.456 16.5475C113.747 19.0236 113.719 19.2368 113.71 22.2842C113.7 25.7426 113.844 26.758 115.187 32.6696C115.746 35.1336 116.005 36.7872 116.083 38.4063C116.199 40.8003 116.163 41.046 114.876 46.6157C114.045 50.2156 112.764 58.1435 112.646 60.4257C112.563 62.0116 112.631 63.18 112.909 64.9461C113.27 67.2403 113.315 67.364 114.125 68.3129C115.132 69.4931 115.207 70.1475 114.422 70.8996C113.471 71.8097 112.075 72.2983 110.379 72.3145C109.131 72.3266 108.759 72.255 108.302 71.9159C107.306 71.1767 107.222 70.8123 107.363 67.8445C107.455 65.9177 107.419 64.8537 107.239 64.153C107.009 63.2549 107.027 63.0591 107.442 61.9218C107.827 60.8651 107.878 60.4406 107.778 59.1364C107.607 56.9192 106.321 49.5598 105.658 47.0062C104.438 42.3037 104.185 38.957 104.79 35.5144C105.255 32.8658 105.193 30.7253 104.592 28.6634C103.848 26.1126 103.712 25.403 103.396 22.4209C103.046 19.1274 102.985 18.8022 101.729 13.5541C100.62 8.91592 99.8986 4.81339 99.4268 0.451321C99.2545 -1.14051 99.0412 -3.02156 98.9526 -3.72876C98.8642 -4.43595 98.825 -5.05117 98.8658 -5.09587C98.9065 -5.14038 99.1004 -5.03178 99.2964 -4.85434C99.8857 -4.32102 102.138 -3.38396 103.385 -3.15351C105.592 -2.74561 108.322 -2.96855 109.692 -3.66842C110.524 -4.09314 110.204 -4.19145 108.898 -3.91272C107.249 -3.56061 104.183 -3.61481 102.787 -4.02074C100.398 -4.71527 98.9202 -5.78922 98.5427 -7.1053C98.4339 -7.48511 98.3489 -10.6158 98.3489 -14.2495C98.3489 -20.2643 98.23 -21.7188 97.8381 -20.4967C97.7592 -20.2503 97.6822 -16.8994 97.667 -13.0501L97.6397 -6.05173L97.0547 -5.58112C96.3648 -5.02624 94.822 -4.41854 93.0177 -3.99126C92.0233 -3.75566 91.0826 -3.71036 88.9719 -3.79581C85.9418 -3.91886 85.6486 -3.72797 88.0752 -3.21246C89.0928 -2.99624 90.0156 -2.93748 91.0704 -3.02156C92.7868 -3.15845 95.7325 -3.94754 96.745 -4.54159L97.4158 -4.93544L97.2812 -3.19465C96.8312 2.63265 96.1489 7.34011 95.0651 12.0966C93.773 17.7673 93.438 19.5045 93.2153 21.6908C92.9178 24.6131 92.6877 25.8594 91.9926 28.3176C91.3083 30.7375 91.2223 32.9758 91.716 35.5059C92.3358 38.6809 92.0561 42.3059 90.8197 47.1237C90.2043 49.5219 88.9775 56.4902 88.7448 58.9079C88.6317 60.0843 88.6825 60.5411 89.0485 61.6411C89.3656 62.5938 89.4449 63.1376 89.3331 63.5918C89.2479 63.938 89.1719 65.6902 89.1642 67.4854C89.1494 70.9862 89.0611 71.3648 88.1166 71.9838C87.3308 72.4987 84.9119 72.4206 83.5539 71.8364C82.3739 71.3286 81.5344 70.4559 81.5344 69.7366C81.5344 69.4292 81.8735 68.8864 82.4515 68.2684C83.3134 67.347 83.3854 67.1842 83.6505 65.5569C84.181 62.3014 84.1766 60.9108 83.6249 57.1C82.896 52.066 82.2357 48.5175 81.3063 44.6376C80.5137 41.3283 80.5024 41.2305 80.6047 38.5052C80.6684 36.806 80.8636 35.0478 81.1097 33.9554C82.8058 26.4293 82.8 26.4674 82.8054 22.5809C82.8099 19.2135 82.769 18.7791 82.2936 17.141C80.1315 9.69136 79.6876 7.05643 79.6773 1.61231C79.6672 -3.77959 79.8294 -4.87887 82.5245 -17.6749C83.1889 -20.8301 83.8564 -24.04 84.0077 -24.8084C84.3824 -26.7104 84.4928 -32.6393 84.1557 -32.7557C84.0196 -32.8025 83.8702 -32.722 83.8237 -32.577ZM33.9956 -29.3164C33.9214 -29.242 33.8604 -28.521 33.8604 -27.7141C33.8604 -26.6287 33.9247 -26.2682 34.1077 -26.3286C34.2652 -26.3806 34.3766 -26.9009 34.4141 -27.7598C34.4695 -29.0242 34.3073 -29.628 33.9956 -29.3164ZM42.5994 -26.3345C42.002 -25.4034 41.5747 -24.4938 41.2738 -23.5121C41.136 -23.0622 41.1526 -23.0438 41.4634 -23.3018C42.0127 -23.7577 43.5141 -26.9786 43.2843 -27.2085C43.2427 -27.25 42.9345 -26.8568 42.5994 -26.3345ZM25.2601 -25.9533C25.8765 -24.5597 26.4079 -23.6925 26.9408 -23.2102C27.3511 -22.8389 27.3521 -22.8397 27.1525 -23.3649C26.6225 -24.7589 25.239 -27.0712 24.9349 -27.0712C24.842 -27.0712 24.9883 -26.5681 25.2601 -25.9533ZM-35.7712 -24.9443C-35.7712 -24.8626 -35.3503 -24.5731 -34.8357 -24.3013C-34.3212 -24.0295 -33.2308 -23.1619 -32.4125 -22.373C-31.5941 -21.5843 -30.9002 -20.9391 -30.8701 -20.9389C-30.6766 -20.9387 -31.5892 -22.319 -32.2726 -23.0604C-33.4437 -24.3308 -35.7712 -25.5842 -35.7712 -24.9443ZM-23.1228 -24.7031C-24.2088 -24.1291 -25.8546 -22.5564 -26.3142 -21.6536C-26.7276 -20.8417 -26.7254 -20.8429 -25.3106 -22.1762C-24.5306 -22.9111 -23.4053 -23.7876 -22.8094 -24.1239C-22.2136 -24.46 -21.7262 -24.8157 -21.7262 -24.914C-21.7262 -25.2012 -22.3624 -25.1053 -23.1228 -24.7031ZM20.3966 -22.591C19.0135 -18.972 16.4527 -7.44792 16.6846 -5.88674C16.7431 -5.49348 17.1336 -5.36055 20.7887 -4.48916C25.5005 -3.36576 26.2427 -3.14361 30.1907 -1.676C31.8172 -1.07128 33.1774 -0.605812 33.2132 -0.641815C33.249 -0.67762 33.3697 -1.76522 33.4812 -3.05855C33.8268 -7.06395 33.9524 -7.98183 34.1554 -7.98183C34.3803 -7.98183 34.5219 -7.04457 34.8428 -3.43203C34.9686 -2.01764 35.1328 -0.807388 35.2078 -0.742504C35.2827 -0.677818 37.0354 -1.23923 39.1026 -1.99034C41.3609 -2.81089 44.4799 -3.74992 46.9164 -4.34258C49.1468 -4.88519 51.1376 -5.37894 51.3406 -5.43967C51.6614 -5.53581 51.6929 -5.68299 51.5825 -6.56823C51.262 -9.1349 50.578 -12.7567 49.8745 -15.6106C49.1264 -18.6458 47.7735 -23.1148 47.6028 -23.1148C47.5561 -23.1148 46.6481 -22.7689 45.5851 -22.3459C42.966 -21.3038 41.3013 -20.8077 39.2484 -20.4576C32.9578 -19.3844 27.7378 -20.1205 20.8567 -23.0509C20.7157 -23.1111 20.521 -22.9162 20.3966 -22.591ZM25.9808 -6.31166C26.067 -6.06775 30.3227 -3.09238 30.4309 -3.20039C30.624 -3.39365 29.4204 -4.52814 28.0157 -5.47707C26.6057 -6.42975 25.8259 -6.74943 25.9808 -6.31166ZM40.8584 -5.91305C39.7829 -5.29626 37.6496 -3.44113 37.8178 -3.26883C37.9394 -3.144 42.2408 -6.03787 42.3335 -6.30691C42.4532 -6.65408 41.8869 -6.50294 40.8584 -5.91305ZM16.376 -1.4044C16.2296 2.19706 16.4652 6.53143 16.9702 9.525C17.3097 11.5378 18.0734 14.3721 18.5077 15.2308C19.1424 16.4866 19.2554 17.7619 19.161 22.6159C19.073 27.1521 19.0319 27.5784 18.4436 30.0624C17.6412 33.4496 17.3949 36.2248 17.6539 38.9576C17.7635 40.1154 18.3779 43.7363 19.019 47.0042C20.8989 56.5865 21.3283 60.4352 20.7323 62.3602C20.5837 62.8399 20.0779 64.0292 19.6083 65.0028C18.9146 66.4414 18.4089 67.1347 16.9111 68.6998C14.9204 70.7801 14.7232 71.2469 15.5184 71.9941C16.3861 72.8091 17.5658 73.0957 20.1122 73.11C22.2636 73.122 22.5785 73.0769 23.4748 72.6287C24.5128 72.1094 25.3543 71.0942 25.3543 70.3609C25.3543 70.1251 25.7001 69.2517 26.1228 68.4203L26.8915 66.9082L26.8162 63.2899C26.7746 61.2999 26.6842 59.0847 26.6152 58.3673C26.4296 56.4383 27.264 49.0481 28.0405 45.743C29.0907 41.2723 29.151 35.1089 28.2021 29.2211L28.0767 28.443L27.6227 29.5589C27.0911 30.8659 26.5412 31.7326 26.5412 31.2635C26.5412 31.0948 27.0704 29.3613 27.717 27.4116C29.4376 22.2247 29.6883 21.104 29.9021 17.6355C30.0639 15.0105 30.2349 13.9858 31.0902 10.5141C32.1191 6.33737 33.0706 1.5949 33.0674 0.659428C33.0656 0.157364 32.9117 0.0717049 30.2161 -0.925491C26.1205 -2.44057 24.7225 -2.86094 20.5141 -3.8425C18.4505 -4.32399 16.7055 -4.71784 16.6363 -4.71784C16.5673 -4.71784 16.45 -3.2267 16.376 -1.4044ZM47.6087 -3.82806C45.6504 -3.35785 42.7573 -2.51238 41.1797 -1.94919C39.6021 -1.38601 37.6233 -0.692066 36.7824 -0.407211L35.2535 0.111076L35.3706 0.911045C35.7288 3.35705 36.5599 7.50489 37.3539 10.8108C38.066 13.7749 38.2904 15.1337 38.4158 17.2399C38.6286 20.8156 38.8927 21.9149 41.0695 28.2852C41.5652 29.7362 41.9709 31.0238 41.9709 31.1466C41.9709 31.6133 41.3743 30.7508 40.9132 29.6175C40.3277 28.1782 40.3101 28.2231 39.8765 32.274C39.3623 37.0764 39.5524 41.6833 40.4482 46.1212C41.7589 52.6161 41.9419 54.9782 41.766 63.1374L41.6742 67.3946L42.3072 68.3813C42.6552 68.9242 43.003 69.7607 43.0795 70.2404C43.2744 71.459 44.2815 72.5359 45.5896 72.9242C47.8083 73.5832 51.865 73.0955 53.0056 72.0329C53.7996 71.2932 53.5905 70.7508 51.7959 68.8941C49.7885 66.8174 49.5677 66.4973 48.5047 64.1227C47.8331 62.6223 47.6434 61.9444 47.5638 60.7598C47.4394 58.9075 48.1678 53.5664 49.4113 47.2092C50.6262 40.9983 50.8702 39.2538 50.8715 36.7628C50.8729 34.283 50.6361 32.5254 49.9473 29.9002C49.522 28.2787 49.4285 27.3289 49.2653 22.9774C49.0665 17.6735 49.1183 17.0438 49.9216 14.9798C51.4614 11.0239 52.2557 4.57561 51.9657 -1.6131C51.8391 -4.3141 51.7779 -4.71566 51.4949 -4.70043C51.3158 -4.69074 49.5671 -4.29827 47.6087 -3.82806ZM110.557 2.60139C110.487 3.19979 110.378 4.66858 110.315 5.86538C110.179 8.44472 109.637 11.9938 108.941 14.8684C108.334 17.3732 108.307 18.0851 108.867 16.8442C110.341 13.5765 111.398 5.80801 110.832 2.40358L110.684 1.5134L110.557 2.60139ZM85.5788 3.32719C85.3719 5.26006 85.6229 9.49255 86.0806 11.7884C86.5362 14.074 87.5836 17.5609 87.8671 17.736C88.1373 17.903 88.1292 17.8468 87.4865 15.0639C86.6731 11.5421 86.2968 8.89396 86.1008 5.3101C86.0069 3.59048 85.8834 2.13692 85.8266 2.08014C85.7699 2.02337 85.6583 2.58458 85.5788 3.32719ZM27.8442 5.28914C27.9738 7.53931 28.4832 10.8345 28.8201 11.6021C29.2169 12.5063 29.1829 11.8681 28.6074 7.61922C28.0591 3.57149 27.6785 2.40932 27.8442 5.28914ZM40.3047 4.33229C40.063 5.47528 39.2124 12.1736 39.2982 12.2592C39.6302 12.5912 40.3534 8.92067 40.5156 6.0806C40.6406 3.89275 40.5524 3.16161 40.3047 4.33229ZM-41.0231 23.0794C-41.1975 23.68 -41.299 24.2808 -41.2484 24.4147C-41.1425 24.6946 -40.6294 23.5803 -40.4266 22.6304C-40.1924 21.5321 -40.6798 21.8991 -41.0231 23.0794ZM-35.2931 22.9938C-35.1473 24.0926 -34.4334 25.9353 -34.4031 25.2904C-34.394 25.0944 -34.5269 24.3164 -34.6986 23.5617C-35.0878 21.8504 -35.4964 21.4599 -35.2931 22.9938ZM-22.2989 22.4326C-22.6249 23.2998 -23.0694 25.5482 -22.9151 25.5482C-22.668 25.5482 -22.1537 24.1031 -22.0069 22.9962C-21.8674 21.9446 -22.0112 21.667 -22.2989 22.4326ZM-16.9786 22.4385C-16.9786 23.0798 -16.4116 24.5591 -16.1657 24.5591C-15.9418 24.5591 -15.9347 24.6202 -16.3042 23.3587C-16.6761 22.089 -16.9786 21.6761 -16.9786 22.4385ZM47.7076 22.6723C47.7076 23.1718 46.9207 25.0908 46.4034 25.8532C46.1308 26.255 45.957 26.6328 46.0173 26.6932C46.1981 26.8742 47.1261 25.8971 47.5401 25.0897C48.0068 24.1791 48.2677 22.3831 47.933 22.3831C47.8091 22.3831 47.7076 22.5133 47.7076 22.6723ZM20.4714 23.5071C20.6033 24.6992 21.2031 25.9828 21.8349 26.4253C22.5775 26.9454 22.5847 26.7828 21.8713 25.598C21.4947 24.9727 21.0856 24.1047 20.9622 23.6693C20.6085 22.4217 20.3414 22.3333 20.4714 23.5071ZM24.89 24.3935C24.4285 25.1088 23.9223 26.4953 24.0194 26.7778C24.1365 27.1189 24.907 25.8538 25.1719 24.8853C25.4218 23.9722 25.2993 23.7587 24.89 24.3935ZM43.1579 24.2272C43.1579 24.7809 43.7926 26.3155 44.1588 26.6469C44.6506 27.092 44.6444 27.0326 44.0251 25.3616C43.5527 24.0871 43.1579 23.5706 43.1579 24.2272ZM106.472 25.3745C106.458 26.1494 107.294 29.6679 107.627 30.2412C107.808 30.5508 107.833 30.5338 107.838 30.098C107.844 29.5554 107.001 25.9417 106.683 25.1526C106.495 24.6833 106.484 24.6946 106.472 25.3745ZM89.4924 25.8449C89.0481 27.3827 88.461 30.0042 88.4734 30.3947C88.4958 31.098 89.2245 29.1714 89.5573 27.5293C89.9214 25.7318 89.875 24.5211 89.4924 25.8449ZM111.682 25.5804C111.603 25.707 111.508 26.7086 111.469 27.8059C111.383 30.2616 111.685 29.7989 111.878 27.1802C112.009 25.3971 111.974 25.1081 111.682 25.5804ZM84.7054 26.7569C84.6977 28.4688 84.9005 29.9002 85.1511 29.9002C85.4102 29.9002 85.2071 26.3011 84.9198 25.8075C84.7584 25.53 84.7102 25.7442 84.7054 26.7569Z" fill="#072723"/>
</g>
<rect x="0.566667" y="0.566667" width="66.8667" height="66.8667" rx="10.7667" stroke="#072723" stroke-width="1.13333"/>
<defs>
<clipPath id="clip0_344_4006">
<rect width="68" height="68" rx="11.3333" fill="white"/>
</clipPath>
</defs>
</svg>
