<svg width="68" height="68" viewBox="0 0 68 68" fill="none" xmlns="http://www.w3.org/2000/svg">
<g clip-path="url(#clip0_344_3976)">
<path fill-rule="evenodd" clip-rule="evenodd" d="M-65.5494 -115.722C-68.022 -115.059 -69.8676 -113.657 -70.8742 -111.677C-71.4928 -110.46 -72.0026 -108.045 -72.0026 -106.332C-72.0026 -105.022 -72.0028 -105.021 -72.581 -105.021C-73.4895 -105.021 -73.6608 -104.635 -73.581 -102.768C-73.5217 -101.383 -73.4007 -100.885 -72.8549 -99.7801C-72.4948 -99.0512 -71.9673 -98.3026 -71.6827 -98.1168C-70.9152 -97.6158 -70.6377 -96.729 -70.4852 -94.2924C-70.2291 -90.1997 -70.5941 -89.6981 -75.5916 -87.2754C-78.6217 -85.8065 -79.4681 -85.4878 -81.4178 -85.0826C-82.6722 -84.8218 -84.2548 -84.3477 -84.9347 -84.0288C-87.2668 -82.9345 -88.945 -80.9629 -90.0421 -78.0279C-90.4963 -76.8129 -90.5447 -76.4036 -90.524 -73.9492C-90.5013 -71.2723 -90.516 -71.1767 -91.2997 -68.8508C-92.3903 -65.6154 -92.7016 -63.7998 -92.7016 -60.6755C-92.7016 -58.415 -92.7892 -57.6819 -93.3149 -55.5398C-94.5406 -50.5457 -94.5647 -46.6338 -93.4096 -40.2211C-92.8501 -37.1167 -92.7442 -33.7872 -93.1236 -31.2439C-93.6284 -27.8617 -92.148 -24.9387 -89.1136 -23.3269C-87.6058 -22.5258 -86.3617 -22.3331 -85.515 -22.7694C-84.8129 -23.1313 -84.5157 -23.7779 -84.8609 -24.1926C-85.0376 -24.4047 -85.0191 -24.581 -84.7823 -24.9411C-84.5504 -25.2939 -84.4588 -26.0915 -84.4172 -28.119L-84.3617 -30.8258L-85.1535 -32.3185C-85.8822 -33.6925 -85.9519 -33.9633 -86.0293 -35.7224C-86.1171 -37.7203 -85.9921 -38.3498 -84.5657 -43.0926C-83.7992 -45.6413 -83.6258 -46.9317 -83.5474 -50.6739L-83.8599 -54.1518L-82.9606 -55.9445C-82.2203 -57.4222 -81.459 -58.4835 -81.1441 -59.8515C-81.0197 -60.3915 -80.9492 -60.2695 -80.4498 -58.6496C-80.1442 -57.6581 -79.652 -56.2265 -79.3564 -55.4681L-78.8186 -54.0894L-78.8821 -48.1568C-78.9446 -42.3146 -78.9569 -42.1647 -79.6761 -38.3182C-80.0778 -36.1699 -80.5642 -33.0601 -80.7565 -31.4075C-81.1644 -27.9037 -81.2599 -23.2708 -80.9263 -23.157C-80.7798 -23.1071 -80.6628 -23.8701 -80.576 -25.4419C-80.3905 -28.7985 -79.7625 -33.7874 -78.9593 -38.2839C-78.5789 -40.4134 -78.2362 -42.187 -78.198 -42.2252C-78.1597 -42.2635 -77.6299 -42.1271 -77.021 -41.9222C-75.7168 -41.4833 -72.5605 -40.8281 -70.2945 -40.5258C-67.566 -40.1618 -60.6461 -40.0371 -58.1136 -40.3063C-55.2121 -40.6147 -51.2291 -41.4004 -49.88 -41.9304C-49.3079 -42.1551 -48.8224 -42.3132 -48.8009 -42.2817C-48.7569 -42.2166 -48.118 -38.6048 -47.285 -33.7111C-46.9755 -31.8933 -46.575 -28.9638 -46.395 -27.201C-45.9538 -22.8838 -45.9179 -22.6941 -45.5413 -22.6941C-45.2654 -22.6941 -45.2412 -22.9146 -45.3604 -24.3466C-45.6761 -28.1397 -46.1371 -31.4895 -46.9942 -36.215C-47.4938 -38.9692 -47.952 -41.7185 -48.0127 -42.3244C-48.0734 -42.9303 -48.029 -45.8324 -47.9142 -48.7738L-47.7054 -54.1212L-46.7967 -56.2016C-46.2969 -57.3458 -45.7796 -58.7704 -45.6474 -59.3671L-45.407 -60.4524L-45.2366 -59.6511C-45.0017 -58.547 -44.1203 -55.8899 -43.5092 -54.4431C-43.0429 -53.3398 -43.0051 -53.0279 -43.0465 -50.6372C-43.0968 -47.7554 -42.7724 -45.3062 -41.9589 -42.4245C-40.0695 -35.7312 -40.0472 -35.3568 -41.3848 -32.8091L-42.3179 -31.0317L-42.1798 -28.1208C-42.0727 -25.86 -41.9692 -25.13 -41.7162 -24.8516C-41.4336 -24.5403 -41.427 -24.4253 -41.6655 -23.9811C-42.171 -23.0398 -41.1481 -22.1933 -39.7514 -22.3968C-37.4862 -22.7269 -35.3427 -24.4027 -34.1353 -26.7874C-33.486 -28.07 -33.4505 -28.6142 -33.6086 -34.8128C-33.6679 -37.1358 -33.5865 -38.2016 -33.135 -41.0224C-32.4844 -45.0853 -32.2447 -49.9926 -32.596 -52.0514C-32.7266 -52.816 -33.0461 -54.1627 -33.306 -55.044C-33.6992 -56.3771 -33.7975 -57.2697 -33.89 -60.3522C-34.0135 -64.4684 -34.2889 -65.9521 -35.5147 -69.1082C-36.19 -70.8464 -36.2318 -71.0904 -36.235 -73.3147C-36.2392 -76.1408 -36.5949 -77.9708 -37.5151 -79.9024C-38.9142 -82.8388 -40.72 -84.023 -45.1042 -84.8797C-47.5045 -85.3488 -47.8302 -85.4732 -50.9321 -87.1063C-52.7391 -88.0578 -54.6103 -89.0612 -55.0901 -89.3362C-56.2925 -90.0253 -56.7201 -91.0114 -56.723 -93.1028C-56.725 -94.539 -56.647 -94.8715 -55.9712 -96.3078C-55.5564 -97.1891 -54.9824 -98.1412 -54.6957 -98.4236C-53.9453 -99.1622 -53.2897 -101.066 -53.1822 -102.818C-53.0773 -104.529 -53.3323 -105.238 -54.1187 -105.422C-54.6002 -105.534 -54.6241 -105.615 -54.7415 -107.533C-54.8886 -109.942 -54.9971 -110.395 -55.7865 -111.897C-56.5105 -113.274 -57.5817 -114.247 -59.2416 -115.033C-61.3133 -116.014 -63.5476 -116.258 -65.5494 -115.722ZM-61.5123 -115.014C-59.8441 -114.664 -58.4793 -113.923 -57.3915 -112.777C-55.9259 -111.232 -55.4969 -109.958 -55.3707 -106.774C-55.315 -105.369 -55.2021 -104.22 -55.1199 -104.22C-55.0375 -104.22 -54.8576 -104.355 -54.72 -104.52C-54.357 -104.956 -54.1969 -104.895 -53.9135 -104.214C-53.5998 -103.459 -53.7716 -101.799 -54.3094 -100.388C-54.7939 -99.1171 -55.2256 -98.6235 -55.7362 -98.7565C-56.0057 -98.8268 -56.1267 -98.7565 -56.1267 -98.5296C-56.1267 -97.1843 -58.151 -93.7101 -59.6465 -92.4887C-60.6256 -91.689 -62.25 -90.9996 -63.1549 -90.9996C-64.2747 -90.9996 -65.9461 -91.7962 -67.1363 -92.8973C-68.352 -94.022 -69.9713 -96.4896 -70.5692 -98.1288C-70.8525 -98.9054 -71.0145 -99.1029 -71.3403 -99.0686C-72.3069 -98.9671 -73.551 -103.721 -72.7347 -104.397C-72.4544 -104.628 -72.3838 -104.593 -72.207 -104.129C-72.0945 -103.834 -72.0026 -103.509 -72.0026 -103.406C-72.0026 -103.303 -71.867 -103.218 -71.7012 -103.218C-71.4586 -103.218 -71.3997 -103.529 -71.3997 -104.806C-71.3997 -108.12 -70.7675 -110.782 -69.5983 -112.391C-67.9563 -114.65 -64.7461 -115.692 -61.5123 -115.014ZM-69.199 -94.2199C-67.15 -91.0372 -63.5848 -89.6569 -60.8493 -90.9875C-60.2966 -91.2564 -59.2792 -92.0368 -58.5885 -92.7216L-57.3325 -93.9671V-92.577C-57.3325 -90.0026 -56.7145 -89.3067 -52.547 -87.1867C-51.0341 -86.4173 -49.299 -85.5165 -48.6911 -85.185C-48.0692 -84.8461 -47.0147 -84.4921 -46.2796 -84.3757C-42.0996 -83.7143 -40.207 -82.8085 -38.7966 -80.7942C-37.5054 -78.95 -36.9952 -76.9873 -36.8931 -73.4725C-36.8105 -70.6307 -36.7689 -70.3753 -36.1259 -68.7598C-34.8606 -65.5813 -34.4442 -63.0708 -34.4297 -58.5344C-34.4243 -56.8334 -34.3272 -56.1361 -33.9376 -54.9935C-32.7969 -51.651 -32.7378 -47.251 -33.7555 -41.423C-34.2828 -38.4031 -34.312 -37.9268 -34.2605 -33.1731C-34.1994 -27.5331 -34.2039 -27.5079 -35.5933 -25.7628C-36.5873 -24.5147 -37.8831 -23.5893 -39.086 -23.2686C-39.9761 -23.0312 -41.0546 -23.1476 -41.0546 -23.4807C-41.0546 -23.5786 -40.6418 -24.0822 -40.1372 -24.5996C-39.0255 -25.7398 -38.8382 -26.1911 -38.8642 -27.6647C-38.8879 -29.019 -39.0661 -29.7454 -39.4023 -29.8569C-39.5846 -29.9176 -39.6479 -29.4353 -39.6479 -27.9846C-39.6479 -25.7991 -39.8768 -25.2981 -40.8754 -25.2981C-41.429 -25.2981 -41.4372 -25.3157 -41.4111 -26.4499C-41.3965 -27.0834 -41.4543 -28.3678 -41.5393 -29.3043L-41.6943 -31.0069L-40.8219 -32.4091L-39.9493 -33.8112L-39.9554 -36.0146C-39.9608 -38.0123 -40.0384 -38.4706 -40.7859 -40.9224C-42.0321 -45.0087 -42.3295 -46.6703 -42.3462 -49.6357C-42.3542 -51.0679 -42.2966 -52.8707 -42.218 -53.6419C-42.1067 -54.7341 -42.1245 -54.9445 -42.299 -54.5933C-42.422 -54.3454 -42.5874 -54.1426 -42.6661 -54.1426C-42.7449 -54.1426 -42.9975 -54.6608 -43.2276 -55.2944C-44.4559 -58.6772 -45.1753 -62.265 -45.4169 -66.2107C-45.5342 -68.129 -45.5248 -68.1861 -44.8739 -69.4645C-44.4543 -70.2884 -44.1816 -71.1517 -44.1303 -71.8185C-44.0524 -72.8319 -44.0608 -72.8527 -44.3534 -72.3708C-44.5208 -72.0954 -44.6609 -71.7348 -44.6649 -71.5696C-44.6814 -70.8949 -45.9124 -68.72 -46.7515 -67.8839C-48.5663 -66.0749 -50.0888 -65.6604 -54.9209 -65.6604C-58.9209 -65.6604 -59.9086 -65.878 -61.2998 -67.0648C-62.4427 -68.0399 -62.746 -68.9581 -62.8953 -71.8941C-62.965 -73.2662 -63.0984 -74.436 -63.1917 -74.4935C-63.2849 -74.5508 -63.3655 -74.4348 -63.3707 -74.2355C-63.376 -74.0362 -63.4535 -72.7179 -63.543 -71.3059C-63.6939 -68.9269 -63.7483 -68.6789 -64.2871 -67.9215C-65.5506 -66.1456 -67.5318 -65.5783 -72.5131 -65.5665C-78.4032 -65.5525 -81.4661 -67.4404 -82.2514 -71.569C-82.4799 -72.7692 -82.5336 -72.869 -82.8473 -72.6757C-83.2934 -72.4008 -82.4339 -69.4383 -81.5318 -68.1407C-81.2434 -67.726 -81.0666 -67.2914 -81.1387 -67.175C-81.2109 -67.0588 -81.3547 -65.6272 -81.4584 -63.9936C-81.5627 -62.3515 -81.8208 -60.3468 -82.0358 -59.5091C-82.4626 -57.8456 -83.6399 -55.3056 -84.3187 -54.5835C-84.7194 -54.1573 -84.6269 -54.1839 -84.7592 -54.5174C-84.8789 -54.8201 -84.7592 -55.0482 -84.9052 -54.5174C-84.9528 -54.3442 -84.6019 -53.8918 -84.3095 -53.2555C-83.8025 -52.1513 -84.0076 -51.7702 -84.1228 -49.5543C-84.2737 -46.6463 -84.6399 -44.7311 -85.677 -41.423C-87.0773 -36.9561 -87.136 -34.4893 -85.8882 -32.5285C-85.011 -31.1501 -84.8517 -30.299 -84.9966 -27.7675C-85.1105 -25.7762 -85.1678 -25.5184 -85.516 -25.4275C-86.4797 -25.1765 -86.6655 -25.5517 -86.8195 -28.059C-86.9304 -29.8671 -87.1428 -30.4436 -87.4909 -29.8822C-87.6824 -29.5733 -87.5542 -27.6806 -87.2461 -26.2656C-87.0801 -25.5034 -86.8962 -25.2336 -86.2546 -24.8103C-84.9915 -23.9772 -85.3448 -22.925 -86.8084 -23.1618C-88.6404 -23.4581 -91.0067 -25.1997 -91.9365 -26.9364C-92.3897 -27.7825 -92.3988 -27.9109 -92.3385 -32.6747C-92.2786 -37.3962 -92.2971 -37.6668 -92.9301 -41.3881C-93.4819 -44.6331 -93.584 -45.7415 -93.5882 -48.534C-93.5931 -51.6372 -93.5523 -51.9981 -92.9217 -54.4431C-92.3545 -56.6419 -92.2251 -57.5769 -92.0911 -60.4524C-91.9128 -64.2705 -91.8345 -64.7001 -90.5827 -68.7232C-89.7039 -71.5475 -89.6936 -71.6126 -89.8184 -73.646C-90.0174 -76.887 -89.2543 -79.2232 -87.2763 -81.4294C-85.9017 -82.9623 -84.1019 -83.8429 -81.0459 -84.4773C-79.033 -84.8949 -78.2895 -85.1778 -75.2855 -86.6673C-73.3882 -87.6079 -71.5177 -88.6563 -71.1284 -88.9969C-70.0617 -89.9305 -69.7384 -90.9918 -69.8222 -93.2843C-69.861 -94.3415 -69.8793 -95.2063 -69.8632 -95.2063C-69.8471 -95.2061 -69.5483 -94.7622 -69.199 -94.2199ZM-74.299 -84.2101C-74.6583 -84.0697 -74.6607 -84.049 -74.3328 -83.9236C-74.1384 -83.8493 -73.512 -83.7876 -72.9407 -83.7868C-71.3194 -83.7842 -68.3793 -83.41 -67.3586 -83.0763C-66.8492 -82.9097 -66.0536 -82.4502 -65.5906 -82.0553C-64.7095 -81.3036 -64.3818 -81.2663 -64.7544 -81.9604C-65.0727 -82.5529 -66.1663 -83.3315 -67.1934 -83.6963C-67.692 -83.8736 -69.3216 -84.0937 -70.8973 -84.1969C-74.1123 -84.407 -73.7974 -84.4058 -74.299 -84.2101ZM-58.2368 -84.0644C-60.1497 -83.7205 -61.3559 -83.1781 -62.0587 -82.3456C-62.342 -82.0097 -62.5378 -81.6988 -62.4933 -81.6547C-62.4491 -81.6105 -61.9481 -81.8861 -61.38 -82.2671C-60.1821 -83.0707 -58.5764 -83.4639 -55.1219 -83.7994C-53.8508 -83.923 -52.7248 -84.1063 -52.6199 -84.2067C-52.3193 -84.4943 -56.4243 -84.3902 -58.2368 -84.0644ZM-62.8985 -68.4147C-62.7204 -67.5313 -61.9053 -66.4985 -60.9877 -65.9935C-59.3041 -65.0669 -55.2049 -64.7114 -51.4994 -65.1703C-49.6592 -65.398 -48.0322 -66.0252 -46.8626 -66.9572L-46.1393 -67.5337L-46.0172 -64.9898C-45.8379 -61.2536 -46.1311 -59.5177 -47.5225 -56.0776C-48.2498 -54.2796 -48.3401 -53.8542 -48.5002 -51.4657C-48.5973 -50.0185 -48.7068 -47.495 -48.7438 -45.858L-48.8109 -42.8817L-50.3085 -42.4045C-54.8253 -40.9655 -61.631 -40.39 -67.7824 -40.9272C-72.1127 -41.3052 -76.7515 -42.2238 -77.8305 -42.9167C-78.0831 -43.0792 -78.1484 -44.0599 -78.2344 -48.9771L-78.3367 -54.8437L-78.9121 -56.1457C-80.1496 -58.9457 -80.48 -60.4295 -80.6291 -63.8576C-80.7056 -65.6204 -80.7448 -67.0956 -80.7163 -67.1361C-80.6876 -67.1764 -80.2079 -66.9296 -79.6502 -66.5877C-77.9675 -65.5557 -76.3886 -65.131 -73.8113 -65.0176C-70.7587 -64.8834 -67.2754 -65.2215 -65.977 -65.7784C-64.8173 -66.2756 -63.6024 -67.5129 -63.43 -68.3724C-63.2809 -69.1158 -63.0438 -69.1346 -62.8985 -68.4147ZM-63.2562 -62.9562C-63.3641 -62.791 -63.5265 -60.0417 -63.6171 -56.8468C-63.7895 -50.761 -63.758 -48.2617 -63.5054 -48.01C-63.0297 -47.5358 -62.9572 -48.663 -63.0072 -55.7575C-63.0422 -60.7278 -63.126 -63.1554 -63.2562 -62.9562ZM-68.1844 -60.9584C-69.6624 -60.7675 -72.3481 -59.9602 -72.6296 -59.6221C-72.951 -59.2361 -72.5024 -59.2668 -70.753 -59.7499C-69.958 -59.9694 -68.7157 -60.207 -67.9924 -60.2777C-66.4613 -60.4273 -65.7634 -60.6974 -66.1979 -60.9716C-66.5043 -61.1651 -66.5861 -61.1645 -68.1844 -60.9584ZM-60.4976 -60.5025C-60.4504 -60.3606 -59.7683 -60.1595 -58.9235 -60.0383C-58.1038 -59.9208 -56.7332 -59.6567 -55.8781 -59.4514C-53.77 -58.9457 -53.3641 -59.4056 -55.4189 -59.9716C-58.1522 -60.7248 -60.6596 -60.9868 -60.4976 -60.5025ZM-61.6029 -53.6306C-61.9564 -53.2655 -61.6071 -53.1932 -58.8899 -53.0696C-57.315 -52.9979 -55.5397 -52.8819 -54.945 -52.8118C-54.0922 -52.7114 -53.8828 -52.7409 -53.9533 -52.952C-54.0025 -53.099 -54.3082 -53.2993 -54.6326 -53.3971C-55.4077 -53.6306 -61.4084 -53.8318 -61.6029 -53.6306ZM-70.0935 -53.3069C-70.6461 -53.2026 -71.1887 -53.0239 -71.2993 -52.9099C-71.4984 -52.7048 -66.313 -52.848 -65.5216 -53.0696C-63.9678 -53.5047 -67.9531 -53.7116 -70.0935 -53.3069ZM-55.7973 -47.3934C-55.8679 -47.3229 -55.9257 -46.7216 -55.9257 -46.0567C-55.9257 -44.5993 -55.5751 -44.7389 -55.3932 -46.2687C-55.2827 -47.1991 -55.4698 -47.7199 -55.7973 -47.3934ZM-71.4299 -46.9095C-71.6115 -46.3764 -71.369 -44.5048 -71.1284 -44.5835C-70.7836 -44.6964 -70.7301 -46.364 -71.0571 -46.8093C-71.2727 -47.103 -71.3563 -47.1256 -71.4299 -46.9095ZM-66.3709 -16.7779C-68.6984 -16.1257 -70.8803 -14.2805 -71.997 -12.0192C-72.6051 -10.7881 -73.1869 -8.30685 -73.2014 -6.88285C-73.2052 -6.50447 -73.4011 -5.79798 -73.6366 -5.31303C-74.3886 -3.76464 -73.8714 -1.32727 -72.5245 -0.0743332C-72.0569 0.360939 -72.003 0.558441 -72.0062 1.82861C-72.0157 5.61585 -72.5979 7.94585 -73.717 8.67678C-73.9939 8.85766 -75.4821 9.48422 -77.0236 10.0693C-78.5654 10.6542 -80.6094 11.4981 -81.5656 11.9448C-82.5217 12.3915 -84.0844 12.9418 -85.0382 13.1675C-87.3579 13.7166 -88.6627 14.3417 -89.9026 15.4977C-91.067 16.5832 -91.91 18.0941 -92.4084 19.9878C-92.6769 21.008 -92.7199 21.7371 -92.6162 23.5159C-92.5157 25.2403 -92.5517 25.9156 -92.7721 26.4414C-93.2683 27.625 -94.4954 32.2309 -94.7042 33.693C-94.8141 34.4642 -94.9059 35.7814 -94.9082 36.6199C-94.9106 37.5039 -95.1377 39.1879 -95.4485 40.6261C-95.9242 42.8275 -95.9863 43.5596 -95.999 47.1137C-96.0144 51.4144 -95.8651 52.8532 -94.8658 58.0306C-94.2721 61.1061 -94.2273 61.6418 -94.2183 65.7425C-94.2092 69.9462 -94.1873 70.1926 -93.7402 71.0888C-93.1499 72.272 -91.5875 73.7417 -90.3421 74.2849C-89.8162 74.5144 -88.7829 74.7486 -88.0459 74.8051C-86.8046 74.9005 -86.6679 74.87 -86.187 74.3907C-85.8721 74.0768 -85.668 73.6491 -85.668 73.3032C-85.668 72.9897 -85.5619 72.6275 -85.4322 72.4983C-85.2785 72.3451 -85.1742 71.2043 -85.133 69.2269C-85.0647 65.952 -85.2242 65.2305 -86.344 63.7504C-87.4963 62.2273 -87.5357 60.76 -86.5757 55.1325C-85.6002 49.4137 -85.266 46.6987 -85.266 44.4945C-85.266 42.7334 -85.2166 42.499 -84.5798 41.2384C-84.2024 40.4915 -83.592 39.029 -83.2233 37.9884C-82.6807 36.4571 -82.5416 36.2111 -82.493 36.6976C-82.3931 37.6982 -81.864 39.1897 -80.8045 41.458C-79.5561 44.1303 -79.3646 45.4518 -79.4932 50.5028C-79.5776 53.8233 -79.6464 54.3721 -80.3204 57.102C-81.8304 63.2178 -83.2136 74.456 -82.4564 74.456C-82.1895 74.456 -82.1252 74.0744 -81.7464 70.2495C-81.2963 65.702 -80.704 61.6952 -80.1478 59.4327C-79.8903 58.3861 -79.5274 56.8245 -79.3411 55.9626C-79.06 54.662 -78.9458 54.4168 -78.6717 54.5216C-78.4898 54.5911 -77.435 54.7746 -76.3275 54.9294C-67.1247 56.2148 -57.3813 56.1797 -53.1159 54.8455C-52.3993 54.6213 -51.7488 54.5027 -51.67 54.5816C-51.3113 54.9422 -49.5207 67.2394 -49.1992 71.5515C-49.0093 74.0998 -48.8829 74.8566 -48.6475 74.8566C-48.0165 74.8566 -49.3145 62.6513 -50.7034 55.5267C-50.997 54.0214 -51.7033 45.9385 -51.7013 44.1091C-51.7003 43.2277 -51.5669 41.9455 -51.4047 41.2599C-51.2425 40.5742 -50.7908 38.2757 -50.4007 36.152C-49.627 31.9389 -49.2922 30.834 -47.9647 28.1154C-47.4799 27.1229 -47.082 26.1688 -47.0804 25.9957C-47.0746 25.4142 -46.7438 25.0791 -46.4311 25.3381C-45.1994 26.3569 -38.2084 26.6477 -34.6675 25.8273C-31.7855 25.1596 -27.1702 23.2042 -25.0461 21.7512C-23.2607 20.5297 -23.0377 19.3495 -23.7764 15.034C-24.694 9.67432 -25.0009 8.98504 -30.9879 -1.16083C-31.508 -2.04219 -32.1058 -3.15871 -32.3168 -3.64206C-32.5276 -4.12521 -32.9647 -4.78441 -33.2881 -5.1067C-34.061 -5.8773 -38.6521 -8.15843 -40.0094 -8.44647C-41.4141 -8.74454 -42.9095 -8.73352 -43.3072 -8.42204C-43.7963 -8.03925 -45.658 -3.85599 -45.8005 -2.81999C-45.9543 -1.70306 -45.4207 -0.499588 -44.2198 0.746132C-43.3777 1.61968 -42.8787 1.7032 -42.5773 1.02095L-42.3916 0.601097L-41.6824 1.08083C-40.797 1.67976 -40.1716 1.62488 -40.0914 0.941223C-40.038 0.485321 -39.9455 0.438858 -39.0866 0.435249C-38.5663 0.43325 -38.005 0.367744 -37.8392 0.289818C-37.6664 0.208694 -37.3455 0.296227 -37.0869 0.495331C-36.567 0.895149 -35.8765 3.35555 -35.3308 6.7514C-35.1452 7.90818 -34.8335 9.7336 -34.6383 10.8077C-34.4432 11.8817 -34.3037 12.7607 -34.3283 12.7607C-34.3528 12.7607 -34.8743 12.5397 -35.487 12.2695C-37.4588 11.4004 -38.9437 11.1203 -41.2475 11.1832C-43.2813 11.2387 -43.4143 11.2161 -44.5853 10.6142C-46.6514 9.55212 -47.7675 9.45757 -52.1336 9.97517C-57.2396 10.5803 -57.8172 10.3982 -58.4542 7.98349C-58.6926 7.0807 -58.6835 7.03944 -58.1671 6.65244C-56.5568 5.44637 -55.2563 3.13081 -54.9599 0.942429C-54.8629 0.226326 -54.7921 -2.34264 -54.8028 -4.76638C-54.8213 -9.02676 -54.8403 -9.22768 -55.3779 -10.8111C-56.3058 -13.5445 -58.1849 -15.5484 -60.7006 -16.4869C-62.2339 -17.059 -64.8824 -17.195 -66.3709 -16.7779ZM31.6197 -16.578C30.0446 -16.1838 28.2217 -15.1915 27.3931 -14.2775C26.1702 -12.928 25.3491 -9.8885 25.498 -7.26144C25.5738 -5.92498 25.5585 -5.86809 25.1231 -5.86809C24.5155 -5.86809 24.0706 -5.14197 23.9245 -3.91247C23.6823 -1.87492 24.7519 0.572449 26.2078 1.3128L26.9731 1.70181L26.8344 4.33347C26.6224 8.36208 26.4777 8.61327 23.6548 9.85159C22.7153 10.2638 21.1575 10.9503 20.1931 11.3769C19.2284 11.8038 17.3294 12.4726 15.9729 12.8636C11.2151 14.2348 9.23347 15.6215 7.62276 18.7073C6.40534 21.0399 6.09927 22.5448 6.26125 25.4016L6.39308 27.7266L5.39069 30.4252C4.22793 33.5558 3.83666 35.5142 3.67328 39.0206C3.57803 41.0648 3.45262 41.8258 3.01332 43.0268C2.48238 44.4787 2.47132 44.6021 2.49323 48.9165C2.51754 53.6779 2.65842 55.1019 3.56817 59.7779C4.09409 62.4801 4.16161 63.2501 4.16161 66.5405C4.16161 69.8971 4.2022 70.34 4.58423 71.1502C5.54482 73.1868 8.07853 74.8562 10.2095 74.8564C11.5166 74.8566 11.9991 74.4898 11.9991 73.4957C11.9991 73.0922 12.1305 72.7974 12.3666 72.6714C12.7008 72.4933 12.7328 72.178 12.7183 69.2091L12.7024 65.9428L11.931 64.6498C10.5524 62.3391 10.5069 60.2759 11.7256 55.3264C12.6566 51.5458 13.0013 49.1535 13.0027 46.4617C13.0039 44.2693 13.0268 44.1534 13.8339 42.2552C14.2904 41.1816 14.9506 39.4201 15.3009 38.3406L15.9377 36.3779L16.6067 38.3406C18.3326 43.4038 18.4566 44.0168 18.5452 47.915C18.6213 51.277 18.5938 51.6355 18.1358 53.2232C17.6097 55.0468 16.6732 60.0405 16.032 64.4405C15.3174 69.3461 14.9811 74.8566 15.3965 74.8566C15.5903 74.8566 15.7269 73.9422 15.9204 71.3512C16.2428 67.0367 18.2377 54.5749 18.7707 53.5477C19.0347 53.0389 19.0896 52.1525 19.0886 48.4208L19.0872 43.9088L17.8619 40.2031C16.53 36.1745 16.0868 34.4678 15.3399 30.4881C14.7764 27.487 14.4267 26.3505 14.027 26.2195C13.8258 26.1536 13.7832 26.2295 13.8799 26.4807C14.03 26.8703 15.1871 33.0117 15.3537 34.3029C15.4833 35.3061 14.7364 38.201 13.6015 41.0938C12.7647 43.2273 12.0811 44.3533 10.8283 45.6615C10.1838 46.3345 10.1533 46.4126 10.5345 46.4126C10.7863 46.4126 11.2814 46.0487 11.7473 45.5213L12.5342 44.6301L12.4593 46.2724C12.3283 49.1395 12.0049 51.2263 11.1496 54.7255C10.4189 57.7145 10.3156 58.4246 10.304 60.5344L10.2909 62.9382L11.2483 64.7417L12.2057 66.5453L12.1215 69.3132C12.075 70.8356 11.9963 72.1217 11.9462 72.1716C11.8962 72.2215 11.7411 72.1248 11.6012 71.9569C11.2957 71.5899 10.9181 71.5487 11.0982 71.902C11.1685 72.0398 11.0381 71.9397 10.8086 71.6795C10.5791 71.4194 10.39 71.0589 10.3884 70.8782C10.386 70.6315 10.3446 70.6138 10.2212 70.8077C9.9539 71.2276 9.44084 69.697 9.39723 68.3491C9.37573 67.6895 9.31444 67.1062 9.26099 67.0529C8.9919 66.7847 8.77345 67.6773 8.85564 68.7085C8.96958 70.1353 9.73083 71.7532 10.7029 72.6349C11.7091 73.5478 11.608 74.1331 10.4296 74.2176C8.4905 74.3568 6.10209 72.8593 5.13205 70.8961C4.68652 69.9945 4.66683 69.7761 4.7229 66.3434C4.77696 63.0303 4.73314 62.4855 4.1821 59.627C3.34269 55.2727 3.15199 53.6282 3.02156 49.6176C2.89555 45.7406 3.06738 44.3104 3.85172 42.7069C4.29544 41.7995 4.34991 41.3949 4.42949 38.4003C4.52856 34.6849 4.71064 33.8024 6.124 30.1904L7.02409 27.8898L6.88684 25.4831C6.72346 22.6233 6.89085 21.7033 7.98528 19.442C9.60382 16.0972 11.359 14.8475 16.5147 13.368C18.0589 12.9249 20.3649 12.077 21.6392 11.4837C22.9137 10.8902 24.268 10.2856 24.6488 10.14C25.5304 9.8029 26.5961 8.87306 27.0169 8.07383C27.3774 7.38877 27.6397 2.39146 27.3859 1.04278C27.2582 0.364128 27.2096 0.323265 26.6692 0.44165C26.1544 0.554428 26.0282 0.475906 25.5382 -0.26223C24.5306 -1.77978 24.2563 -4.86454 25.1142 -5.0292C25.3381 -5.07227 25.5324 -4.91222 25.6588 -4.5807C25.7669 -4.29726 25.9709 -4.06531 26.112 -4.06531C26.3097 -4.06531 26.3684 -4.83289 26.3684 -7.42049C26.3682 -10.484 26.4098 -10.88 26.8465 -11.9775C27.7771 -14.3159 29.7956 -15.6524 33.0861 -16.1085C35.5632 -16.452 37.3346 -16.023 38.6328 -14.7652C40.346 -13.1057 41.0786 -10.9289 41.2727 -6.91972C41.3434 -5.45986 41.4616 -4.26561 41.5351 -4.26561C41.6087 -4.26561 41.8687 -4.49457 42.1129 -4.7746C42.8062 -5.56943 43.015 -5.2185 42.8942 -3.46159C42.7907 -1.95826 42.3538 -0.630196 41.6758 0.241348L41.3643 0.641953L41.0639 0.241348C40.8585 -0.0326767 40.6975 -0.0945816 40.5548 0.045433C40.2329 0.360924 39.9411 2.81112 39.9367 5.23586C39.9315 8.13334 40.2773 8.92075 41.9139 9.73621C43.5162 10.5346 50.875 13.3616 51.3511 13.3616C52.0375 13.3616 54.4553 14.1773 55.6741 14.8199C57.2517 15.6517 58.4466 16.9093 59.3011 18.6374C60.3943 20.8478 60.6316 22.0514 60.6316 25.3834C60.6316 28.2596 60.6431 28.3351 61.3348 30.045C62.6021 33.1776 63.0428 35.2973 63.0458 38.2719C63.048 40.6085 63.1099 41.084 63.5962 42.5066C64.1338 44.0786 64.144 44.2002 64.1384 48.9165C64.133 53.3836 64.0844 54.0288 63.4517 58.0306C62.8378 61.914 62.7749 62.6974 62.8121 66.0009C62.8362 68.1462 62.7628 69.9995 62.6352 70.4724C62.0233 72.7373 57.118 75.2614 55.8415 73.9684C55.4734 73.5954 55.482 73.5848 57.3144 72.1754C57.7921 71.8079 58.2856 71.1288 58.6701 70.3102C59.2577 69.0586 59.2673 68.9893 59.0201 67.8273C58.8801 67.1701 58.6946 66.5884 58.6078 66.5349C58.3216 66.3587 58.1894 67.2308 58.3312 68.3613C58.439 69.2219 58.3897 69.6523 58.1138 70.2623C57.9177 70.696 57.6846 71.0507 57.5959 71.0507C57.5071 71.0507 57.2029 71.2817 56.9197 71.5639C56.5371 71.9451 56.2376 72.0611 55.7549 72.0146C55.1317 71.9547 55.1072 71.9194 55.1543 71.1508C55.1814 70.7102 55.2343 69.5834 55.272 68.647C55.3098 67.7105 55.3554 66.7967 55.3737 66.6162C55.3918 66.4358 55.7264 65.825 56.1171 65.259C57.1303 63.7907 57.2378 63.3947 57.2334 61.1436C57.2294 59.0133 57.0105 57.657 56.022 53.6338C55.2903 50.6568 55.0047 48.5521 55.0047 46.1392V44.3531L55.8257 45.2827C56.2772 45.7941 56.7746 46.2123 56.931 46.2123C57.3327 46.2123 57.3178 46.1775 56.3029 44.7305C55.1782 43.1266 54.0437 40.7085 53.2391 38.2C52.3251 35.3506 52.3161 35.1953 52.873 31.8902C53.6151 27.485 53.6726 26.9827 53.4354 26.9827C53.1483 26.9827 52.9035 27.8404 52.2918 30.9888C51.5361 34.8774 50.8957 37.2914 49.7144 40.7038L48.6745 43.7085V48.2008V52.6932L48.0716 52.8562C46.5714 53.2616 41.4596 53.8271 37.4207 54.0342C32.5025 54.2864 28.5884 54.1714 23.1524 53.6148C19.8802 53.2797 18.7673 53.3129 19.4375 53.7256C20.0677 54.114 26.1072 54.6486 31.0904 54.7569C37.9478 54.9064 45.3528 54.3179 48.1357 53.4024C48.656 53.2312 48.8583 53.2338 48.9695 53.4131C49.153 53.7091 49.5798 56.0868 50.4636 61.7363C51.0555 65.5202 51.3358 67.8473 51.9168 73.8049C52.0952 75.6366 52.3923 74.9455 52.3902 72.7032C52.3872 69.1818 51.2184 60.3119 50.0478 54.9258C49.2498 51.2545 49.0718 48.9768 49.3274 45.7116C49.53 43.1232 49.62 42.7143 50.4964 40.4034C51.0187 39.0262 51.5591 37.4939 51.6973 36.9981C51.8396 36.4881 51.9923 36.2271 52.0492 36.3972C52.1045 36.5624 52.4403 37.6441 52.7954 38.8009C53.1507 39.9577 53.6943 41.4618 54.0036 42.1435C54.5445 43.3351 54.562 43.4737 54.4595 45.749C54.3259 48.7214 54.5455 50.4825 55.6953 55.6581C56.4056 58.8567 56.6124 60.1893 56.6124 61.5723C56.6124 63.3484 56.6078 63.3646 55.7184 64.7145C54.717 66.2341 54.6289 66.6361 54.5534 70.0393C54.5049 72.2125 54.525 72.3447 54.9354 72.5522C55.276 72.7245 55.3257 72.8471 55.1683 73.1273C54.5771 74.1805 55.905 75.2081 57.5415 74.9635C59.5567 74.6623 62.2424 72.787 63.0766 71.0986C63.5255 70.19 63.5434 69.9841 63.4925 66.2908C63.4455 62.8761 63.51 61.9428 64.0524 58.1782C65.2827 49.6388 65.3116 45.2579 64.1589 42.0724C63.723 40.8679 63.6459 40.3134 63.6445 38.3761C63.6425 35.3225 63.3995 33.9728 62.2966 30.8887L61.3656 28.2847L61.3376 25.3802C61.3053 22.0268 61.0323 20.7272 59.8342 18.2219C58.8678 16.2012 57.7179 15.0322 55.7439 14.0635C54.9505 13.6743 53.4875 13.1657 52.4927 12.9332C50.7813 12.5331 45.3419 10.5529 42.5878 9.32697C40.6203 8.45121 40.3185 7.45829 40.6662 3.00621C40.7876 1.45142 40.8207 1.36086 41.29 1.30357C42.4192 1.16536 43.55 -1.48452 43.55 -3.99299C43.55 -5.37332 43.2545 -5.86809 42.4304 -5.86809C41.9734 -5.86809 41.9423 -5.93759 41.9423 -6.95536C41.9423 -11.2885 40.4264 -14.7614 37.9245 -16.161C36.9213 -16.722 36.6371 -16.7827 34.8096 -16.8258C33.5505 -16.8554 32.3578 -16.7627 31.6197 -16.578ZM-60.3469 -15.6574C-58.3162 -14.7133 -56.9185 -13.0053 -55.9864 -10.3288C-55.4683 -8.84087 -55.4432 -8.58368 -55.4135 -4.46592C-55.3964 -2.09727 -55.4567 0.326279 -55.5475 0.919792C-55.7754 2.40929 -56.7901 4.47668 -57.7306 5.36865C-59.583 7.12496 -62.6905 7.45588 -65.2367 6.16769C-66.8526 5.35003 -69.0523 3.14484 -69.7543 1.63871C-70.4827 0.0756989 -70.4982 0.0568542 -71.1664 -0.0793533C-72.0199 -0.253227 -72.2958 -0.514618 -72.8973 -1.71748C-73.9823 -3.88783 -73.216 -5.91737 -71.5497 -5.28599C-71.1698 -5.14197 -70.9715 -5.14758 -70.8738 -5.30522C-70.6926 -5.59747 -71.3507 -6.0684 -71.9405 -6.0684C-72.3796 -6.0684 -72.4045 -6.14131 -72.4045 -7.4285C-72.4045 -10.5868 -71.042 -13.2859 -68.5941 -14.9768C-67.1058 -16.0049 -65.9231 -16.2998 -63.5623 -16.2319C-61.7994 -16.1812 -61.2703 -16.0867 -60.3469 -15.6574ZM-38.8447 -7.24563C-38.0153 -6.91852 -36.5229 -6.22585 -35.5282 -5.70604C-33.7396 -4.7714 -33.7123 -4.74577 -33.061 -3.38967C-32.6989 -2.6357 -31.0982 0.17424 -29.5042 2.85439C-27.91 5.53452 -26.3382 8.35387 -26.0115 9.11925C-25.0224 11.436 -23.9729 16.2769 -23.9729 18.5222C-23.9729 20.7284 -25.0105 21.5501 -30.9013 24.0085C-32.8317 24.8141 -34.995 25.3361 -37.2667 25.5442C-39.8565 25.7816 -44.5188 25.5214 -45.6265 25.0777L-46.4806 24.7358V22.8863C-46.4806 21.8693 -46.3817 20.3045 -46.2607 19.409C-46.1399 18.5136 -46.0845 17.6655 -46.1379 17.5242C-46.3769 16.8913 -46.9024 18.9685 -47.0985 21.3209C-47.369 24.5657 -47.7169 26.1103 -48.5915 27.9499C-49.6276 30.1295 -50.0098 30.5674 -51.4861 31.2647C-52.7524 31.8626 -52.9415 31.8932 -55.775 31.9587C-57.4054 31.9964 -58.7392 32.1015 -58.7392 32.1925C-58.7392 32.4547 -56.8363 32.7916 -55.3552 32.7916C-53.8311 32.7916 -52.0968 32.3978 -50.8674 31.7726L-50.0414 31.3526L-50.166 31.8217C-50.4001 32.7025 -50.8882 35.0924 -51.6324 39.0012L-52.3762 42.9072L-52.1183 47.8148C-51.9765 50.514 -51.8482 52.9924 -51.8332 53.3227C-51.8068 53.9042 -51.8498 53.9337 -53.2128 54.2708C-58.3509 55.5411 -67.6938 55.5592 -76.0952 54.315C-77.2588 54.1428 -78.3667 54.0294 -78.5576 54.0633C-78.8753 54.1193 -78.9014 53.869 -78.8648 51.1199C-78.8429 49.4674 -78.9052 47.033 -79.0031 45.7101C-79.1767 43.3641 -79.2061 43.256 -80.201 41.3033C-80.7621 40.2025 -81.4186 38.5805 -81.6602 37.6992C-81.902 36.8178 -82.1721 36.0506 -82.2609 35.9942C-82.3495 35.9377 -82.2964 35.3528 -82.1429 34.6941C-81.9068 33.682 -81.317 30.356 -80.9207 27.8025L-80.8148 27.12L-80.201 28.1911C-79.0467 30.2056 -76.9533 31.9583 -74.794 32.7179C-73.5355 33.1606 -72.8597 33.2555 -70.3656 33.3407C-64.1268 33.5532 -62.1587 32.4757 -61.7703 28.6344C-61.503 25.9917 -61.9895 21.6238 -62.5924 21.2522C-62.7534 21.1532 -62.7791 21.3932 -62.6833 22.0951C-62.6093 22.6349 -62.4939 24.2484 -62.427 25.6806C-62.1575 31.4429 -63.1246 32.5512 -68.5863 32.7391C-72.6539 32.879 -74.8221 32.3345 -77.0914 30.6028C-78.6434 29.4186 -79.6042 28.1695 -80.36 26.3533C-80.9635 24.9032 -81.3728 24.6146 -81.3142 25.6806C-81.2585 26.6924 -82.0549 31.5635 -82.657 33.8933C-83.5161 37.2175 -85.2357 41.5583 -86.2634 42.997C-86.7875 43.7307 -86.8141 44.1984 -86.3052 43.7395C-86.1031 43.5573 -85.8997 43.408 -85.8531 43.4078C-85.5305 43.4074 -86.2228 49.629 -87.0765 54.4016C-87.6261 57.4737 -87.8785 59.4628 -87.8785 60.7195V62.554L-86.8737 64.14C-86.3211 65.0124 -85.8635 65.9102 -85.8569 66.1349C-85.7994 68.0745 -85.9302 70.7827 -86.0904 70.9752C-86.1991 71.1058 -86.2272 71.4545 -86.1529 71.75C-86.0319 72.2305 -86.0681 72.2802 -86.4959 72.2199C-87.1197 72.132 -87.723 70.9135 -87.8402 69.5051C-87.8886 68.923 -88.0196 68.4467 -88.1313 68.4467C-88.4479 68.4467 -88.1898 71.0583 -87.7988 71.8121C-87.6111 72.174 -87.2357 72.554 -86.9646 72.6568C-86.3307 72.8971 -86.2899 73.7439 -86.8966 74.0676C-87.3585 74.3139 -88.7776 74.1759 -89.6631 73.7987C-90.9094 73.2677 -92.3344 72.1636 -92.787 71.3786C-93.5527 70.0502 -93.7163 68.773 -93.58 65.1882C-93.4673 62.2171 -93.5014 61.7035 -93.9775 59.2325C-95.7924 49.8137 -95.9536 45.474 -94.6732 40.5035C-94.4068 39.4687 -94.2046 37.8013 -94.1025 35.7962C-93.9518 32.8359 -93.8999 32.5565 -92.9876 29.787L-92.0308 26.8825L-91.9074 23.1768C-91.7852 19.5041 -91.7784 19.4598 -91.1391 18.2277C-90.7842 17.5441 -90.2252 16.6793 -89.8968 16.3064C-89.0461 15.3407 -87.2136 14.4345 -85.1425 13.9555C-84.1415 13.724 -82.4739 13.1178 -81.3473 12.5764C-80.242 12.045 -78.1305 11.1704 -76.6553 10.633C-72.2345 9.02271 -71.5824 8.13052 -71.4393 3.49636C-71.3925 1.98163 -71.2792 0.742111 -71.1877 0.742111C-71.0963 0.742111 -70.7249 1.30558 -70.3626 1.99404C-69.4323 3.76177 -67.1701 5.98842 -65.5246 6.756C-63.3635 7.76396 -61.3386 7.94144 -59.7185 7.26459C-59.4604 7.15682 -59.3618 7.28923 -59.2512 7.89116C-59.0225 9.13668 -58.2607 10.2402 -57.3451 10.6516C-56.6464 10.9657 -56.2189 11 -54.3834 10.888C-53.2035 10.8161 -51.6561 10.656 -50.9447 10.5326C-50.2333 10.409 -48.9339 10.3496 -48.0573 10.4C-46.6679 10.4802 -46.245 10.6038 -44.7628 11.3635C-43.0693 12.2313 -43.0578 12.2339 -42.0552 11.9777C-40.4007 11.555 -37.463 12.033 -35.3966 13.0609C-34.8821 13.3167 -33.9502 13.9409 -33.3259 14.4479C-31.6675 15.7943 -31.22 16.0582 -30.9877 15.8266C-30.8563 15.6956 -31.1684 15.3048 -31.9075 14.6752C-32.523 14.1512 -33.1687 13.4483 -33.3425 13.1132C-33.5164 12.7783 -33.9663 10.6464 -34.3423 8.37591C-35.1385 3.56808 -35.9112 0.38858 -36.4052 -0.113998C-36.8389 -0.554878 -38.844 -0.843735 -38.844 -0.465355C-38.844 -0.130234 -40.0711 -0.360184 -41.1149 -0.891006C-41.9523 -1.31686 -42.2765 -1.26218 -41.8625 -0.765007C-41.6487 -0.508209 -41.6746 -0.459732 -42.0263 -0.459732C-42.4849 -0.459732 -43.4664 -1.90537 -43.466 -2.58061C-43.466 -2.79134 -43.1947 -3.5351 -42.8631 -4.23357C-42.1897 -5.65237 -42.1223 -6.21043 -42.5554 -6.7813C-42.8309 -7.14446 -42.8512 -7.11702 -42.8603 -6.36886C-42.8657 -5.92818 -43.1836 -4.80144 -43.5666 -3.86499C-43.9497 -2.92854 -44.2648 -2.04098 -44.2666 -1.89275C-44.2684 -1.74452 -44.0827 -1.36114 -43.8538 -1.04064C-43.3779 -0.374413 -43.0084 0.742111 -43.2638 0.742111C-43.5743 0.742111 -44.8421 -1.48853 -44.9742 -2.26713C-45.0714 -2.84122 -44.9806 -3.31936 -44.607 -4.19872C-43.5479 -6.69237 -43.1525 -7.58095 -42.9851 -7.84395C-42.7222 -8.25719 -40.6509 -7.95773 -38.8447 -7.24563ZM-41.9334 -3.78888C-42.3554 -3.17793 -42.6623 -2.56299 -42.6153 -2.42216C-42.5681 -2.28135 -42.1884 -2.67836 -41.7715 -3.30433C-41.3545 -3.9303 -41.0476 -4.54524 -41.0898 -4.67104C-41.1318 -4.79663 -41.5114 -4.39962 -41.9334 -3.78888ZM-40.2269 -3.00227C-40.4769 -2.59904 -40.6461 -2.06461 -40.6031 -1.81503C-40.5379 -1.43885 -40.4483 -1.52919 -40.08 -2.34385C-39.5255 -3.56954 -39.618 -3.98418 -40.2269 -3.00227ZM-38.3027 -1.5336C-38.5687 -1.26819 -38.1909 -1.06067 -37.4419 -1.06067C-36.5627 -1.06067 -36.0306 -1.21971 -36.0306 -1.48271C-36.0306 -1.68482 -38.1043 -1.73131 -38.3027 -1.5336ZM-40.7419 0.697441C-40.9095 0.8647 -41.2554 0.511559 -41.2492 0.179443C-41.2435 -0.118011 -41.2072 -0.112198 -40.9499 0.22673C-40.7887 0.439056 -40.6951 0.650772 -40.7419 0.697441ZM-60.2128 10.09C-60.4232 10.2997 -60.3694 11.1582 -60.1459 11.1582C-60.0354 11.1582 -59.945 10.8878 -59.945 10.5573C-59.945 9.93491 -59.986 9.8636 -60.2128 10.09ZM-67.5815 11.2952C-67.5815 11.8773 -66.7533 13.3682 -66.2459 13.6995C-65.566 14.1436 -65.4656 13.9194 -66.0385 13.2366C-66.3044 12.9197 -66.7167 12.2773 -66.9553 11.8092C-67.4215 10.8934 -67.5815 10.7622 -67.5815 11.2952ZM-75.1175 13.5605C-73.5195 14.6119 -68.0282 16.4776 -67.6478 16.0984C-67.4189 15.8703 -67.7041 15.7381 -69.5286 15.2263C-70.5024 14.9529 -72.1312 14.3766 -73.1479 13.9453C-75.1877 13.0802 -76.1263 12.8969 -75.1175 13.5605ZM-56.4902 13.8706C-58.9984 14.7221 -61.0689 15.9135 -60.6927 16.2887C-60.6302 16.3508 -59.9618 16.1066 -59.207 15.7461C-58.4524 15.3853 -57.1176 14.8098 -56.2408 14.4671C-55.364 14.1242 -54.6104 13.7354 -54.5662 13.6028C-54.4499 13.2548 -54.8349 13.3085 -56.4902 13.8706ZM33.636 19.1039C33.5622 19.1772 33.5019 25.7521 33.5019 33.7146C33.5019 47.55 33.5497 48.8354 34.0473 48.3396C34.2107 48.1766 34.3851 20.1142 34.2266 19.4847C34.0986 18.9759 33.8956 18.8449 33.636 19.1039ZM-36.2388 19.8544C-36.7967 20.3915 -38.7158 20.8163 -40.9363 20.8942C-42.1422 20.9365 -43.1703 21.0122 -43.2208 21.0627C-43.7153 21.5555 -38.1632 21.4046 -36.9424 20.8918C-36.1045 20.5401 -35.4277 20.0255 -35.4277 19.7404C-35.4277 19.4742 -35.9148 19.5426 -36.2388 19.8544ZM27.9755 24.2384C27.9755 26.8735 27.9725 26.8901 27.1174 29.0859C26.6455 30.2977 25.9844 31.6725 25.648 32.1406C25.2408 32.7075 25.1297 32.9919 25.3156 32.9919C26.0161 32.9919 27.1043 31.1072 28.0806 28.2025C28.5444 26.8226 28.6788 26.0648 28.6788 24.8297C28.6788 23.4005 28.4393 22.1217 28.0989 21.7345C28.0309 21.6572 27.9755 22.784 27.9755 24.2384ZM38.7018 22.3254C38.2894 23.3765 38.2446 26.0039 38.6174 27.2815C39.3193 29.6888 41.0014 32.404 41.9427 32.6494C42.1635 32.7071 42.3442 32.7259 42.3442 32.6917C42.3442 32.6574 42.0201 32.2426 41.624 31.7698C40.7695 30.7505 39.9222 29.1312 39.3183 27.363C38.9355 26.2421 38.8955 25.8112 39 23.9279C39.0657 22.7435 39.0742 21.7746 39.0187 21.7746C38.9632 21.7746 38.8208 22.0224 38.7018 22.3254ZM-73.0074 30.1752L-73.9117 30.303L-73.1831 30.5227C-72.5149 30.7242 -71.7589 30.7028 -71.0034 30.461C-70.743 30.3777 -70.743 30.344 -71.0034 30.18C-71.3226 29.9787 -71.6122 29.9781 -73.0074 30.1752ZM-54.1171 30.1662C-54.1171 30.6357 -52.7684 30.7256 -52.1961 30.2942C-51.8384 30.0243 -51.9017 29.9995 -52.9616 29.9937C-53.5972 29.9901 -54.1171 30.0678 -54.1171 30.1662ZM-62.0012 36.9112C-62.1238 37.1089 -62.2176 40.2525 -62.1786 42.8572C-62.1601 44.0933 -62.094 44.4096 -61.8541 44.4096C-61.5973 44.4096 -61.5547 43.8984 -61.5667 40.9542C-61.58 37.7463 -61.7186 36.4555 -62.0012 36.9112ZM-56.365 39.4154C-56.7209 39.6805 -57.439 39.878 -58.4751 39.9963C-60.2834 40.2027 -60.9021 40.3853 -60.5428 40.6067C-60.2466 40.7894 -57.8552 40.6369 -57.0139 40.3817C-56.3244 40.1728 -55.0606 38.997 -55.5365 39.0076C-55.6952 39.011 -56.068 39.1947 -56.365 39.4154ZM-69.9136 40.3695C-69.6254 40.8342 -67.6596 41.222 -65.8932 41.1625C-63.4015 41.0788 -63.7252 40.7267 -66.4237 40.5855C-67.6683 40.5202 -68.9946 40.3934 -69.371 40.3036C-69.8672 40.1854 -70.0165 40.2035 -69.9136 40.3695ZM-87.6617 44.326C-87.6521 44.5594 -87.6044 44.6069 -87.5403 44.4472C-87.4822 44.3026 -87.4895 44.1297 -87.5562 44.0632C-87.6229 43.9967 -87.6703 44.1149 -87.6617 44.326ZM-62.1877 45.4812C-62.3434 46.2173 -62.1837 46.8133 -61.8306 46.8133C-61.5157 46.8133 -61.4596 46.3888 -61.7365 46.1022C-61.8378 45.9976 -61.9536 45.6865 -61.9938 45.4111C-62.0663 44.9161 -62.0685 44.9169 -62.1877 45.4812ZM-70.7969 46.2209C-69.2069 47.4759 -64.8066 48.602 -63.4783 48.0938C-62.7998 47.8342 -63.2283 47.6692 -64.8826 47.5528C-66.1336 47.4649 -67.2469 47.2119 -68.952 46.6282C-70.7414 46.0154 -71.1799 45.9187 -70.7969 46.2209ZM-57.1542 46.8545C-57.8168 47.1971 -58.7519 47.4857 -59.4208 47.5546C-60.7424 47.6906 -61.0458 47.9416 -60.1013 48.1177C-58.8632 48.3484 -56.1335 47.4414 -55.85 46.7053C-55.6052 46.0693 -55.6426 46.0735 -57.1542 46.8545ZM-62.0215 50.5524C-62.2343 50.7644 -62.1768 52.0213 -61.9546 52.0213C-61.844 52.0213 -61.7536 51.6608 -61.7536 51.2201C-61.7536 50.4014 -61.787 50.3185 -62.0215 50.5524ZM-63.101 69.8905C-63.2138 70.0327 -63.3611 70.6901 -63.4284 71.3512C-63.4957 72.0122 -63.6109 72.9813 -63.6844 73.5045C-63.7968 74.3061 -63.766 74.456 -63.4891 74.456C-63.3082 74.456 -63.1527 74.4335 -63.1433 74.4059C-63.1338 74.3783 -63.0112 73.3643 -62.8709 72.1524C-62.6218 70.0011 -62.6863 69.3669 -63.101 69.8905ZM33.7015 70.4998C33.7007 70.858 33.6424 71.7594 33.5719 72.5029L33.4438 73.855H33.9728H34.5015L34.3908 72.3026C34.3299 71.4487 34.2388 70.5473 34.1886 70.2995C34.0501 69.6175 33.7031 69.7601 33.7015 70.4998ZM-91.2919 71.4012C-91.2882 71.8017 -90.9617 72.3884 -90.8212 72.2467C-90.7696 72.1949 -90.7752 71.9046 -90.8337 71.6015C-90.9504 70.9952 -91.2967 70.8438 -91.2919 71.4012ZM-89.2712 72.1907C-89.2788 72.5422 -89.1948 72.8855 -89.0843 72.9536C-88.8434 73.1021 -88.8434 72.5112 -89.0843 71.9521C-89.2298 71.6144 -89.2591 71.6518 -89.2712 72.1907Z" fill="#072723"/>
</g>
<rect x="0.566667" y="0.566667" width="66.8667" height="66.8667" rx="10.7667" stroke="#072723" stroke-width="1.13333"/>
<defs>
<clipPath id="clip0_344_3976">
<rect width="68" height="68" rx="11.3333" fill="white"/>
</clipPath>
</defs>
</svg>
