<svg width="68" height="68" viewBox="0 0 68 68" fill="none" xmlns="http://www.w3.org/2000/svg">
<g clip-path="url(#clip0_344_3952)">
<path fill-rule="evenodd" clip-rule="evenodd" d="M31.9854 -19.1022C29.307 -18.382 27.3077 -16.8582 26.2173 -14.7066C25.5473 -13.3841 24.995 -10.7596 24.995 -8.89753C24.995 -7.47384 24.9948 -7.47341 24.3685 -7.47341C23.3843 -7.47341 23.1988 -7.05392 23.2852 -5.02418C23.3495 -3.5193 23.4805 -2.9779 24.0718 -1.77756C24.4619 -0.985392 25.0333 -0.171885 25.3415 0.0301304C26.1729 0.574572 26.4735 1.53829 26.6387 4.18626C26.9161 8.63409 26.5208 9.17918 21.1073 11.8121C17.8249 13.4085 16.908 13.7548 14.796 14.1952C13.4372 14.4786 11.7229 14.9939 10.9864 15.3405C8.46015 16.5297 6.64223 18.6724 5.45386 21.862C4.96188 23.1825 4.90942 23.6272 4.93184 26.2946C4.95644 29.2038 4.94055 29.3076 4.09156 31.8354C2.91016 35.3516 2.57296 37.3247 2.57296 40.72C2.57296 43.1766 2.47805 43.9734 1.90857 46.3013C0.580884 51.7288 0.554761 55.98 1.80604 62.9491C2.41209 66.3229 2.52681 69.9413 2.11581 72.7053C1.56898 76.381 3.1727 79.5575 6.45959 81.3093C8.09291 82.1798 9.44063 82.3892 10.3578 81.9151C11.1184 81.5218 11.4403 80.819 11.0663 80.3684C10.875 80.1379 10.895 79.9463 11.1514 79.5549C11.4027 79.1716 11.5019 78.3047 11.547 76.1013L11.6071 73.1596L10.7494 71.5374C9.96003 70.0443 9.88449 69.75 9.80068 67.8382C9.70555 65.667 9.84096 64.9828 11.3861 59.8286C12.2164 57.0587 12.4043 55.6563 12.4892 51.5894L12.1507 47.8098L13.1248 45.8615C13.9268 44.2556 14.7514 43.1022 15.0925 41.6156C15.2272 41.0287 15.3037 41.1613 15.8446 42.9217C16.1757 43.9993 16.7088 45.5551 17.0291 46.3793L17.6116 47.8776L17.5428 54.3249C17.4751 60.6741 17.4618 60.8369 16.6827 65.0172C16.2476 67.3519 15.7207 70.7315 15.5124 72.5275C15.0705 76.3353 14.9671 81.3702 15.3285 81.4939C15.4872 81.5481 15.6139 80.7189 15.7079 79.0107C15.9088 75.3629 16.5891 69.9411 17.4592 65.0544C17.8713 62.7402 18.2425 60.8127 18.2838 60.7712C18.3254 60.7296 18.8992 60.8778 19.5588 61.1005C20.9716 61.5775 24.3907 62.2895 26.8453 62.618C29.8009 63.0136 37.2968 63.1492 40.0401 62.8566C43.1832 62.5214 47.4978 61.6676 48.9591 61.0916C49.5789 60.8474 50.1048 60.6756 50.1281 60.7098C50.1758 60.7805 50.8678 64.7057 51.7701 70.024C52.1054 71.9996 52.5392 75.1833 52.7343 77.099C53.2121 81.7908 53.2511 81.997 53.659 81.997C53.9579 81.997 53.984 81.7573 53.8549 80.201C53.513 76.0789 53.0136 72.4384 52.0851 67.3029C51.5439 64.3097 51.0476 61.3219 50.9819 60.6634C50.9161 60.0049 50.9642 56.851 51.0885 53.6544L51.3147 47.843L52.2991 45.5821C52.8405 44.3386 53.4008 42.7904 53.5441 42.1419L53.8044 40.9625L53.989 41.8333C54.2435 43.0332 55.1983 45.9208 55.8603 47.4932C56.3653 48.6922 56.4063 49.0312 56.3614 51.6293C56.307 54.7612 56.6583 57.4229 57.5396 60.5546C59.5863 67.8287 59.6104 68.2355 58.1615 71.0043L57.1508 72.9359L57.3003 76.0993C57.4163 78.5564 57.5285 79.3496 57.8025 79.6522C58.1086 79.9905 58.1158 80.1155 57.8574 80.5983C57.3099 81.6212 58.4179 82.5412 59.9309 82.32C62.3847 81.9613 64.7065 80.1401 66.0144 77.5485C66.7178 76.1546 66.7563 75.5632 66.585 68.8268C66.5208 66.3022 66.6089 65.1439 67.0981 62.0784C67.8027 57.663 68.0624 52.3298 67.6819 50.0924C67.5404 49.2615 67.1943 47.798 66.9128 46.8401C66.4868 45.3914 66.3804 44.4214 66.2802 41.0713C66.1463 36.598 65.8481 34.9856 64.5202 31.5557C63.7888 29.6666 63.7435 29.4014 63.74 26.9842C63.7354 23.9128 63.3501 21.924 62.3533 19.8248C60.8378 16.6337 58.8816 15.3468 54.1325 14.4157C51.5324 13.9059 51.1795 13.7707 47.8195 11.9959C45.862 10.9618 43.8351 9.87144 43.3153 9.57255C42.0128 8.8237 41.5496 7.75201 41.5466 5.47911C41.5444 3.91828 41.6288 3.55692 42.3609 1.99608C42.8102 1.03825 43.432 0.00357246 43.7426 -0.30337C44.5555 -1.10599 45.2656 -3.17469 45.382 -5.07882C45.4957 -6.93855 45.2194 -7.70851 44.3676 -7.90857C43.846 -8.03091 43.8201 -8.11907 43.693 -10.2037C43.5336 -12.8214 43.4161 -13.3136 42.561 -14.9458C41.7767 -16.4426 40.6164 -17.4993 38.8183 -18.3537C36.5741 -19.4202 34.1538 -19.6854 31.9854 -19.1022ZM36.3586 -18.3328C38.1656 -17.9528 39.644 -17.1477 40.8223 -15.9019C42.4099 -14.2231 42.8747 -12.8381 43.0114 -9.37819C43.0717 -7.85175 43.194 -6.60265 43.2831 -6.60265C43.3723 -6.60265 43.5672 -6.74959 43.7163 -6.92918C44.1094 -7.40288 44.2829 -7.3367 44.5899 -6.5959C44.9297 -5.77565 44.7435 -3.97144 44.161 -2.43825C43.6362 -1.05701 43.1686 -0.520624 42.6154 -0.665169C42.3235 -0.741579 42.1924 -0.665171 42.1924 -0.418528C42.1924 1.04347 39.9997 4.81908 38.3796 6.14655C37.319 7.01557 35.5594 7.76485 34.5792 7.76485C33.3662 7.76485 31.5557 6.8991 30.2663 5.70247C28.9495 4.48014 27.1954 1.79842 26.5478 0.0170689C26.2408 -0.826914 26.0654 -1.04156 25.7125 -1.00433C24.6654 -0.893961 23.3177 -6.0606 24.2019 -6.79465C24.5056 -7.04652 24.582 -7.00755 24.7736 -6.50338C24.8955 -6.18316 24.995 -5.82963 24.995 -5.71774C24.995 -5.60585 25.1419 -5.5142 25.3215 -5.5142C25.5843 -5.5142 25.648 -5.85119 25.648 -7.24004C25.648 -10.8415 26.3329 -13.7342 27.5994 -15.4826C29.3782 -17.9382 32.8555 -19.0697 36.3586 -18.3328ZM28.032 4.26506C30.2515 7.72393 34.1136 9.22403 37.0767 7.77792C37.6754 7.48578 38.7775 6.63766 39.5257 5.89338L40.8863 4.53978V6.05055C40.8863 8.8483 41.5557 9.60455 46.0701 11.9086C47.7089 12.7447 49.5884 13.7237 50.2469 14.0839C50.9207 14.4523 52.0629 14.8369 52.8592 14.9634C57.3872 15.6822 59.4374 16.6666 60.9651 18.8557C62.3638 20.86 62.9165 22.9929 63.0271 26.8127C63.1165 29.901 63.1616 30.1786 63.8582 31.9343C65.2288 35.3886 65.6798 38.1169 65.6955 43.0469C65.7014 44.8955 65.8065 45.6533 66.2286 46.895C67.4642 50.5276 67.5282 55.3093 66.4259 61.643C65.8546 64.9249 65.8231 65.4426 65.8788 70.6088C65.945 76.738 65.9402 76.7654 64.4351 78.662C63.3584 80.0184 61.9547 81.0241 60.6516 81.3726C59.6875 81.6306 58.5191 81.5041 58.5191 81.1421C58.5191 81.0357 58.9663 80.4884 59.5129 79.9261C60.7172 78.687 60.92 78.1965 60.892 76.595C60.8663 75.1232 60.6732 74.3339 60.309 74.2126C60.1115 74.1467 60.043 74.6709 60.043 76.2474C60.043 78.6226 59.795 79.167 58.7133 79.167C58.1136 79.167 58.1047 79.1479 58.133 77.9153C58.1489 77.2267 58.0862 75.8309 57.9941 74.8132L57.8262 72.9629L58.7712 71.439L59.7164 69.9152L59.7099 67.5206C59.704 65.3496 59.62 64.8515 58.8102 62.187C57.4603 57.7461 57.1381 55.9404 57.1201 52.7177C57.1114 51.1613 57.1738 49.202 57.2589 48.3639C57.3795 47.1769 57.3602 46.9483 57.1712 47.3299C57.038 47.5994 56.8588 47.8197 56.7735 47.8197C56.6882 47.8197 56.4145 47.2566 56.1653 46.568C54.8348 42.8917 54.0554 38.9926 53.7938 34.7046C53.6666 32.6198 53.6769 32.5577 54.382 31.1684C54.8365 30.2731 55.1319 29.3348 55.1874 28.6101C55.2719 27.5089 55.2627 27.4862 54.9458 28.01C54.7644 28.3093 54.6127 28.7011 54.6084 28.8807C54.5905 29.6139 53.257 31.9776 52.3481 32.8862C50.3821 34.8522 48.7329 35.3026 43.4986 35.3026C39.1657 35.3026 38.0957 35.0662 36.5887 33.7764C35.3507 32.7166 35.0222 31.7188 34.8604 28.5281C34.7849 27.0369 34.6404 25.7656 34.5393 25.7031C34.4383 25.6409 34.3511 25.7669 34.3454 25.9835C34.3397 26.2001 34.2557 27.6327 34.1588 29.1672C33.9953 31.7527 33.9364 32.0222 33.3527 32.8453C31.9841 34.7753 29.8379 35.3918 24.442 35.4047C18.0616 35.4199 14.7438 33.3682 13.893 28.8814C13.6455 27.577 13.5874 27.4686 13.2476 27.6787C12.7643 27.9773 13.6954 31.1969 14.6726 32.6071C14.985 33.0578 15.1765 33.5301 15.0984 33.6566C15.0202 33.7829 14.8644 35.3387 14.752 37.114C14.6391 38.8986 14.3595 41.0772 14.1266 41.9876C13.6642 43.7955 12.389 46.5558 11.6537 47.3406C11.2196 47.8038 11.3198 47.7749 11.1765 47.4124C11.0468 47.0835 11.1765 46.8356 11.0184 47.4124C10.9668 47.6007 11.3469 48.0923 11.6636 48.7839C12.2128 49.9838 11.9906 50.398 11.8659 52.8061C11.7024 55.9665 11.3058 58.0479 10.1823 61.643C8.66544 66.4975 8.60187 69.1783 9.95351 71.3093C10.9037 72.8072 11.0763 73.7322 10.9194 76.4833C10.796 78.6474 10.7339 78.9276 10.3567 79.0264C9.31284 79.2991 9.11148 78.8914 8.94473 76.1666C8.82457 74.2015 8.59447 73.575 8.21743 74.1852C8.00997 74.5209 8.14886 76.5778 8.48258 78.1156C8.66239 78.9439 8.86157 79.2371 9.55665 79.6971C10.9248 80.6024 10.5421 81.746 8.9567 81.4887C6.97225 81.1667 4.40895 79.2739 3.4017 77.3865C2.91081 76.467 2.90102 76.3275 2.96633 71.1504C3.0312 66.0192 3.01117 65.7251 2.32545 61.6809C1.72767 58.1543 1.61709 56.9498 1.61251 53.915C1.60729 50.5426 1.65148 50.1503 2.33459 47.4932C2.94891 45.1036 3.0891 44.0874 3.2343 40.9625C3.42739 36.8131 3.51229 36.3462 4.86828 31.9741C5.82023 28.9047 5.83134 28.8339 5.69615 26.6242C5.48064 23.102 6.3072 20.563 8.44992 18.1654C9.93892 16.4994 11.8885 15.5425 15.1989 14.853C17.3793 14.3992 18.1848 14.0918 21.4388 12.473C23.494 11.4508 25.5203 10.3114 25.9419 9.94131C27.0974 8.92666 27.4477 7.77334 27.3569 5.28189C27.3149 4.13292 27.2951 3.19316 27.3125 3.19316C27.3299 3.19337 27.6536 3.67578 28.032 4.26506ZM22.5074 15.1434C22.1182 15.296 22.1156 15.3185 22.4709 15.4547C22.6814 15.5355 23.3599 15.6025 23.9788 15.6034C25.7351 15.6062 28.9199 16.0129 30.0256 16.3756C30.5774 16.5567 31.4392 17.0561 31.9408 17.4851C32.8951 18.3021 33.2502 18.3426 32.8466 17.5883C32.5018 16.9444 31.3171 16.0982 30.2045 15.7018C29.6644 15.5092 27.8992 15.2699 26.1923 15.1578C22.7097 14.9295 23.0508 14.9308 22.5074 15.1434ZM39.9067 15.3017C37.8345 15.6755 36.5279 16.265 35.7667 17.1697C35.4597 17.5348 35.2477 17.8726 35.2958 17.9205C35.3437 17.9686 35.8864 17.6691 36.5018 17.255C37.7995 16.3817 39.5388 15.9543 43.2809 15.5897C44.6578 15.4554 45.8775 15.2562 45.9911 15.1471C46.3168 14.8345 41.87 14.9477 39.9067 15.3017ZM34.857 32.3093C35.0498 33.2694 35.9328 34.3918 36.9268 34.9406C38.7506 35.9476 43.191 36.334 47.205 35.8353C49.1983 35.5877 50.9608 34.9062 52.2277 33.8933L53.0112 33.2667L53.1435 36.0314C53.3377 40.0917 53.0201 41.9782 51.5128 45.7168C50.725 47.6708 50.6273 48.1332 50.4538 50.7289C50.3486 52.3017 50.23 55.0442 50.1899 56.8232L50.1172 60.0578L48.495 60.5763C43.6022 62.1402 36.2299 62.7656 29.5665 62.1818C24.8757 61.771 19.8508 60.7727 18.682 60.0197C18.4083 59.8431 18.3376 58.7773 18.2444 53.4335L18.1336 47.0578L17.5104 45.6428C16.1698 42.6 15.812 40.9873 15.6504 37.2618C15.5675 35.3461 15.525 33.7428 15.556 33.6989C15.5871 33.6551 16.1067 33.9233 16.7108 34.2949C18.5335 35.4164 20.2439 35.8779 23.0358 36.0011C26.3425 36.147 30.1157 35.7795 31.5222 35.1744C32.7785 34.634 34.0944 33.2894 34.2812 32.3553C34.4427 31.5474 34.6996 31.527 34.857 32.3093ZM34.4695 38.2414C34.3526 38.421 34.1767 41.4088 34.0785 44.8809C33.8917 51.4948 33.9259 54.2109 34.1995 54.4845C34.7148 54.9998 34.7934 53.7748 34.7392 46.0647C34.7013 40.6632 34.6105 38.025 34.4695 38.2414ZM29.1311 40.4126C27.53 40.6201 24.6208 41.4974 24.3158 41.8648C23.9677 42.2843 24.4536 42.251 26.3486 41.7259C27.2097 41.4873 28.5555 41.2292 29.339 41.1523C30.9975 40.9897 31.7536 40.6963 31.2829 40.3982C30.951 40.188 30.8624 40.1886 29.1311 40.4126ZM37.4577 40.9081C37.5089 41.0622 38.2477 41.2808 39.1629 41.4125C40.0508 41.5402 41.5355 41.8272 42.4617 42.0503C44.7453 42.6 45.185 42.1002 42.9591 41.485C39.9983 40.6664 37.2822 40.3817 37.4577 40.9081ZM36.2604 48.3761C35.8775 48.773 36.2558 48.8516 39.1992 48.9859C40.9052 49.0638 42.8283 49.1899 43.4725 49.2661C44.3963 49.3751 44.6232 49.3431 44.5468 49.1137C44.4934 48.9539 44.1623 48.7362 43.811 48.63C42.9713 48.3761 36.4711 48.1576 36.2604 48.3761ZM27.063 48.7279C26.4644 48.8413 25.8766 49.0355 25.7569 49.1594C25.5412 49.3823 31.1582 49.2266 32.0155 48.9859C33.6986 48.5131 29.3816 48.2882 27.063 48.7279ZM42.5492 55.1545C42.4728 55.2312 42.4101 55.8847 42.4101 56.6072C42.4101 58.1911 42.79 58.0394 42.987 56.3769C43.1067 55.3657 42.9041 54.7997 42.5492 55.1545ZM25.6154 55.6805C25.4186 56.2598 25.6813 58.2938 25.9419 58.2083C26.3155 58.0855 26.3734 56.2733 26.0192 55.7893C25.7856 55.4702 25.6951 55.4456 25.6154 55.6805ZM31.0955 88.4264C28.5742 89.1352 26.2108 91.1406 25.0011 93.5981C24.3423 94.936 23.7121 97.6325 23.6965 99.1801C23.6923 99.5913 23.4801 100.359 23.2249 100.886C22.4103 102.569 22.9707 105.218 24.4296 106.579C24.9362 107.052 24.9945 107.267 24.9911 108.647C24.9808 112.763 24.3502 115.295 23.1379 116.09C22.8379 116.286 21.2259 116.967 19.556 117.603C17.8859 118.239 15.6718 119.156 14.636 119.641C13.6002 120.127 11.9075 120.725 10.8743 120.97C8.36154 121.567 6.94808 122.246 5.60494 123.503C4.34365 124.682 3.43044 126.324 2.89057 128.382C2.59974 129.491 2.55315 130.283 2.66548 132.216C2.77432 134.09 2.73536 134.824 2.49655 135.396C1.95908 136.682 0.629866 141.688 0.403687 143.277C0.28461 144.115 0.185125 145.546 0.18273 146.457C0.180118 147.418 -0.0658703 149.248 -0.402636 150.811C-0.917907 153.204 -0.985172 153.999 -0.998887 157.862C-1.01565 162.536 -0.853906 164.099 0.228664 169.726C0.871719 173.068 0.920263 173.65 0.930059 178.107C0.939855 182.675 0.963583 182.943 1.44794 183.917C2.0873 185.203 3.77983 186.8 5.12885 187.39C5.69855 187.64 6.81791 187.894 7.61617 187.956C8.96084 188.059 9.10887 188.026 9.6298 187.505C9.97092 187.164 10.1921 186.7 10.1921 186.324C10.1921 185.983 10.307 185.589 10.4474 185.449C10.614 185.282 10.727 184.043 10.7716 181.894C10.8456 178.335 10.6727 177.55 9.45978 175.942C8.21155 174.287 8.16889 172.692 9.20879 166.576C10.2655 160.361 10.6275 157.411 10.6275 155.015C10.6275 153.101 10.681 152.847 11.3709 151.477C11.7797 150.665 12.4408 149.076 12.8403 147.945C13.428 146.28 13.5787 146.013 13.6314 146.542C13.7396 147.629 14.3127 149.25 15.4604 151.715C16.8127 154.619 17.0201 156.056 16.8808 161.545C16.7894 165.153 16.7149 165.75 15.9848 168.717C14.3491 175.363 12.8507 187.576 13.671 187.576C13.9601 187.576 14.0297 187.162 14.4401 183.005C14.9277 178.063 15.5692 173.708 16.1718 171.25C16.4507 170.112 16.8438 168.415 17.0456 167.478C17.3502 166.065 17.4738 165.798 17.7707 165.912C17.9677 165.988 19.1104 166.187 20.3101 166.356C30.279 167.752 40.8334 167.714 45.4539 166.264C46.2301 166.021 46.9348 165.892 47.0201 165.978C47.4087 166.369 49.3483 179.734 49.6966 184.42C49.9023 187.189 50.0393 188.012 50.2942 188.012C50.9777 188.012 49.5717 174.747 48.0672 167.005C47.7492 165.369 46.984 156.585 46.9862 154.596C46.9873 153.639 47.1318 152.245 47.3075 151.5C47.4832 150.755 47.9725 148.257 48.3951 145.949C49.2332 141.37 49.5958 140.169 51.0339 137.215C51.559 136.136 51.99 135.099 51.9917 134.911C51.998 134.279 52.3564 133.915 52.6951 134.197C54.0293 135.304 61.6023 135.62 65.438 134.728C68.5599 134.003 73.5593 131.878 75.8603 130.299C77.7942 128.971 78.0359 127.688 77.2356 122.999C76.2417 117.174 75.9093 116.425 69.4239 105.399C68.8605 104.441 68.2129 103.227 67.9843 102.702C67.7559 102.177 67.2825 101.461 66.9322 101.11C66.095 100.273 61.1216 97.7938 59.6514 97.4808C58.1297 97.1569 56.5099 97.1688 56.0791 97.5073C55.5492 97.9233 53.5325 102.47 53.3782 103.595C53.2117 104.809 53.7896 106.117 55.0905 107.471C56.0027 108.42 56.5432 108.511 56.8697 107.77L57.0709 107.313L57.8391 107.835C58.7982 108.486 59.4757 108.426 59.5625 107.683C59.6204 107.188 59.7206 107.137 60.651 107.133C61.2146 107.131 61.8226 107.06 62.0022 106.975C62.1894 106.887 62.537 106.982 62.8172 107.198C63.3804 107.633 64.1284 110.307 64.7194 113.997C64.9205 115.254 65.2582 117.238 65.4695 118.406C65.6809 119.573 65.832 120.528 65.8054 120.528C65.7789 120.528 65.214 120.288 64.5502 119.994C62.4143 119.05 60.8058 118.745 58.3102 118.814C56.1072 118.874 55.963 118.849 54.6946 118.195C52.4565 117.041 51.2475 116.938 46.5179 117.501C40.9869 118.158 40.3612 117.961 39.6712 115.336C39.413 114.355 39.4228 114.31 39.9822 113.89C41.7266 112.579 43.1353 110.063 43.4563 107.684C43.5615 106.906 43.6381 104.114 43.6266 101.48C43.6066 96.8501 43.5859 96.6318 43.0036 94.9109C41.9985 91.9404 39.9629 89.7626 37.2378 88.7427C35.5769 88.121 32.7079 87.9732 31.0955 88.4264ZM137.243 88.6437C135.537 89.0721 133.562 90.1505 132.665 91.1438C131.34 92.6104 130.45 95.9136 130.612 98.7686C130.694 100.221 130.677 100.283 130.206 100.283C129.548 100.283 129.066 101.072 128.907 102.408C128.645 104.623 129.804 107.282 131.381 108.087L132.21 108.51L132.059 111.37C131.83 115.748 131.673 116.021 128.615 117.366C127.597 117.814 125.91 118.561 124.865 119.024C123.82 119.488 121.763 120.215 120.294 120.64C115.14 122.13 112.993 123.637 111.249 126.991C109.93 129.526 109.598 131.161 109.774 134.266L109.917 136.792L108.831 139.725C107.571 143.127 107.147 145.256 106.97 149.066C106.867 151.288 106.731 152.115 106.255 153.42C105.68 154.998 105.668 155.132 105.692 159.821C105.718 164.995 105.871 166.543 106.856 171.625C107.426 174.561 107.499 175.398 107.499 178.974C107.499 182.622 107.543 183.103 107.957 183.984C108.998 186.197 111.742 188.011 114.051 188.012C115.466 188.012 115.989 187.613 115.989 186.533C115.989 186.094 116.132 185.774 116.387 185.637C116.749 185.443 116.784 185.101 116.768 181.874L116.751 178.325L115.915 176.919C114.422 174.408 114.373 172.166 115.693 166.787C116.701 162.678 117.075 160.078 117.076 157.153C117.078 154.771 117.102 154.645 117.977 152.582C118.471 151.415 119.186 149.501 119.566 148.327L120.256 146.194L120.98 148.327C122.85 153.83 122.984 154.496 123.08 158.733C123.163 162.386 123.133 162.776 122.637 164.501C122.067 166.483 121.052 171.91 120.358 176.692C119.584 182.023 119.219 188.012 119.669 188.012C119.879 188.012 120.027 187.018 120.237 184.202C120.586 179.513 122.747 165.97 123.324 164.854C123.61 164.301 123.67 163.338 123.669 159.282L123.667 154.379L122.34 150.351C120.897 145.973 120.417 144.119 119.608 139.794C118.998 136.532 118.619 135.297 118.186 135.155C117.968 135.083 117.922 135.165 118.027 135.438C118.189 135.862 119.443 142.536 119.623 143.939C119.763 145.03 118.954 148.176 117.725 151.32C116.819 153.638 116.078 154.862 114.721 156.283C114.023 157.015 113.99 157.1 114.403 157.1C114.675 157.1 115.212 156.704 115.716 156.131L116.569 155.163L116.488 156.947C116.346 160.063 115.995 162.331 115.069 166.134C114.277 169.382 114.166 170.154 114.153 172.447L114.139 175.059L115.176 177.019L116.213 178.979L116.122 181.987C116.071 183.642 115.986 185.04 115.932 185.094C115.878 185.148 115.71 185.043 115.558 184.86C115.227 184.462 114.818 184.417 115.013 184.801C115.089 184.951 114.948 184.842 114.7 184.559C114.451 184.276 114.246 183.885 114.244 183.688C114.242 183.42 114.197 183.401 114.063 183.612C113.774 184.068 113.218 182.404 113.171 180.94C113.147 180.223 113.081 179.589 113.023 179.531C112.732 179.24 112.495 180.21 112.584 181.33C112.707 182.881 113.532 184.639 114.585 185.597C115.675 186.589 115.566 187.225 114.289 187.317C112.189 187.469 109.601 185.841 108.55 183.708C108.068 182.728 108.047 182.49 108.107 178.76C108.166 175.159 108.118 174.567 107.521 171.461C106.612 166.729 106.406 164.941 106.264 160.583C106.128 156.369 106.314 154.815 107.164 153.073C107.644 152.086 107.703 151.647 107.789 148.392C107.897 144.355 108.094 143.395 109.625 139.47L110.6 136.97L110.451 134.354C110.274 131.246 110.456 130.247 111.641 127.789C113.395 124.154 115.296 122.796 120.881 121.188C122.553 120.706 125.051 119.785 126.432 119.14C127.812 118.495 129.279 117.838 129.692 117.68C130.647 117.314 131.801 116.303 132.257 115.434C132.648 114.69 132.932 109.259 132.657 107.793C132.519 107.056 132.466 107.011 131.88 107.14C131.323 107.263 131.186 107.177 130.655 106.375C129.564 104.726 129.267 101.373 130.196 101.195C130.439 101.148 130.649 101.322 130.786 101.682C130.903 101.99 131.124 102.242 131.277 102.242C131.491 102.242 131.555 101.408 131.555 98.5958C131.554 95.2664 131.599 94.8361 132.072 93.6433C133.081 91.102 135.267 89.6496 138.832 89.154C141.515 88.7806 143.434 89.2469 144.84 90.6138C146.696 92.4173 147.489 94.783 147.7 99.14C147.776 100.727 147.904 102.024 147.984 102.024C148.064 102.024 148.345 101.776 148.61 101.471C149.361 100.607 149.587 100.989 149.456 102.898C149.344 104.532 148.871 105.975 148.136 106.922L147.799 107.358L147.473 106.922C147.251 106.625 147.077 106.557 146.922 106.71C146.573 107.052 146.257 109.715 146.252 112.35C146.247 115.499 146.621 116.355 148.394 117.241C150.13 118.109 158.101 121.181 158.617 121.181C159.361 121.181 161.98 122.068 163.3 122.766C165.009 123.67 166.303 125.037 167.229 126.915C168.413 129.317 168.67 130.625 168.67 134.246C168.67 137.372 168.682 137.454 169.432 139.312C170.804 142.716 171.282 145.02 171.285 148.253C171.287 150.792 171.355 151.309 171.881 152.855C172.464 154.563 172.475 154.695 172.469 159.821C172.463 164.676 172.41 165.377 171.725 169.726C171.06 173.946 170.992 174.798 171.032 178.388C171.058 180.719 170.979 182.733 170.84 183.247C170.177 185.709 164.864 188.452 163.481 187.047C163.082 186.641 163.092 186.63 165.077 185.098C165.594 184.699 166.129 183.961 166.545 183.071C167.182 181.711 167.192 181.635 166.924 180.373C166.773 179.658 166.572 179.026 166.478 178.968C166.168 178.776 166.024 179.724 166.178 180.953C166.295 181.888 166.241 182.356 165.943 183.019C165.73 183.49 165.478 183.876 165.382 183.876C165.285 183.876 164.956 184.127 164.649 184.433C164.235 184.848 163.91 184.974 163.387 184.923C162.712 184.858 162.686 184.82 162.737 183.984C162.766 183.506 162.823 182.281 162.864 181.263C162.905 180.246 162.955 179.253 162.974 179.056C162.994 178.86 163.356 178.197 163.78 177.581C164.877 175.986 164.994 175.555 164.989 173.109C164.985 170.794 164.747 169.32 163.677 164.948C162.884 161.712 162.575 159.425 162.575 156.803V154.862L163.464 155.872C163.953 156.428 164.492 156.882 164.661 156.882C165.096 156.882 165.08 156.844 163.981 155.272C162.763 153.529 161.534 150.901 160.662 148.175C159.672 145.078 159.662 144.909 160.265 141.317C161.069 136.53 161.132 135.984 160.875 135.984C160.564 135.984 160.299 136.916 159.636 140.338C158.817 144.564 158.124 147.187 156.844 150.896L155.717 154.161V159.043V163.925L155.064 164.102C153.439 164.543 147.902 165.158 143.527 165.383C138.199 165.657 133.959 165.532 128.071 164.927C124.526 164.563 123.321 164.599 124.047 165.047C124.729 165.469 131.272 166.05 136.67 166.168C144.098 166.331 152.119 165.691 155.134 164.696C155.697 164.51 155.917 164.513 156.037 164.708C156.236 165.029 156.698 167.613 157.656 173.753C158.297 177.865 158.6 180.394 159.23 186.869C159.423 188.859 159.745 188.108 159.743 185.672C159.739 181.845 158.473 172.205 157.205 166.352C156.341 162.362 156.148 159.886 156.425 156.338C156.644 153.525 156.742 153.081 157.691 150.569C158.257 149.073 158.842 147.407 158.992 146.868C159.146 146.314 159.312 146.031 159.373 146.215C159.433 146.395 159.797 147.57 160.181 148.828C160.566 150.085 161.155 151.719 161.49 152.46C162.076 153.755 162.095 153.906 161.984 156.379C161.839 159.609 162.077 161.523 163.323 167.148C164.092 170.624 164.316 172.072 164.316 173.575C164.316 175.505 164.311 175.523 163.348 176.99C162.263 178.641 162.168 179.078 162.086 182.777C162.033 185.138 162.055 185.282 162.5 185.507C162.869 185.695 162.922 185.828 162.752 186.132C162.111 187.277 163.55 188.394 165.323 188.128C167.506 187.801 170.415 185.763 171.318 183.928C171.805 182.94 171.824 182.716 171.769 178.703C171.718 174.992 171.788 173.978 172.376 169.886C173.708 160.606 173.74 155.845 172.491 152.383C172.019 151.074 171.935 150.471 171.934 148.366C171.931 145.047 171.668 143.581 170.474 140.229L169.465 137.399L169.435 134.242C169.4 130.598 169.104 129.186 167.806 126.463C166.759 124.267 165.514 122.997 163.375 121.944C162.516 121.521 160.931 120.968 159.854 120.715C158 120.281 152.108 118.129 149.124 116.796C146.993 115.845 146.666 114.766 147.043 109.927C147.174 108.237 147.21 108.139 147.718 108.077C148.941 107.927 150.166 105.047 150.166 102.321C150.166 100.821 149.846 100.283 148.954 100.283C148.459 100.283 148.425 100.207 148.425 99.1013C148.425 94.3922 146.783 90.6179 144.073 89.0969C142.986 88.4872 142.678 88.4212 140.698 88.3744C139.335 88.3422 138.043 88.443 137.243 88.6437ZM37.621 89.6442C39.8207 90.6702 41.3347 92.5264 42.3444 95.4352C42.9056 97.0522 42.9328 97.3317 42.965 101.807C42.9835 104.381 42.9182 107.015 42.8198 107.66C42.573 109.278 41.4739 111.525 40.4551 112.495C38.4484 114.403 35.0823 114.763 32.3241 113.363C30.5737 112.474 28.1909 110.078 27.4305 108.441C26.6414 106.742 26.6246 106.722 25.9008 106.574C24.9763 106.385 24.6774 106.101 24.0258 104.794C22.8505 102.435 23.6806 100.229 25.4856 100.915C25.8971 101.072 26.1119 101.066 26.2177 100.895C26.4141 100.577 25.7012 100.065 25.0622 100.065C24.5866 100.065 24.5596 99.986 24.5596 98.5871C24.5596 95.1548 26.0355 92.2214 28.6872 90.3839C30.2994 89.2665 31.5805 88.9461 34.1379 89.0198C36.0475 89.0749 36.6207 89.1777 37.621 89.6442ZM60.9131 98.7858C61.8115 99.1413 63.428 99.8941 64.5056 100.459C66.443 101.475 66.4727 101.503 67.1782 102.976C67.5705 103.796 69.3044 106.849 71.0311 109.762C72.758 112.675 74.4605 115.739 74.8145 116.571C75.886 119.088 77.0228 124.349 77.0228 126.789C77.0228 129.187 75.8988 130.08 69.5177 132.752C67.4266 133.627 65.0831 134.195 62.6224 134.421C59.817 134.679 54.7666 134.396 53.5667 133.914L52.6415 133.542V131.532C52.6415 130.427 52.7486 128.726 52.8797 127.753C53.0105 126.78 53.0706 125.858 53.0127 125.705C52.7539 125.017 52.1846 127.274 51.9721 129.831C51.6791 133.357 51.3023 135.036 50.3549 137.035C49.2325 139.404 48.8185 139.88 47.2193 140.638C45.8477 141.287 45.6428 141.321 42.5734 141.392C40.8073 141.433 39.3625 141.547 39.3625 141.646C39.3625 141.931 41.4238 142.297 43.0281 142.297C44.6791 142.297 46.5578 141.869 47.8896 141.19L48.7843 140.733L48.6493 141.243C48.3957 142.2 47.867 144.797 47.0609 149.045L46.2552 153.29L46.5345 158.624C46.6882 161.557 46.827 164.25 46.8434 164.609C46.8719 165.241 46.8253 165.273 45.3489 165.64C39.7831 167.02 29.6625 167.04 20.5617 165.688C19.3013 165.501 18.1012 165.377 17.8944 165.414C17.5502 165.475 17.5219 165.203 17.5615 162.216C17.5853 160.42 17.5178 157.774 17.4118 156.336C17.2237 153.787 17.1919 153.669 16.1141 151.547C15.5063 150.351 14.7951 148.588 14.5335 147.63C14.2716 146.672 13.979 145.839 13.8828 145.777C13.7868 145.716 13.8443 145.08 14.0106 144.365C14.2664 143.265 14.9053 139.65 15.3346 136.875L15.4493 136.133L16.1141 137.297C17.3645 139.487 19.6322 141.391 21.9713 142.217C23.3344 142.698 24.0665 142.801 26.7683 142.894C33.5264 143.125 35.6583 141.954 36.0791 137.779C36.3686 134.907 35.8416 130.16 35.1885 129.756C35.0141 129.649 34.9863 129.91 35.0901 130.672C35.1702 131.259 35.2952 133.012 35.3677 134.569C35.6596 140.831 34.6121 142.036 28.6957 142.24C24.2894 142.392 21.9408 141.8 19.4826 139.918C17.8014 138.631 16.7607 137.274 15.9419 135.3C15.2882 133.724 14.8448 133.41 14.9083 134.569C14.9686 135.669 14.1059 140.962 13.4537 143.494C12.5231 147.107 10.6603 151.824 9.54708 153.388C8.97934 154.185 8.95061 154.694 9.5018 154.195C9.72079 153.997 9.94109 153.835 9.9916 153.834C10.341 153.834 9.59105 160.595 8.66631 165.782C8.07093 169.121 7.79751 171.282 7.79751 172.648V174.642L8.88595 176.365C9.4846 177.313 9.98028 178.289 9.98746 178.533C10.0497 180.641 9.908 183.584 9.73451 183.794C9.61674 183.936 9.58626 184.315 9.66681 184.636C9.79786 185.158 9.75867 185.212 9.29521 185.146C8.6195 185.051 7.966 183.727 7.83909 182.196C7.78662 181.563 7.64469 181.046 7.52365 181.046C7.18079 181.046 7.46031 183.884 7.88393 184.703C8.08725 185.096 8.4939 185.509 8.78756 185.621C9.47415 185.882 9.51834 186.802 8.86114 187.154C8.36089 187.422 6.82356 187.272 5.86442 186.862C4.51431 186.285 2.97068 185.085 2.48044 184.232C1.65105 182.788 1.47385 181.4 1.62144 177.505C1.74356 174.276 1.70656 173.717 1.19085 171.032C-0.775102 160.796 -0.949689 156.08 0.437211 150.678C0.725867 149.553 0.944862 147.741 1.05545 145.562C1.21871 142.345 1.27488 142.041 2.26319 139.032L3.29961 135.875L3.43327 131.848C3.56563 127.857 3.57303 127.808 4.2655 126.469C4.64994 125.726 5.25555 124.787 5.61125 124.381C6.53273 123.332 8.51784 122.347 10.7614 121.827C11.8457 121.575 13.652 120.916 14.8724 120.328C16.0697 119.75 18.357 118.8 19.955 118.216C24.7438 116.466 25.4502 115.496 25.6052 110.46C25.6559 108.814 25.7787 107.467 25.8777 107.467C25.9768 107.467 26.379 108.079 26.7715 108.827C27.7792 110.748 30.2298 113.168 32.0122 114.002C34.3532 115.098 36.5467 115.291 38.3017 114.555C38.5812 114.438 38.6881 114.582 38.8078 115.236C39.0555 116.59 39.8808 117.789 40.8726 118.236C41.6295 118.577 42.0925 118.615 44.0809 118.493C45.359 118.415 47.0352 118.241 47.8058 118.107C48.5764 117.972 49.984 117.908 50.9335 117.963C52.4386 118.05 52.8967 118.184 54.5023 119.01C56.3368 119.953 56.3492 119.955 57.4353 119.677C59.2275 119.218 62.4097 119.737 64.6482 120.854C65.2055 121.132 66.2149 121.811 66.8913 122.362C68.6876 123.825 69.1724 124.112 69.4241 123.86C69.5665 123.718 69.2284 123.293 68.4277 122.609C67.7609 122.039 67.0615 121.275 66.8732 120.911C66.6849 120.547 66.1975 118.23 65.7902 115.763C64.9277 110.538 64.0907 107.082 63.5556 106.536C63.0858 106.057 60.9137 105.743 60.9137 106.154C60.9137 106.519 59.5845 106.269 58.4538 105.692C57.5467 105.229 57.1956 105.288 57.644 105.829C57.8757 106.108 57.8476 106.16 57.4666 106.16C56.9699 106.16 55.9067 104.589 55.9071 103.856C55.9071 103.627 56.201 102.818 56.5602 102.059C57.2896 100.517 57.3626 99.9108 56.8935 99.2904C56.595 98.8958 56.573 98.9256 56.5632 99.7387C56.5573 100.218 56.2129 101.442 55.798 102.46C55.3831 103.477 55.0418 104.442 55.0398 104.603C55.0379 104.764 55.239 105.181 55.487 105.529C56.0024 106.253 56.4028 107.467 56.1261 107.467C55.7898 107.467 54.4164 105.042 54.2733 104.196C54.168 103.572 54.2664 103.053 54.6711 102.097C55.8183 99.3871 56.2467 98.4214 56.428 98.1356C56.7128 97.6865 58.9565 98.0119 60.9131 98.7858ZM57.5672 102.542C57.1101 103.206 56.7776 103.875 56.8286 104.028C56.8797 104.181 57.2909 103.749 57.7427 103.069C58.1944 102.389 58.5268 101.721 58.4811 101.584C58.4356 101.447 58.0243 101.879 57.5672 102.542ZM59.4158 103.397C59.145 103.836 58.9617 104.416 59.0083 104.688C59.0788 105.096 59.1759 104.998 59.5749 104.113C60.1755 102.781 60.0754 102.33 59.4158 103.397ZM61.5002 104.993C61.212 105.282 61.6212 105.507 62.4325 105.507C63.3849 105.507 63.9614 105.335 63.9614 105.049C63.9614 104.829 61.715 104.779 61.5002 104.993ZM58.8579 107.418C58.6763 107.6 58.3017 107.216 58.3084 106.855C58.3145 106.532 58.3539 106.538 58.6326 106.907C58.8072 107.137 58.9086 107.367 58.8579 107.418ZM37.7662 117.626C37.5382 117.853 37.5966 118.786 37.8387 118.786C37.9584 118.786 38.0563 118.493 38.0563 118.133C38.0563 117.457 38.0119 117.38 37.7662 117.626ZM29.7841 118.935C29.7841 119.568 30.6812 121.188 31.2309 121.548C31.9674 122.031 32.0762 121.787 31.4556 121.045C31.1676 120.701 30.7209 120.003 30.4625 119.494C29.9574 118.499 29.7841 118.356 29.7841 118.935ZM21.6208 121.397C23.3519 122.54 29.3002 124.567 29.7123 124.155C29.9603 123.907 29.6514 123.764 27.675 123.208C26.62 122.91 24.8557 122.284 23.7544 121.815C21.5448 120.875 20.528 120.676 21.6208 121.397ZM41.7986 121.734C39.0817 122.66 36.8388 123.954 37.2463 124.362C37.314 124.43 38.0381 124.164 38.8557 123.772C39.6731 123.38 41.119 122.755 42.0688 122.382C43.0186 122.01 43.8349 121.587 43.8828 121.443C44.0088 121.065 43.5918 121.123 41.7986 121.734ZM139.427 127.422C139.347 127.501 139.282 134.647 139.282 143.3C139.282 158.336 139.334 159.733 139.873 159.194C140.05 159.017 140.239 128.52 140.067 127.835C139.928 127.282 139.708 127.14 139.427 127.422ZM63.7359 128.237C63.1316 128.821 61.0526 129.283 58.6474 129.367C57.341 129.413 56.2273 129.495 56.1727 129.55C55.6369 130.086 61.6513 129.922 62.9737 129.365C63.8813 128.982 64.6144 128.423 64.6144 128.113C64.6144 127.824 64.0868 127.898 63.7359 128.237ZM133.295 133.002C133.295 135.865 133.292 135.883 132.366 138.27C131.855 139.587 131.139 141.081 130.774 141.589C130.333 142.206 130.213 142.515 130.414 142.515C131.173 142.515 132.352 140.466 133.409 137.31C133.912 135.81 134.057 134.986 134.057 133.644C134.057 132.091 133.798 130.701 133.429 130.28C133.356 130.196 133.295 131.421 133.295 133.002ZM144.915 130.923C144.468 132.065 144.419 134.92 144.823 136.309C145.584 138.925 147.406 141.876 148.425 142.142C148.665 142.205 148.86 142.226 148.86 142.188C148.86 142.151 148.509 141.7 148.08 141.187C147.154 140.079 146.237 138.319 145.583 136.397C145.168 135.179 145.125 134.711 145.238 132.664C145.309 131.377 145.318 130.324 145.258 130.324C145.198 130.324 145.044 130.593 144.915 130.923ZM23.9065 139.453L22.9269 139.592L23.7163 139.831C24.4401 140.05 25.259 140.027 26.0773 139.764C26.3595 139.674 26.3595 139.637 26.0773 139.459C25.7316 139.24 25.4179 139.239 23.9065 139.453ZM44.3693 139.444C44.3693 139.954 45.8302 140.052 46.4502 139.583C46.8377 139.29 46.7691 139.263 45.6211 139.256C44.9325 139.252 44.3693 139.337 44.3693 139.444ZM35.8289 146.774C35.6962 146.989 35.5945 150.405 35.6367 153.236C35.6568 154.579 35.7284 154.923 35.9883 154.923C36.2665 154.923 36.3126 154.367 36.2996 151.168C36.2852 147.682 36.135 146.279 35.8289 146.774ZM41.9343 149.495C41.5487 149.784 40.7709 149.998 39.6485 150.127C37.6898 150.351 37.0195 150.55 37.4087 150.79C37.7296 150.989 40.3201 150.823 41.2313 150.546C41.9782 150.319 43.3473 149.041 42.8318 149.052C42.6598 149.056 42.256 149.256 41.9343 149.495ZM27.2579 150.532C27.57 151.037 29.6995 151.459 31.613 151.394C34.3121 151.303 33.9614 150.921 31.0383 150.767C29.6901 150.696 28.2534 150.558 27.8456 150.461C27.3081 150.332 27.1464 150.352 27.2579 150.532ZM8.03239 154.832C8.04284 155.086 8.09444 155.137 8.16388 154.964C8.22679 154.807 8.21896 154.619 8.14668 154.547C8.07441 154.474 8.02303 154.603 8.03239 154.832ZM35.6269 156.088C35.4582 156.888 35.6313 157.535 36.0138 157.535C36.3549 157.535 36.4156 157.074 36.1156 156.762C36.0059 156.649 35.8805 156.311 35.837 156.011C35.7584 155.473 35.756 155.474 35.6269 156.088ZM26.3011 156.892C28.0235 158.255 32.79 159.479 34.2289 158.927C34.9638 158.645 34.4997 158.465 32.7077 158.339C31.3526 158.243 30.1466 157.968 28.2995 157.334C26.3612 156.668 25.8862 156.563 26.3011 156.892ZM41.0794 157.58C40.3617 157.952 39.3488 158.266 38.6241 158.341C37.1926 158.489 36.8638 158.761 37.887 158.953C39.2282 159.204 42.185 158.218 42.4922 157.418C42.7573 156.727 42.7169 156.731 41.0794 157.58ZM35.807 161.599C35.5764 161.829 35.6387 163.195 35.8795 163.195C35.9992 163.195 36.0971 162.803 36.0971 162.324C36.0971 161.435 36.061 161.345 35.807 161.599ZM34.6375 182.615C34.5154 182.769 34.3558 183.484 34.2829 184.202C34.21 184.921 34.0853 185.974 34.0056 186.542C33.8839 187.414 33.9172 187.576 34.2172 187.576C34.4131 187.576 34.5816 187.552 34.5918 187.522C34.602 187.492 34.7348 186.39 34.8868 185.073C35.1567 182.735 35.0868 182.046 34.6375 182.615ZM139.498 183.277C139.497 183.666 139.434 184.646 139.358 185.454L139.219 186.923H139.792H140.365L140.245 185.236C140.179 184.308 140.08 183.329 140.026 183.059C139.876 182.318 139.5 182.473 139.498 183.277ZM4.10005 184.257C4.10397 184.692 4.45772 185.329 4.60988 185.175C4.66583 185.119 4.65973 184.804 4.59638 184.474C4.46991 183.815 4.09483 183.651 4.10005 184.257ZM6.28892 185.115C6.28065 185.497 6.37164 185.87 6.49137 185.944C6.75238 186.105 6.75238 185.463 6.49137 184.855C6.33376 184.488 6.30198 184.529 6.28892 185.115Z" fill="#072723"/>
</g>
<rect x="0.566667" y="0.566667" width="66.8667" height="66.8667" rx="10.7667" stroke="#072723" stroke-width="1.13333"/>
<defs>
<clipPath id="clip0_344_3952">
<rect width="68" height="68" rx="11.3333" fill="white"/>
</clipPath>
</defs>
</svg>
