<?xml version="1.0" encoding="utf-8"?>

<!-- Uploaded to: SVG Repo, www.svgrepo.com, Generator: SVG Repo Mixer Tools -->
<svg version="1.1" id="Icons" xmlns="http://www.w3.org/2000/svg" xmlns:xlink="http://www.w3.org/1999/xlink" 
	 viewBox="0 0 32 32" xml:space="preserve">
<style type="text/css">
	.st0{fill:none;stroke:#000000;stroke-width:2;stroke-linecap:round;stroke-linejoin:round;stroke-miterlimit:10;}
</style>
<path class="st0" d="M20.9,6.5c-0.5-1.1-1.8-1.2-3.1-0.4C17.7,4.4,16.9,3,16,3c-0.9,0-1.7,1.3-1.8,3c-1.2-0.7-2.5-0.5-3,0.5
	C11.1,6.6,11,6.8,11,6.9c1.1,1.9,2.9,3.1,5,3.1c0,0,0.1,0,0.1,0c2,0,3.8-1.3,4.9-3.2C21,6.7,21,6.6,20.9,6.5z"/>
<path class="st0" d="M18.1,9.5c1.1,0.5,1.9,1.4,2.4,2.4c0.3,0.7,0.5,1.5,0.5,2.3c0,2.9-2.2,14.8-5,14.8s-5-11.9-5-14.8
	c0-2.1,1.2-3.9,2.8-4.7"/>
<line class="st0" x1="11" y1="15" x2="15" y2="15"/>
<line class="st0" x1="18" y1="19" x2="20" y2="19"/>
<line class="st0" x1="13" y1="23" x2="16" y2="23"/>
</svg>