<svg width="1184" height="1236" viewBox="0 0 1184 1236" fill="none" xmlns="http://www.w3.org/2000/svg">
<g filter="url(#filter0_dddd_292_13333)">
<rect x="80" y="37.9999" width="1024" height="1024" rx="200" fill="white"/>
<path d="M702.025 451.432L895.408 314.544L717.235 490.544L847.605 829.507L708.544 781.704L628.148 577.457L528.198 677.408L467.358 618.741L408.691 781.704L269.63 829.507L376.098 531.827L304.395 451.432L391.308 497.062L495.605 227.63H617.284L702.025 451.432ZM665.086 540.518L745.481 753.456L782.42 768.666L688.987 520.963L665.086 540.518ZM332.641 766.493L378.271 753.456L441.283 590.493L410.864 560.073L332.641 766.493ZM489.086 555.727L530.37 581.801L608.592 523.135L554.271 390.591L489.086 555.727ZM528.197 258.049L423.9 516.617L460.839 542.691L569.481 258.049H528.197ZM580.345 316.716L647.703 492.716L669.431 475.333L595.555 284.123L580.345 316.716Z" fill="#072723"/>
</g>
<defs>
<filter id="filter0_dddd_292_13333" x="-147.556" y="0.0740128" width="1479.11" height="1858.37" filterUnits="userSpaceOnUse" color-interpolation-filters="sRGB">
<feFlood flood-opacity="0" result="BackgroundImageFix"/>
<feColorMatrix in="SourceAlpha" type="matrix" values="0 0 0 0 0 0 0 0 0 0 0 0 0 0 0 0 0 0 127 0" result="hardAlpha"/>
<feOffset dy="37.9259"/>
<feGaussianBlur stdDeviation="37.9259"/>
<feColorMatrix type="matrix" values="0 0 0 0 0.027451 0 0 0 0 0.152941 0 0 0 0 0.137255 0 0 0 0.1 0"/>
<feBlend mode="normal" in2="BackgroundImageFix" result="effect1_dropShadow_292_13333"/>
<feColorMatrix in="SourceAlpha" type="matrix" values="0 0 0 0 0 0 0 0 0 0 0 0 0 0 0 0 0 0 127 0" result="hardAlpha"/>
<feOffset dy="132.741"/>
<feGaussianBlur stdDeviation="66.3704"/>
<feColorMatrix type="matrix" values="0 0 0 0 0.027451 0 0 0 0 0.152941 0 0 0 0 0.137255 0 0 0 0.09 0"/>
<feBlend mode="normal" in2="effect1_dropShadow_292_13333" result="effect2_dropShadow_292_13333"/>
<feColorMatrix in="SourceAlpha" type="matrix" values="0 0 0 0 0 0 0 0 0 0 0 0 0 0 0 0 0 0 127 0" result="hardAlpha"/>
<feOffset dy="322.37"/>
<feGaussianBlur stdDeviation="94.8148"/>
<feColorMatrix type="matrix" values="0 0 0 0 0.027451 0 0 0 0 0.152941 0 0 0 0 0.137255 0 0 0 0.05 0"/>
<feBlend mode="normal" in2="effect2_dropShadow_292_13333" result="effect3_dropShadow_292_13333"/>
<feColorMatrix in="SourceAlpha" type="matrix" values="0 0 0 0 0 0 0 0 0 0 0 0 0 0 0 0 0 0 127 0" result="hardAlpha"/>
<feOffset dy="568.889"/>
<feGaussianBlur stdDeviation="113.778"/>
<feColorMatrix type="matrix" values="0 0 0 0 0.027451 0 0 0 0 0.152941 0 0 0 0 0.137255 0 0 0 0.01 0"/>
<feBlend mode="normal" in2="effect3_dropShadow_292_13333" result="effect4_dropShadow_292_13333"/>
<feBlend mode="normal" in="SourceGraphic" in2="effect4_dropShadow_292_13333" result="shape"/>
</filter>
</defs>
</svg>
