<svg width="30" height="30" viewBox="0 0 30 30" fill="none" xmlns="http://www.w3.org/2000/svg">
<rect width="30" height="30" rx="6" fill="white"/>
<path d="M25 13.5V15C25 19.714 25 22.0711 23.5355 23.5355C22.0711 25 19.714 25 15 25C10.286 25 7.92893 25 6.46447 23.5355C5 22.0711 5 19.714 5 15C5 10.286 5 7.92893 6.46447 6.46447C7.92893 5 10.286 5 15 5H16.5" stroke="#072723" stroke-width="1.5" stroke-linecap="round"/>
<path d="M19.652 6.45506L20.3009 5.80624C21.3759 4.73125 23.1188 4.73125 24.1938 5.80624C25.2687 6.88124 25.2687 8.62415 24.1938 9.69914L23.5449 10.348M19.652 6.45506C19.652 6.45506 19.7331 7.83379 20.9497 9.05032C22.1662 10.2669 23.5449 10.348 23.5449 10.348M19.652 6.45506L13.6872 12.4199C13.2832 12.8239 13.0812 13.0259 12.9074 13.2487C12.7025 13.5114 12.5268 13.7957 12.3834 14.0965C12.2619 14.3515 12.1716 14.6225 11.9909 15.1646L11.4124 16.9M23.5449 10.348L17.5801 16.3128C17.1761 16.7168 16.9741 16.9188 16.7513 17.0926C16.4886 17.2975 16.2043 17.4732 15.9035 17.6166C15.6485 17.7381 15.3775 17.8284 14.8354 18.0091L13.1 18.5876M11.4124 16.9L11.0381 18.0229C10.9492 18.2897 11.0186 18.5837 11.2174 18.7826C11.4163 18.9814 11.7104 19.0508 11.9771 18.9619L13.1 18.5876M11.4124 16.9L13.1 18.5876" stroke="#072723" stroke-width="1.5"/>
</svg>
