<svg width="18" height="18" viewBox="0 0 18 18" fill="none" xmlns="http://www.w3.org/2000/svg">
<circle cx="9" cy="9" r="9" fill="currentColor"/>
<path d="M11.0205 8.04112L10.779 8.28262C9.48671 9.57489 8.19431 10.8673 6.9018 12.1598C6.64033 12.4213 6.33139 12.4785 6.02283 12.3357C5.72557 12.196 5.56244 11.9401 5.60576 11.6308C5.64469 11.4074 5.75013 11.2008 5.9083 11.0382C7.15799 9.7659 8.42388 8.50981 9.68488 7.24881L9.92374 7.00995C9.84667 6.99677 9.76894 6.98772 9.69091 6.98282C9.1853 6.98056 8.67932 6.98546 8.17409 6.97905C7.77398 6.97453 7.49782 6.69913 7.49255 6.31634C7.48727 5.8989 7.73781 5.61897 8.15639 5.61633C9.3193 5.6088 10.4816 5.60792 11.6432 5.6137C12.1131 5.61633 12.3775 5.87027 12.3862 6.3348C12.4076 7.48792 12.4202 8.64117 12.4243 9.79454C12.4258 10.2173 12.1507 10.4659 11.7307 10.4625C11.3343 10.4588 11.0736 10.2041 11.0615 9.79341C11.0487 9.30589 11.0476 8.81799 11.0404 8.33009C11.0389 8.25324 11.0291 8.17788 11.0205 8.04112Z" fill="white"/>
</svg>
