<svg width="24" height="24" viewBox="0 0 24 24" fill="none" xmlns="http://www.w3.org/2000/svg">
<path d="M3 10.2342L3.74721 10.1696C3.71261 9.76944 3.36893 9.46758 2.96767 9.4849C2.5664 9.50221 2.25 9.83255 2.25 10.2342H3ZM20.2361 12.0574L19.5306 16.1371L21.0087 16.3928L21.7142 12.313L20.2361 12.0574ZM13.245 21.25H8.59635V22.75H13.245V21.25ZM7.68498 20.4125L6.87282 11.0198L5.3784 11.149L6.19056 20.5417L7.68498 20.4125ZM19.5306 16.1371C19.0238 19.0677 16.3813 21.25 13.245 21.25V22.75C17.0712 22.75 20.3708 20.081 21.0087 16.3928L19.5306 16.1371ZM13.2548 5.10014L12.5921 9.14471L14.0724 9.38725L14.7351 5.34268L13.2548 5.10014ZM7.18773 10.2456L8.62647 9.00584L7.64729 7.86953L6.20855 9.10932L7.18773 10.2456ZM11.244 4.97205L11.7197 3.1382L10.2678 2.76156L9.79208 4.59541L11.244 4.97205ZM12.4382 2.7784L12.5832 2.82497L13.042 1.39686L12.897 1.35029L12.4382 2.7784ZM10.5235 6.81598C10.8354 6.23197 11.0777 5.61339 11.244 4.97205L9.79208 4.59541C9.65573 5.12106 9.45699 5.62892 9.20042 6.10923L10.5235 6.81598ZM12.5832 2.82497C12.8896 2.92341 13.1072 3.16008 13.1787 3.43583L14.6307 3.0592C14.4252 2.26718 13.819 1.64647 13.042 1.39686L12.5832 2.82497ZM11.7197 3.1382C11.7548 3.00319 11.8523 2.87912 11.9998 2.80803L11.3486 1.45674C10.8166 1.71308 10.417 2.18626 10.2678 2.76156L11.7197 3.1382ZM11.9998 2.80803C12.1345 2.7431 12.2931 2.7318 12.4382 2.7784L12.897 1.35029C12.3873 1.18654 11.8312 1.22419 11.3486 1.45674L11.9998 2.80803ZM14.1537 10.9842H19.3348V9.48419H14.1537V10.9842ZM4.71881 21.4061L3.74721 10.1696L2.25279 10.2988L3.22439 21.5353L4.71881 21.4061ZM3.75 21.5127V10.2342H2.25V21.5127H3.75ZM3.22439 21.5353C3.2112 21.3828 3.33146 21.25 3.48671 21.25V22.75C4.21268 22.75 4.78122 22.1279 4.71881 21.4061L3.22439 21.5353ZM14.7351 5.34268C14.8596 4.58255 14.8241 3.80477 14.6307 3.0592L13.1787 3.43583C13.3197 3.97922 13.3456 4.54611 13.2548 5.10014L14.7351 5.34268ZM8.59635 21.25C8.12244 21.25 7.72601 20.887 7.68498 20.4125L6.19056 20.5417C6.29852 21.7902 7.3427 22.75 8.59635 22.75V21.25ZM8.62647 9.00584C9.30632 8.41999 10.0392 7.72266 10.5235 6.81598L9.20042 6.10923C8.85404 6.75766 8.3025 7.30492 7.64729 7.86953L8.62647 9.00584ZM21.7142 12.313C21.9695 10.8365 20.8341 9.48419 19.3348 9.48419V10.9842C19.9014 10.9842 20.3332 11.4959 20.2361 12.0574L21.7142 12.313ZM3.48671 21.25C3.63292 21.25 3.75 21.3684 3.75 21.5127H2.25C2.25 22.1953 2.80289 22.75 3.48671 22.75V21.25ZM12.5921 9.14471C12.4344 10.1076 13.1766 10.9842 14.1537 10.9842V9.48419C14.1038 9.48419 14.0639 9.439 14.0724 9.38725L12.5921 9.14471ZM6.87282 11.0198C6.8474 10.7258 6.96475 10.4378 7.18773 10.2456L6.20855 9.10932C5.62022 9.61631 5.31149 10.3753 5.3784 11.149L6.87282 11.0198Z" fill="currentColor"/>
</svg>
