<svg width="36" height="36" viewBox="0 0 36 36" fill="none" xmlns="http://www.w3.org/2000/svg">
<path d="M10.5 16.0148C10.5 16.0148 11.0793 21.1609 13.336 23.3085C15.5926 25.456 21 26.0074 21 26.0074C21 26.0074 15.5926 26.5587 13.336 28.7063C11.0793 30.8538 10.5 35.9999 10.5 35.9999C10.5 35.9999 9.92066 30.8538 7.66405 28.7063C5.40743 26.5587 0 26.0074 0 26.0074C0 26.0074 5.40743 25.456 7.66405 23.3085C9.92066 21.1609 10.5 16.0148 10.5 16.0148Z" fill="#072723"/>
<path d="M25.5 7.53149C25.5 7.53149 26.0793 12.6776 28.336 14.8252C30.5926 16.9727 36 17.5241 36 17.5241C36 17.5241 30.5926 18.0754 28.336 20.223C26.0793 22.3705 25.5 27.5167 25.5 27.5167C25.5 27.5167 24.9207 22.3705 22.664 20.223C20.4074 18.0754 15 17.5241 15 17.5241C15 17.5241 20.4074 16.9727 22.664 14.8252C24.9207 12.6776 25.5 7.53149 25.5 7.53149Z" fill="#072723"/>
<path d="M10.5 0C10.5 0 11.0793 5.14612 13.336 7.29368C15.5926 9.44124 21 9.99259 21 9.99259C21 9.99259 15.5926 10.5439 13.336 12.6915C11.0793 14.8391 10.5 19.9852 10.5 19.9852C10.5 19.9852 9.92066 14.8391 7.66405 12.6915C5.40743 10.5439 0 9.99259 0 9.99259C0 9.99259 5.40743 9.44124 7.66405 7.29368C9.92066 5.14612 10.5 0 10.5 0Z" fill="#072723"/>
</svg>
